<svg xmlns="http://www.w3.org/2000/svg" viewBox="0 0 3218.51 1784.69"><defs><style>.cls-1{fill:#b0b2d1;}.cls-2{fill:#bcbee8;}.cls-3{fill:#f3f5f4;}.cls-14,.cls-4{fill:#fff;}.cls-4{stroke:#000;stroke-miterlimit:10;stroke-width:4px;}.cls-5{fill:#272866;}.cls-6{fill:#e5dfd5;}.cls-7{fill:#f9829f;}.cls-8{fill:#303230;}.cls-9{fill:#494b49;}.cls-10{fill:#696b69;}.cls-11{fill:#dee2de;}.cls-12{fill:#f2f0eb;}.cls-13{fill:#bbbebb;}.cls-15{fill:#656665;}.cls-16{fill:#515250;}.cls-17{fill:#d0c9bc;}.cls-18{fill:#5ac1c8;}.cls-19{fill:#eef7fa;}.cls-20{fill:#af662a;}.cls-21{fill:#de821b;}.cls-22{fill:#ffeeb0;}.cls-23{fill:#c3bfb6;}.cls-24{fill:#3e3f3e;}.cls-25{fill:#3e3e3e;}.cls-26{fill:#fbc6a4;}.cls-27{fill:#efb691;}.cls-28{fill:#ce386e;}.cls-29{fill:#442e29;}.cls-30{fill:#ce7754;}.cls-31{fill:#ec756c;}.cls-32{fill:#f48f87;}.cls-33{fill:#f8af9a;}.cls-34{fill:#fbd3c4;}.cls-35{fill:#d9dbdc;}.cls-36{fill:#a2938f;}.cls-37{fill:#231f20;}.cls-38{fill:#593f39;}.cls-39{fill:#69504a;}.cls-40{fill:#d5956a;}.cls-41{fill:#005baa;}.cls-42{fill:#eb559e;}.cls-43{fill:#fcd8c1;}.cls-44{fill:#e37b5d;}.cls-45{fill:#eaad85;}.cls-46{fill:#86b4e0;}.cls-47{fill:#f8c4d2;}.cls-48{fill:#eead86;}.cls-49{fill:#4c4b46;}.cls-50{fill:#52423b;}.cls-51{fill:#42342e;}.cls-52{fill:#8dc3d5;}.cls-53{fill:#262727;}.cls-54{fill:#f09f86;}.cls-55{fill:#db745a;}.cls-56{fill:#f9bdab;}.cls-57{fill:#353535;}</style></defs><g id="Layer_2" data-name="Layer 2"><g id="main"><path class="cls-1" d="M3218.51,1477.33H0c0,116.85,132.14,248.18,248.18,248.18h35.67L248,1726.89c285,34.73,788.43,57.8,1361.93,57.8,572.6,0,1075.35-23,1360.58-57.63l-38.82-1.55h38.63C3107.4,1725.51,3218.51,1614.39,3218.51,1477.33Z"/><ellipse class="cls-2" cx="1609.25" cy="1477.33" rx="1609.25" ry="123.74"/><path class="cls-3" d="M2680.73,721.7q0,16.45-1,33.13c-5.59,99.34-35.2,203-86.58,292.26h0c-41.74,72.58-97.86,135.66-167.12,179.19a409.82,409.82,0,0,1-76.78,37.85,379.12,379.12,0,0,1-104.89,22.44q-5.67.39-11.4.63a427.09,427.09,0,0,1-68.21-2.93c-76.84-9.22-150.61-36.28-225.27-58h-.06c-20.73-6-41.53-11.65-62.49-16.35a419.43,419.43,0,0,0-48.57-7.83c-12.88-1.35-25.76-2.18-38.65-2.67h0c-30.81-1.16-61.62-.33-92.47.27h0c-33,.63-66.12,1-99.28-1.69a438.66,438.66,0,0,1-63.66-9.54c-2.35-.53-4.7-1.1-7-1.69-68.12-17.07-135.6-38.73-205-49a537,537,0,0,0-61.07-5.66q-9.23-.29-18.54-.23c-67.89.3-138.23,12.26-204.34-4.81-31.81-8.22-60-23.69-87-41.47-19.45-12.79-38.31-26.77-57.51-40.09h0c-28.63-19.87-58-38.25-91.38-49-1.64-.53-3.31-1-5-1.54q-2.88-.86-5.8-1.75a699.13,699.13,0,0,1-93.76-36.36c-69-32.63-136.16-78.75-174.17-136.7-.77-1.16-1.51-2.32-2.25-3.49-46.62-73.91-75-160.53-78.61-247.47q-.76-18.59,0-37.13A413.86,413.86,0,0,1,459.27,432a368.2,368.2,0,0,1,45.47-97.34c64.2-98.06,172.73-169.15,286.89-194.68a431.53,431.53,0,0,1,57.18-8.87q3.27-.28,6.53-.51,9.33-.66,18.67-1c13-.51,26-.65,39-.49q12.6.15,25.2.64c13,.5,26,1.23,39,2.12q12.6.84,25.21,1.86c13,1,26,2.15,39,3.25Q1054,138,1066.6,139c13,1.07,26,2.07,39,2.91q12.6.83,25.21,1.42c13,.61,26,1,39,1.07q12.59.1,25.2-.21c4.2-.12,8.41-.26,12.61-.45q17.51-.79,35-2a1404.69,1404.69,0,0,0,312.15-57.66c34.39-10.5,69.38-20.6,104.74-29.93,43.11-11.38,86.78-21.62,130.59-30.06q9.23-1.77,18.47-3.44,5.85-1.07,11.7-2.07,13.13-2.28,26.25-4.29h0q6.46-1,12.93-1.93,19.83-2.88,39.61-5.13,26.85-3.06,53.59-4.89c100.87-6.82,199.79.51,291.71,30.25a559.09,559.09,0,0,1,111.81,50q12.75,7.49,25.21,15.78,19.86,13.18,39,28.47,12.78,10.23,25.21,21.42,20,18,39,38.65,12.87,14,25.2,29.16,2.85,3.49,5.66,7.06,6.81,8.61,13.44,17.6,10.3,14,19.9,28.47,13.28,20,25.2,41,12.34,21.67,23.23,44.17l2.11,4.39q7.16,15,13.65,30.26,14.09,33.07,25.21,67.39A868.25,868.25,0,0,1,2669.09,584q1.8,11,3.32,22,2.87,20.61,4.74,41.27,1.51,16.59,2.39,33.14.71,12.83,1,25.61C2680.68,711.24,2680.75,716.46,2680.73,721.7Z"/><path class="cls-2" d="M1697.26,390.58V1202.1h-163v-13.62q-3.52-.81-7-1.69c-68.12-17.07-135.6-38.73-205-49V390.58Z"/><rect class="cls-1" x="1358.14" y="451.62" width="76.36" height="31"/><rect class="cls-1" x="1457.95" y="451.62" width="76.36" height="31"/><rect class="cls-4" x="1557.77" y="451.62" width="76.36" height="31"/><rect class="cls-1" x="1358.14" y="521.23" width="76.36" height="31"/><rect class="cls-1" x="1457.95" y="521.23" width="76.36" height="31"/><rect class="cls-4" x="1557.77" y="521.23" width="76.36" height="31"/><rect class="cls-1" x="1358.14" y="590.84" width="76.36" height="31"/><rect class="cls-1" x="1457.95" y="590.84" width="76.36" height="31"/><rect class="cls-4" x="1557.77" y="590.84" width="76.36" height="31"/><rect class="cls-1" x="1358.14" y="660.45" width="76.36" height="31"/><rect class="cls-1" x="1457.95" y="660.45" width="76.36" height="31"/><rect class="cls-4" x="1557.77" y="660.45" width="76.36" height="31"/><rect class="cls-1" x="1358.14" y="730.06" width="76.36" height="31"/><rect class="cls-1" x="1457.95" y="730.06" width="76.36" height="31"/><rect class="cls-4" x="1557.77" y="730.06" width="76.36" height="31"/><rect class="cls-1" x="1534.31" y="390.58" width="162.94" height="811.51"/><path class="cls-2" d="M893.8,334.62v710.93h0c-30-20.85-61-40.07-96.36-50.56-1.92-.56-3.85-1.15-5.79-1.75a700.59,700.59,0,0,1-93.77-36.36C627.54,923.59,559,876.27,521.45,816.69c-46.62-73.93-75-160.54-78.61-247.48V532.08A414,414,0,0,1,459.27,432a368.29,368.29,0,0,1,45.47-97.33Z"/><rect class="cls-4" x="726.08" y="399.87" width="91.81" height="33.14"/><rect class="cls-4" x="726.08" y="474.28" width="91.81" height="33.14"/><rect class="cls-4" x="726.08" y="548.69" width="91.81" height="33.14"/><rect class="cls-4" x="726.08" y="623.1" width="91.81" height="33.14"/><rect class="cls-5" x="486.05" y="399.87" width="91.81" height="33.14"/><rect class="cls-5" x="606.06" y="399.87" width="91.81" height="33.14"/><rect class="cls-5" x="486.05" y="474.28" width="91.81" height="33.14"/><rect class="cls-5" x="606.06" y="474.28" width="91.81" height="33.14"/><rect class="cls-5" x="486.05" y="548.69" width="91.81" height="33.14"/><rect class="cls-5" x="606.06" y="548.69" width="91.81" height="33.14"/><rect class="cls-5" x="486.05" y="623.1" width="91.81" height="33.14"/><rect class="cls-5" x="606.06" y="623.1" width="91.81" height="33.14"/><rect class="cls-5" x="486.05" y="697.51" width="91.81" height="33.14"/><rect class="cls-5" x="606.06" y="697.51" width="91.81" height="33.14"/><rect class="cls-4" x="726.08" y="697.51" width="91.81" height="33.14"/><rect class="cls-2" x="636.67" y="277.75" width="232.83" height="56.87"/><path class="cls-1" d="M893.79,334.62v710.92c-30-20.85-61-40.07-96.36-50.56-1.92-.56-3.85-1.15-5.79-1.75a700.59,700.59,0,0,1-93.77-36.36V334.62Z"/><rect class="cls-1" x="636.67" y="316.74" width="232.82" height="17.89"/><path class="cls-2" d="M1242.6,141.77v990.15c-67.89.3-138.23,12.26-204.34-4.81-54.71-14.14-98.59-49.75-144.46-81.56h0c-30-20.85-61-40.07-96.36-50.56-1.92-.56-3.85-1.15-5.79-1.75V139.94a431.39,431.39,0,0,1,57.17-8.87c2.18-.19,4.35-.36,6.53-.51q9.35-.65,18.67-1c13-.52,26-.65,39-.49q12.6.15,25.2.64c13,.5,26,1.23,39,2.12q12.6.85,25.21,1.86c13,1,26,2.15,39,3.25q12.6,1.09,25.2,2.12c13,1.07,26,2.07,39,2.91q12.6.83,25.21,1.42c13,.6,26,1,39,1.08q12.59.08,25.2-.22,6.3-.16,12.61-.45Q1225.11,143,1242.6,141.77Z"/><path class="cls-1" d="M874,129.53V859h-25.2V131.07c2.18-.19,4.35-.36,6.53-.51Q864.69,129.92,874,129.53Z"/><path class="cls-1" d="M938.2,129.68V859H913V129Q925.6,129.19,938.2,129.68Z"/><path class="cls-1" d="M1002.4,133.66V859H977.19V131.8Q989.79,132.66,1002.4,133.66Z"/><path class="cls-1" d="M1066.59,139V859h-25.2V136.91Q1054,138,1066.59,139Z"/><path class="cls-1" d="M1130.79,143.36V859h-25.21v-717Q1118.18,142.77,1130.79,143.36Z"/><path class="cls-1" d="M1195,144.22V859h-25.2V144.44Q1182.37,144.52,1195,144.22Z"/><rect class="cls-2" x="1597.97" y="84.08" width="375.05" height="1118.03"/><rect class="cls-4" x="1833.53" y="168.17" width="76.36" height="42.71"/><rect class="cls-4" x="1833.53" y="264.07" width="76.36" height="42.71"/><rect class="cls-4" x="1833.53" y="359.97" width="76.36" height="42.71"/><rect class="cls-4" x="1833.53" y="455.87" width="76.36" height="42.71"/><rect class="cls-1" x="1633.9" y="168.17" width="76.36" height="42.71"/><rect class="cls-1" x="1733.72" y="168.17" width="76.36" height="42.71"/><rect class="cls-1" x="1633.9" y="264.07" width="76.36" height="42.71"/><rect class="cls-1" x="1733.72" y="264.07" width="76.36" height="42.71"/><rect class="cls-1" x="1633.9" y="359.97" width="76.36" height="42.71"/><rect class="cls-1" x="1733.72" y="359.97" width="76.36" height="42.71"/><rect class="cls-1" x="1633.9" y="455.87" width="76.36" height="42.71"/><rect class="cls-1" x="1733.72" y="455.87" width="76.36" height="42.71"/><rect class="cls-1" x="1633.9" y="551.77" width="76.36" height="42.7"/><rect class="cls-1" x="1733.72" y="551.77" width="76.36" height="42.7"/><rect class="cls-4" x="1833.53" y="551.77" width="76.36" height="42.7"/><path class="cls-1" d="M2164.77,212.69V1284.28c-76.83-9.22-150.61-36.28-225.27-58l-.06,0c-20.73-6-41.53-11.64-62.49-16.34a419.61,419.61,0,0,0-48.56-7.83c-12.89-1.35-25.77-2.18-38.66-2.67h0V212.69Z"/><rect class="cls-4" x="1852.85" y="87.78" width="76.36" height="31" transform="translate(3782.06 206.55) rotate(-180)"/><rect class="cls-4" x="1852.85" y="157.39" width="76.36" height="31" transform="translate(3782.06 345.77) rotate(-180)"/><rect class="cls-4" x="1852.85" y="227" width="76.36" height="31" transform="translate(3782.06 484.99) rotate(-180)"/><rect class="cls-4" x="1852.85" y="296.61" width="76.36" height="31" transform="translate(3782.06 624.21) rotate(-180)"/><rect class="cls-5" x="2054.44" y="285.91" width="76.36" height="31" transform="translate(4185.23 602.81) rotate(-180)"/><rect class="cls-5" x="1954.62" y="285.91" width="76.36" height="31" transform="translate(3985.6 602.81) rotate(-180)"/><rect class="cls-5" x="2054.44" y="355.52" width="76.36" height="31" transform="translate(4185.23 742.03) rotate(-180)"/><rect class="cls-5" x="1954.62" y="355.52" width="76.36" height="31" transform="translate(3985.6 742.03) rotate(-180)"/><rect class="cls-5" x="2054.44" y="425.13" width="76.36" height="31" transform="translate(4185.23 881.25) rotate(-180)"/><rect class="cls-5" x="1954.62" y="425.13" width="76.36" height="31" transform="translate(3985.6 881.25) rotate(-180)"/><rect class="cls-5" x="2054.44" y="494.74" width="76.36" height="31" transform="translate(4185.23 1020.47) rotate(-180)"/><rect class="cls-5" x="1954.62" y="494.74" width="76.36" height="31" transform="translate(3985.6 1020.47) rotate(-180)"/><rect class="cls-5" x="2054.44" y="564.35" width="76.36" height="31" transform="translate(4185.23 1159.69) rotate(-180)"/><rect class="cls-5" x="1954.62" y="564.35" width="76.36" height="31" transform="translate(3985.6 1159.69) rotate(-180)"/><rect class="cls-4" x="1852.85" y="366.22" width="76.36" height="31" transform="translate(3782.06 763.43) rotate(-180)"/><path class="cls-2" d="M1952.67,2.36V1226.28H1789.73V24.3l.35-.18q15.08-2.89,30.17-5.51,13.13-2.28,26.25-4.29h0q6.46-1,12.93-1.93,19.83-2.88,39.61-5.13Q1925.93,4.19,1952.67,2.36Z"/><path class="cls-2" d="M2680.73,721.7q0,16.45-1,33.13c-5.58,99.34-35.2,203-86.58,292.26v0c-41.75,72.57-97.87,135.65-167.13,179.18a409.21,409.21,0,0,1-76.78,37.85,378.76,378.76,0,0,1-104.89,22.44V32.61a559.09,559.09,0,0,1,111.81,50q12.75,7.49,25.2,15.78,19.88,13.18,39,28.47,12.78,10.23,25.21,21.42,20,18,39,38.65,12.86,14,25.21,29.16,9.69,11.94,19.09,24.66,10.3,14,19.89,28.47,13.29,20,25.21,41,13.55,23.78,25.34,48.56,7.16,15,13.65,30.26,14.09,33.07,25.21,67.4A867.82,867.82,0,0,1,2669.09,584q1.8,11,3.32,22,2.87,20.61,4.74,41.28,1.51,16.58,2.4,33.13.69,12.83,1,25.61C2680.68,711.24,2680.75,716.46,2680.73,721.7Z"/><path class="cls-5" d="M2638.18,456.47V883.18H2613V389.07Q2627.06,422.15,2638.18,456.47Z"/><path class="cls-5" d="M2574,310.25V883.18h-25.21V269.25Q2562.06,289.29,2574,310.25Z"/><path class="cls-5" d="M2509.79,216.12V883.18h-25.21V187Q2497.44,200.93,2509.79,216.12Z"/><path class="cls-5" d="M2445.59,148.31V883.18h-25.21V126.89Q2433.16,137.12,2445.59,148.31Z"/><path class="cls-5" d="M2381.39,98.42V883.18h-25.2V82.64Q2368.94,90.13,2381.39,98.42Z"/><rect class="cls-5" x="2292" y="75.71" width="25.2" height="807.46" transform="translate(4609.2 958.88) rotate(-180)"/><path class="cls-2" d="M1370.79,89.31c12.71-4.59,25.22-9.85,37.76-15.69,10.29-4.79,25.44-10.36,34.36-17.3,8.35-6.5,15-17.73,18.63-27-22-8.19-44.28,15-63.79,24.8-71.56,35.92-168,36.16-244.18,15.84-22.12-5.9-68.49-36.19-90.58-18.5-34.81,27.9,52.48,47.44,67.32,50.71,61.47,13.53,127.45,13.69,189.14,1.51A347.79,347.79,0,0,0,1370.79,89.31Z"/><path class="cls-2" d="M452,947.69c23.14,35.6,68.67,79.29,117.29,57.4,48.92-22,4.73-80-26.87-103.17C495,867.07,462.3,831.6,447.71,771.23c-7.2-29.77-8.51-60.55-14.81-90.48-1.82-8.63-28.22-82.88-40-69.47-14.75,16.78-11.85,60.41-12.36,81.44a453.36,453.36,0,0,0,6.72,89.19C397.57,840.73,419.46,897.59,452,947.69Z"/><path class="cls-2" d="M334,530.23c20.42,20.24,56.63,26.28,62.36-10.5,4.43-28.45-35.48-69.87-61.92-47.13C312.19,491.73,318.62,515,334,530.23Z"/><path class="cls-2" d="M296.22,610.59c.42,14.59,9.46,28.13,29.6,24.36,21.52-4,25.18-40.93,6.36-51.23C309.44,571.28,295.68,591.81,296.22,610.59Z"/><path class="cls-2" d="M2707.44,1133.34c-13.3,33.36-22.64,66.35-24,106.92-.76,23.45.79,47.38-5.63,70-17.88,62.87-110,68.56-140.3,11.92-32.7-61.1,6.12-115.67,47.7-160.2,43.6-46.68,92.65-87,121.15-143.7,7-14,27.48-12.82,32.92,1.85C2752.44,1055.5,2721.49,1098.09,2707.44,1133.34Z"/><path class="cls-5" d="M455.27,1171.84a20,20,0,0,0,12.35,25.53h0A20.06,20.06,0,0,0,493.15,1185l23.18-66.66A20,20,0,0,0,504,1092.83h0a20,20,0,0,0-25.52,12.35Z"/><path class="cls-6" d="M473.65,1197.73a30.62,30.62,0,0,0,18.85,39h0a30.62,30.62,0,0,0,39-18.87l35.39-101.75a30.61,30.61,0,0,0-18.87-39h0A30.6,30.6,0,0,0,509,1096Z"/><path class="cls-6" d="M1688.61,469.42a11.73,11.73,0,0,0,11.73,11.72h0a11.73,11.73,0,0,0,11.73-11.72V382.57a11.74,11.74,0,0,0-11.73-11.73h0a11.73,11.73,0,0,0-11.73,11.73Z"/><path class="cls-6" d="M1482.74,465.81a11.71,11.71,0,0,0,11.73,11.72h0a11.73,11.73,0,0,0,11.73-11.72V379a11.74,11.74,0,0,0-11.73-11.74h0A11.73,11.73,0,0,0,1482.74,379Z"/><path class="cls-6" d="M2292.12,763.24a24,24,0,0,0,24,24H2371a24,24,0,0,0,24-24h0a24,24,0,0,0-24-24h-54.87a24,24,0,0,0-24,24Z"/><rect class="cls-7" x="2351.22" y="677.97" width="123.2" height="187.12" rx="51"/><path class="cls-8" d="M2605.06,1366.54c0,107.23-61.92,194.15-138.29,194.15s-138.31-86.92-138.31-194.15,61.93-194.14,138.31-194.14S2605.06,1259.32,2605.06,1366.54Z"/><rect class="cls-8" x="2352.16" y="1172.4" width="114.61" height="388.06"/><path class="cls-9" d="M2496.94,1366.54c0,107.23-61.92,194.15-138.31,194.15s-138.29-86.92-138.29-194.15,61.92-194.14,138.29-194.14S2496.94,1259.32,2496.94,1366.54Z"/><path class="cls-10" d="M2308.39,1212.25c34.19-23.07,44.61,9.22,29.31,17.81-42.91,24.06-82.69,64.89-100.48,119.32C2244.54,1289.71,2266.52,1240.53,2308.39,1212.25Z"/><path class="cls-11" d="M2396.36,1363.37c0,40.07-23.14,72.55-51.69,72.55s-51.67-32.48-51.67-72.55,23.14-72.55,51.67-72.55S2396.36,1323.3,2396.36,1363.37Z"/><path class="cls-12" d="M2367.11,1362.69c0,16-9.26,29-20.68,29s-20.69-13-20.69-29,9.26-29,20.69-29S2367.11,1346.65,2367.11,1362.69Z"/><path class="cls-13" d="M2313.7,1368.55c0-39.4,22.36-71.42,50.23-72.49a38.84,38.84,0,0,0-19.26-5.24c-28.53,0-51.67,32.48-51.67,72.55s23.14,72.55,51.67,72.55c.49,0,1-.05,1.45-.06C2327.12,1425.15,2313.7,1399.05,2313.7,1368.55Z"/><path class="cls-7" d="M1453.4,909.83,1049.79,427.64H2060.06c208,0,290.38,471.93,290.38,471.93,471.79,0,373.69,522.83,373.69,522.83H1285.4c-.08-1.28-.15-2.53-.23-3.81h-32.64C1219.84,923.43,1453.4,909.83,1453.4,909.83Z"/><path class="cls-6" d="M2169.32,523.37c98.74,137.92,140.33,376.2,140.33,376.2H1632.38s-41.6-238.28-140.33-376.2Z"/><path class="cls-14" d="M2152.17,539.76c90.11,125.9,128.09,343.42,128.09,343.42H1649.54s-38-217.52-128.09-343.42Z"/><rect class="cls-15" x="1698.36" y="729.52" width="191.67" height="89.2" rx="40.18"/><path class="cls-16" d="M1946.69,883.18V857.71a40.19,40.19,0,0,0-40.19-40.19H1710.82a40.19,40.19,0,0,0-40.19,40.19v25.47Z"/><path class="cls-17" d="M2136,562.82H1536.77c-4.93-8-10-15.67-15.32-23.06h630.72c90.11,125.9,128.09,343.42,128.09,343.42h-20.69C2247.09,823.94,2208.36,663.88,2136,562.82Z"/><path class="cls-7" d="M684.87,899.57S767.2,427.64,975.25,427.64H1286c208,0,290.39,471.93,290.39,471.93,471.79,0,373.69,522.83,373.69,522.83H511.38C458.27,1259.55,545.47,969.92,684.87,899.57Z"/><path class="cls-7" d="M2739.89,1196.43c-5.58,60.32-56.54,105-113.82,99.66s-99.19-58.51-93.62-118.84,56.54-105,113.82-99.67S2745.46,1136.08,2739.89,1196.43Z"/><path class="cls-10" d="M2737.61,1196.76c-5.36,58-50.72,101.25-101.31,96.58s-87.25-55.51-81.89-113.52,50.72-101.25,101.31-96.58S2743,1138.74,2737.61,1196.76Z"/><path class="cls-6" d="M2742.17,1197.17c-5.28,57.23-47.62,100.1-94.56,95.76s-80.7-54.24-75.4-111.47,47.62-100.1,94.56-95.76S2747.47,1140,2742.17,1197.17Z"/><path class="cls-18" d="M2733.12,1196.33c-4.19,45.34-37.73,79.3-74.91,75.86s-63.94-43-59.74-88.3,37.73-79.3,74.92-75.87S2737.31,1151,2733.12,1196.33Z"/><path class="cls-10" d="M2673.39,1108a56.57,56.57,0,0,0-15.19.69c36.51,4.2,62.62,43.33,58.48,88.16-3.62,39-29,69.63-59.73,75.18.42,0,.84.11,1.26.14,37.18,3.44,70.72-30.52,74.91-75.86S2710.57,1111.45,2673.39,1108Z"/><path class="cls-19" d="M2687.9,1159.27c-1.78,19.29-14.61,33.87-28.64,32.58s-24-18-22.19-37.27,14.61-33.87,28.65-32.57S2689.68,1140,2687.9,1159.27Z"/><path class="cls-19" d="M2669.39,1245.71c-.88,9.58-7.24,16.82-14.21,16.17s-11.91-8.92-11-18.5,7.25-16.81,14.22-16.17S2670.29,1236.16,2669.39,1245.71Z"/><path class="cls-7" d="M2174.11,1196.43c-5.56,60.32-56.53,105-113.81,99.66s-99.19-58.51-93.61-118.84,56.53-105,113.82-99.67S2179.7,1136.08,2174.11,1196.43Z"/><path class="cls-10" d="M2171.85,1196.76c-5.37,58-50.73,101.25-101.32,96.58s-87.25-55.51-81.88-113.52,50.72-101.25,101.3-96.58S2177.21,1138.74,2171.85,1196.76Z"/><path class="cls-6" d="M2176.4,1197.17c-5.29,57.23-47.62,100.1-94.56,95.76s-80.69-54.24-75.4-111.47,47.63-100.1,94.56-95.76S2181.69,1140,2176.4,1197.17Z"/><path class="cls-18" d="M2167.35,1196.33c-4.19,45.34-37.73,79.3-74.92,75.86s-63.93-43-59.73-88.3,37.73-79.3,74.91-75.87S2171.54,1151,2167.35,1196.33Z"/><path class="cls-10" d="M2107.61,1108a56.61,56.61,0,0,0-15.19.69c36.53,4.2,62.63,43.33,58.48,88.16-3.61,39-29,69.63-59.72,75.18.42,0,.84.11,1.25.14,37.19,3.44,70.73-30.52,74.92-75.86S2144.8,1111.45,2107.61,1108Z"/><path class="cls-19" d="M2122.14,1159.27c-1.79,19.29-14.62,33.87-28.65,32.58s-24-18-22.19-37.27,14.61-33.87,28.65-32.57S2123.92,1140,2122.14,1159.27Z"/><path class="cls-19" d="M2103.63,1245.71c-.88,9.58-7.25,16.82-14.22,16.17s-11.9-8.92-11-18.5,7.26-16.81,14.23-16.17S2104.52,1236.16,2103.63,1245.71Z"/><path class="cls-6" d="M1518.62,899.57H757.24s41.6-238.28,140.33-376.2H1378.3C1477,661.29,1518.62,899.57,1518.62,899.57Z"/><path class="cls-14" d="M1486.34,883.62H789.53S827.59,665.54,918,539.32h440C1448.27,665.54,1486.34,883.62,1486.34,883.62Z"/><rect class="cls-15" x="1161.81" y="729.52" width="191.67" height="89.2" rx="40.18"/><path class="cls-16" d="M1410.14,883.18V857.71A40.19,40.19,0,0,0,1370,817.52H1174.27a40.19,40.19,0,0,0-40.19,40.19v25.47Z"/><rect class="cls-15" x="862.85" y="729.52" width="191.67" height="89.2" rx="40.18"/><path class="cls-16" d="M1111.18,883.18V857.71A40.18,40.18,0,0,0,1071,817.52H875.31a40.18,40.18,0,0,0-40.18,40.19v25.47Z"/><path class="cls-17" d="M934.09,560.08c-73.5,102.67-112.4,266.13-124.36,323.54h-20.2S827.59,665.54,918,539.32h440c4.79,6.68,9.4,13.62,13.88,20.76Z"/><rect class="cls-17" x="1031.61" y="544.04" width="72.4" height="339.47"/><path class="cls-6" d="M1479.55,1097v-.31h80.24c102,0,184.74,116.12,184.74,259.35a358.81,358.81,0,0,1-6.17,66.53h-428.7q-1.5-7.93-2.65-16.07a360.27,360.27,0,0,1-3.53-50.46C1303.48,1216.89,1381.55,1103.36,1479.55,1097Z"/><path class="cls-20" d="M1347.44,1367.42c0-115.33,64.71-209.43,146-214.7v-.25h126.89c84.57,0,153.12,96.23,153.12,215a297,297,0,0,1-5.11,55.16H1352.56A297.72,297.72,0,0,1,1347.44,1367.42Z"/><path class="cls-8" d="M1499.88,1475.23c-15-31-23.7-68.42-23.7-108.69s8.74-77.68,23.7-108.69V1172.4h114.6c76.38,0,138.3,86.92,138.3,194.14s-61.92,194.15-138.3,194.15c-2.06,0-4.12-.09-6.17-.23H1499.88Z"/><path class="cls-9" d="M1644.66,1366.54c0,107.23-61.93,194.15-138.3,194.15s-138.3-86.92-138.3-194.15,61.91-194.14,138.3-194.14S1644.66,1259.32,1644.66,1366.54Z"/><path class="cls-10" d="M1456.11,1212.25c34.2-23.07,44.61,9.22,29.3,17.81-42.91,24.06-82.68,64.89-100.48,119.32C1392.26,1289.71,1414.23,1240.53,1456.11,1212.25Z"/><path class="cls-11" d="M1544.07,1363.37c0,40.07-23.14,72.55-51.67,72.55s-51.67-32.48-51.67-72.55,23.13-72.55,51.67-72.55S1544.07,1323.3,1544.07,1363.37Z"/><path class="cls-12" d="M1514.83,1362.69c0,16-9.26,29-20.68,29s-20.69-13-20.69-29,9.26-29,20.69-29S1514.83,1346.65,1514.83,1362.69Z"/><path class="cls-13" d="M1461.41,1368.55c0-39.4,22.36-71.42,50.24-72.49a38.83,38.83,0,0,0-19.25-5.24c-28.54,0-51.67,32.48-51.67,72.55s23.13,72.55,51.67,72.55c.47,0,1-.05,1.44-.06C1474.84,1425.15,1461.41,1399.05,1461.41,1368.55Z"/><path class="cls-7" d="M1679.58,1361.36c0-103.68-52.25-190.25-121.8-210.62-10.16-3,88.36-4.53,88.36-4.53,84.65,0,153.27,96.32,153.27,215.15a295.75,295.75,0,0,1-6.34,61.22h-119.8A296.46,296.46,0,0,0,1679.58,1361.36Z"/><path class="cls-6" d="M1526.32,1146.21h119.82a110.94,110.94,0,0,1,24.95,2.87c44.6,47.35,73.44,122.42,73.44,207a358.81,358.81,0,0,1-6.17,66.53h-65.09a296.46,296.46,0,0,0,6.31-61.22C1679.58,1242.53,1611,1146.21,1526.32,1146.21Z"/><path class="cls-6" d="M772.83,1097v-.31h80.24c102,0,184.74,116.12,184.74,259.35a358.81,358.81,0,0,1-6.17,66.53H602.94a358.79,358.79,0,0,1-6.19-66.53C596.75,1216.89,674.82,1103.36,772.83,1097Z"/><path class="cls-20" d="M632.9,1367.42c0-115.33,64.71-209.43,146-214.7v-.25H905.74c84.56,0,153.12,96.23,153.12,215a297.81,297.81,0,0,1-5.1,55.16H638A297.72,297.72,0,0,1,632.9,1367.42Z"/><path class="cls-8" d="M1038.56,1366.54c0,107.23-61.91,194.15-138.3,194.15S762,1473.77,762,1366.54s61.93-194.14,138.3-194.14S1038.56,1259.32,1038.56,1366.54Z"/><rect class="cls-8" x="785.66" y="1172.4" width="114.6" height="388.06"/><path class="cls-9" d="M930.44,1366.54c0,107.23-61.92,194.15-138.3,194.15s-138.3-86.92-138.3-194.15,61.92-194.14,138.3-194.14S930.44,1259.32,930.44,1366.54Z"/><path class="cls-10" d="M741.89,1212.25c34.2-23.07,44.62,9.22,29.32,17.81-42.92,24.06-82.69,64.89-100.5,119.32C678.05,1289.71,700,1240.53,741.89,1212.25Z"/><path class="cls-11" d="M829.85,1363.37c0,40.07-23.13,72.55-51.66,72.55s-51.69-32.48-51.69-72.55,23.14-72.55,51.69-72.55S829.85,1323.3,829.85,1363.37Z"/><path class="cls-12" d="M800.62,1362.69c0,16-9.27,29-20.69,29s-20.68-13-20.68-29,9.26-29,20.68-29S800.62,1346.65,800.62,1362.69Z"/><path class="cls-13" d="M747.2,1368.55c0-39.4,22.36-71.42,50.24-72.49a38.86,38.86,0,0,0-19.25-5.24c-28.55,0-51.69,32.48-51.69,72.55s23.14,72.55,51.69,72.55c.48,0,.95-.05,1.43-.06C760.63,1425.15,747.2,1399.05,747.2,1368.55Z"/><path class="cls-7" d="M973.75,1361.36c0-102.88-51.43-188.89-120.16-210.13,37.48-3.68,86.72-5,86.72-5,84.65,0,153.28,96.32,153.28,215.15a297.13,297.13,0,0,1-6.33,61.22H967.44A296.46,296.46,0,0,0,973.75,1361.36Z"/><path class="cls-6" d="M820.49,1146.21H940.31a111,111,0,0,1,25,2.87c44.6,47.35,73.43,122.42,73.43,207a359.67,359.67,0,0,1-6.16,66.53h-65.1a296.46,296.46,0,0,0,6.31-61.22C973.75,1242.53,905.13,1146.21,820.49,1146.21Z"/><path class="cls-7" d="M1302.2,1139.77h7.18c-2.41,0-4.79.1-7.18.26Z"/><path class="cls-7" d="M1302.55,1585.72h0Z"/><rect class="cls-6" x="1005.87" y="531.06" width="72.4" height="368.44"/><rect class="cls-7" x="1023.57" y="518.19" width="33.78" height="399"/><path class="cls-6" d="M1783.41,1398.53a46.88,46.88,0,0,0,46.88,46.88h888.82a46.88,46.88,0,0,0,46.89-46.88h0a46.89,46.89,0,0,0-46.89-46.89H1830.29a46.88,46.88,0,0,0-46.88,46.89Z"/><path class="cls-6" d="M439.52,1398.53a46.87,46.87,0,0,0,46.88,46.88h27.7A46.88,46.88,0,0,0,561,1398.53h0a46.88,46.88,0,0,0-46.88-46.89H486.4a46.88,46.88,0,0,0-46.88,46.89Z"/><path class="cls-21" d="M1112.73,974.6A20.23,20.23,0,0,0,1133,994.83h59.18a20.24,20.24,0,0,0,20.24-20.23h0a20.24,20.24,0,0,0-20.24-20.25H1133a20.24,20.24,0,0,0-20.23,20.25Z"/><path class="cls-6" d="M1090.48,974.6a20.23,20.23,0,0,0,20.23,20.23h59.18a20.24,20.24,0,0,0,20.24-20.23h0a20.24,20.24,0,0,0-20.24-20.25h-59.18a20.24,20.24,0,0,0-20.23,20.25Z"/><path class="cls-7" d="M2195.47,1266.36a14.58,14.58,0,0,0,14.58,14.58h269.78a14.58,14.58,0,0,0,14.58-14.58V1122.82a14.58,14.58,0,0,0-14.58-14.58H2210.05a14.58,14.58,0,0,0-14.58,14.58Z"/><path class="cls-6" d="M2211.64,1266.36a14.58,14.58,0,0,0,14.58,14.58H2496a14.59,14.59,0,0,0,14.59-14.58V1122.82a14.59,14.59,0,0,0-14.59-14.58H2226.22a14.58,14.58,0,0,0-14.58,14.58Z"/><path class="cls-8" d="M2473.09,1255.62a10.66,10.66,0,0,0,10.66,10.66h0a10.66,10.66,0,0,0,10.66-10.66V1133.49a10.66,10.66,0,0,0-10.66-10.67h0a10.66,10.66,0,0,0-10.66,10.67Z"/><path class="cls-8" d="M2432.65,1255.62a10.66,10.66,0,0,0,10.66,10.66h0a10.67,10.67,0,0,0,10.67-10.66V1133.49a10.67,10.67,0,0,0-10.67-10.67h0a10.66,10.66,0,0,0-10.66,10.67Z"/><path class="cls-8" d="M2392.2,1255.62a10.67,10.67,0,0,0,10.67,10.66h0a10.66,10.66,0,0,0,10.66-10.66V1133.49a10.66,10.66,0,0,0-10.66-10.67h0a10.67,10.67,0,0,0-10.67,10.67Z"/><path class="cls-8" d="M2351.77,1255.62a10.66,10.66,0,0,0,10.66,10.66h0a10.66,10.66,0,0,0,10.66-10.66V1133.49a10.66,10.66,0,0,0-10.66-10.67h0a10.66,10.66,0,0,0-10.66,10.67Z"/><path class="cls-8" d="M2311.33,1255.62a10.66,10.66,0,0,0,10.66,10.66h0a10.65,10.65,0,0,0,10.65-10.66V1133.49a10.65,10.65,0,0,0-10.65-10.67h0a10.66,10.66,0,0,0-10.66,10.67Z"/><path class="cls-8" d="M2270.89,1255.62a10.65,10.65,0,0,0,10.65,10.66h0a10.66,10.66,0,0,0,10.67-10.66V1133.49a10.66,10.66,0,0,0-10.67-10.67h0a10.66,10.66,0,0,0-10.65,10.67Z"/><path class="cls-8" d="M2230.45,1255.62a10.65,10.65,0,0,0,10.65,10.66h0a10.67,10.67,0,0,0,10.67-10.66V1133.49a10.67,10.67,0,0,0-10.67-10.67h0a10.66,10.66,0,0,0-10.65,10.67Z"/><path class="cls-22" d="M2071.48,1023.45a6.46,6.46,0,0,0,6.46,6.45h416.25a6.46,6.46,0,0,0,6.46-6.45h0a6.47,6.47,0,0,0-6.46-6.47H2077.94a6.47,6.47,0,0,0-6.46,6.47Z"/><path class="cls-23" d="M2730.1,1401.56c-1.86,20.1-18.84,35-37.93,33.22s-33.05-19.51-31.2-39.61,18.84-35,37.94-33.21S2732,1381.46,2730.1,1401.56Z"/><path class="cls-10" d="M2729.35,1401.67c-1.8,19.34-16.91,33.74-33.77,32.18s-29.08-18.49-27.29-37.82,16.91-33.74,33.76-32.19S2731.13,1382.33,2729.35,1401.67Z"/><path class="cls-6" d="M2730.86,1401.81c-1.76,19.08-15.87,33.35-31.51,31.92s-26.89-18.09-25.13-37.16,15.88-33.35,31.51-31.91S2732.63,1382.75,2730.86,1401.81Z"/><path class="cls-18" d="M2727.84,1401.53c-1.38,15.11-12.57,26.43-25,25.28s-21.29-14.32-19.9-29.43,12.57-26.42,25-25.28S2729.25,1386.42,2727.84,1401.53Z"/><path class="cls-10" d="M2707.94,1372.1a18.27,18.27,0,0,0-5.07.23c12.18,1.4,20.88,14.44,19.5,29.37-1.21,13-9.66,23.21-19.91,25.06l.41,0c12.4,1.15,23.59-10.17,25-25.28S2720.33,1373.24,2707.94,1372.1Z"/><path class="cls-19" d="M2712.78,1389.18c-.6,6.43-4.87,11.27-9.55,10.85s-8-6-7.4-12.42,4.88-11.28,9.55-10.85S2713.36,1382.76,2712.78,1389.18Z"/><path class="cls-19" d="M2706.61,1418c-.3,3.2-2.42,5.61-4.74,5.41s-4-3-3.67-6.17,2.42-5.61,4.74-5.4S2706.91,1414.8,2706.61,1418Z"/><path class="cls-23" d="M2066.43,1401.56c-1.86,20.1-18.83,35-37.91,33.22s-33.06-19.51-31.22-39.61,18.86-35,37.94-33.21S2068.29,1381.46,2066.43,1401.56Z"/><path class="cls-10" d="M2065.68,1401.67c-1.78,19.34-16.9,33.74-33.76,32.18s-29.08-18.49-27.29-37.82,16.9-33.74,33.76-32.19S2067.47,1382.33,2065.68,1401.67Z"/><path class="cls-6" d="M2067.2,1401.81c-1.77,19.08-15.87,33.35-31.51,31.92s-26.89-18.09-25.13-37.16,15.88-33.35,31.51-31.91S2069,1382.75,2067.2,1401.81Z"/><path class="cls-18" d="M2064.18,1401.53c-1.4,15.11-12.58,26.43-25,25.28s-21.31-14.32-19.91-29.43,12.57-26.42,25-25.28S2065.58,1386.42,2064.18,1401.53Z"/><path class="cls-10" d="M2044.28,1372.1a18.16,18.16,0,0,0-5.06.23c12.17,1.4,20.87,14.44,19.48,29.37-1.2,13-9.66,23.21-19.9,25.06l.42,0c12.38,1.15,23.56-10.17,25-25.28S2056.66,1373.24,2044.28,1372.1Z"/><path class="cls-19" d="M2049.11,1389.18c-.59,6.43-4.86,11.27-9.54,10.85s-8-6-7.4-12.42,4.87-11.28,9.55-10.85S2049.71,1382.76,2049.11,1389.18Z"/><path class="cls-19" d="M2043,1418c-.29,3.2-2.42,5.61-4.74,5.41s-4-3-3.68-6.17,2.42-5.61,4.74-5.4S2043.25,1414.8,2043,1418Z"/><rect class="cls-7" x="1414.35" y="267.21" width="334.87" height="123.52"/><rect class="cls-7" x="1442.31" y="267.21" width="334.87" height="123.52"/><path class="cls-24" d="M1516.25,306h-19.46V292.25h55.69V306H1532.7V364.7h-16.45Z"/><path class="cls-24" d="M1570.32,346.11l-5.16,18.59h-17l22.14-72.45h21.5l22.47,72.45h-17.63l-5.59-18.59Zm18.39-12.26-4.52-15.37c-1.29-4.3-2.58-9.68-3.65-14h-.22c-1.07,4.3-2.15,9.79-3.33,14l-4.3,15.37Z"/><path class="cls-24" d="M1659.55,364.7,1653,351.59c-2.69-5-4.41-8.82-6.45-13h-.21c-1.51,4.19-3.34,8-5.59,13l-6,13.11H1616l21-36.65-20.2-35.8h18.81l6.34,13.22c2.15,4.41,3.76,8,5.48,12h.22c1.72-4.62,3.11-7.85,4.94-12l6.13-13.22h18.7L1657,327.62l21.5,37.08Z"/><path class="cls-24" d="M1703.73,292.25V364.7h-16.45V292.25Z"/><rect class="cls-25" x="637.04" y="1004.07" width="41.52" height="41.53"/><rect class="cls-25" x="678.57" y="1045.6" width="41.53" height="41.52"/><rect class="cls-25" x="720.1" y="1004.07" width="41.52" height="41.53"/><rect class="cls-25" x="761.62" y="1045.6" width="41.53" height="41.52"/><rect class="cls-25" x="803.15" y="1004.07" width="41.53" height="41.53"/><rect class="cls-25" x="844.67" y="1045.6" width="41.52" height="41.52"/><rect class="cls-25" x="886.2" y="1004.07" width="41.52" height="41.53"/><rect class="cls-25" x="927.72" y="1045.6" width="41.52" height="41.52"/><rect class="cls-25" x="969.25" y="1004.07" width="41.52" height="41.53"/><rect class="cls-25" x="1010.78" y="1045.6" width="41.52" height="41.52"/><rect class="cls-25" x="1052.3" y="1004.07" width="41.52" height="41.53"/><rect class="cls-25" x="1093.83" y="1045.6" width="41.52" height="41.52"/><rect class="cls-25" x="1135.35" y="1004.07" width="41.52" height="41.53"/><rect class="cls-25" x="1176.88" y="1045.6" width="41.52" height="41.52"/><rect class="cls-25" x="1218.4" y="1004.07" width="41.52" height="41.53"/><rect class="cls-25" x="1259.93" y="1045.6" width="41.52" height="41.52"/><rect class="cls-25" x="1301.45" y="1004.07" width="41.52" height="41.53"/><rect class="cls-25" x="1342.98" y="1045.6" width="41.52" height="41.52"/><rect class="cls-25" x="1384.5" y="1004.07" width="41.53" height="41.53"/><rect class="cls-25" x="1426.03" y="1045.6" width="41.52" height="41.52"/><rect class="cls-25" x="1467.56" y="1004.07" width="41.52" height="41.53"/><rect class="cls-25" x="1509.08" y="1045.6" width="41.52" height="41.52"/><rect class="cls-25" x="1550.61" y="1004.07" width="41.52" height="41.53"/><rect class="cls-25" x="1592.13" y="1045.6" width="41.53" height="41.52"/><rect class="cls-25" x="1633.66" y="1004.07" width="41.52" height="41.53"/><rect class="cls-25" x="1675.19" y="1045.6" width="41.52" height="41.52"/><rect class="cls-25" x="1716.71" y="1004.07" width="41.53" height="41.53"/><rect class="cls-25" x="1758.24" y="1045.6" width="41.52" height="41.52"/><path class="cls-26" d="M1341.88,811.2c4.42,4.41,21.1,42.46,21.32,66.9,6.27,3,6.9,5.74,8.33,11.63,2.21,7.49,1.7,13-1.35,13.22s-4.93-8.26-5.69-10.29c0,.34,1,11,1.08,13.37.13,5.5-5.07,6.31-6,1.62-.84-3.93-2.1-13.09-2.18-13.57-.1.46-.61,11.61-.67,13.67-.19,6.06-7,6.71-6.88-.24,0-4.73.43-13,.27-13.75-.26.26-2,6.31-3.36,9.81-2.16,5.77-7.4,4.71-6.06-2.2,1-5.46,2.92-15,2.92-15,.76-.49-9.22,1.69-10.76-1.34-3.18-6.24,13.32-6.26,12.45-6,0,0-2.2-38.18-19.33-58.53Z"/><path class="cls-26" d="M1191.52,811.2c-4.42,4.41-21.11,42.46-21.32,66.9-6.27,3-6.9,5.74-8.33,11.63-2.22,7.49-1.71,13,1.35,13.22s4.93-8.26,5.68-10.29c0,.34-1,11-1.07,13.37-.13,5.5,5.07,6.31,6.05,1.62.84-3.93,2.09-13.09,2.18-13.57.09.46.6,11.61.67,13.67.19,6.06,7,6.71,6.87-.24,0-4.73-.43-13-.26-13.75.25.26,2,6.31,3.36,9.81,2.16,5.77,7.39,4.71,6.06-2.2-1-5.46-2.92-15-2.92-15-.76-.49,9.22,1.69,10.76-1.34,3.18-6.24-13.33-6.26-12.45-6,0,0,2.2-38.18,19.32-58.53Z"/><path class="cls-26" d="M1229.34,781.31a104.5,104.5,0,0,0,18.92-5.1c-.09-8.73-2.62-19.78-2.62-19.78l19.49-3.78s2.54,15,2.9,20.65c11.83,1.81,26,2.65,26,2.65s11.56,35.33-28.87,37.8C1254.54,814.41,1229.16,798,1229.34,781.31Z"/><path class="cls-27" d="M1265.54,759.53l-17,2.43a106.46,106.46,0,0,0,2.62,13.09c2.9-6.4,13.11-6.09,15.41-1.46A132.46,132.46,0,0,0,1265.54,759.53Z"/><path class="cls-5" d="M1289.42,775.36c6.88,34.28-50.79,48.18-55.48,4.14-7,1.42-34.38,14.4-50.53,37.26,4.82,5.26,14.93,11.85,23.61,22.21,2.24-1.59,3.46-3.83,6-7.35-.31,18.71-1.67,31.37-6.33,52h122c-3.36-22.55-9.81-60.87-9.91-63.36,1.82,1.76,2.94,6.62,6.87,10.8,6.87-3.93,24.64-14.93,23.56-16.94C1335,787.64,1298.93,775.86,1289.42,775.36Z"/><path class="cls-28" d="M1285.89,774.44c.69,19-6.23,29.39-22.11,30.79s-26.58-13.45-28.25-25.92c-1.13,0-5.45,1.51-5.45,1.51s.53,32.19,34.31,30.76S1292,775.64,1292,775.64Z"/><path class="cls-5" d="M1381.84,567.3c21.56.68,57.05,9.49,56.63,24.12S1353.21,624,1353.21,624Z"/><path class="cls-26" d="M1133.82,679.17c9.66,66.7,68.14,103.57,132.37,94.26S1376,712.19,1366.38,645.48C1351,539.34,1297.18,534.65,1233,544S1117.83,568.69,1133.82,679.17Z"/><path class="cls-29" d="M1306.18,607.68c-12.86-3.29-15.17,10.81-6.7,10.63,9.08-.21,16.76,2.92,17.87,2C1319.81,618.33,1313.41,609.52,1306.18,607.68Z"/><path class="cls-29" d="M1178,626.62c11.22-7.09,17.76,5.61,9.65,8-8.71,2.6-15.05,7.94-16.39,7.43C1168.3,641,1171.68,630.61,1178,626.62Z"/><path class="cls-30" d="M1239.63,683.84a1.19,1.19,0,0,1-.46,0,1.13,1.13,0,0,1-.77-1.39c1.62-5.73,5.67-9.7,10.56-10.35s9.83,2.12,12.9,7.24a1.11,1.11,0,0,1-.38,1.53,1.13,1.13,0,0,1-1.55-.38c-2.59-4.33-6.68-6.69-10.67-6.16s-7.33,3.88-8.7,8.74A1.11,1.11,0,0,1,1239.63,683.84Z"/><path class="cls-5" d="M1288.94,700.49s-27.28,11.1-67,11c-.31,3.77,6.23,42.12,40.59,36.7C1297.08,742.75,1288.94,700.49,1288.94,700.49Z"/><path class="cls-14" d="M1280.51,703.16a219,219,0,0,1-26.31,5.67h-.08a233.94,233.94,0,0,1-24.41,2.45c.52,4,2.55,12.58,27.32,8.51C1281.57,715.75,1280.84,706.64,1280.51,703.16Z"/><path class="cls-31" d="M1259.55,735.15c10.65-6.61,20.08-3.31,22.82,1.87-4.13,5.42-10.38,9.71-19.89,11.21-10.7,1.68-18.69-.87-24.62-5.29C1238.3,738.65,1249.79,732.31,1259.55,735.15Z"/><path class="cls-32" d="M1259.63,736.07c7.19-4.46,13.57-2.24,15.42,1.27-2.79,3.66-7,6.56-13.44,7.58-7.23,1.13-12.64-.59-16.65-3.58C1245.26,738.44,1253,734.15,1259.63,736.07Z"/><path class="cls-33" d="M1154.19,710.35c2.87,11.07,15.2,16.58,29.92,14.23,14.21-2.27,26.23-15.86,21.51-25.73-4.48-9.38-11.42-4.29-28.93-6.8C1159.76,689.63,1151.32,699.28,1154.19,710.35Z"/><path class="cls-34" d="M1162.89,702.49a2.53,2.53,0,1,0,1.9-2.44A2.23,2.23,0,0,0,1162.89,702.49Z"/><path class="cls-33" d="M1354.72,680.52c.39,11.44-9.87,20.22-24.65,22.14-14.26,1.84-29.65-7.76-27.93-18.56,1.63-10.28,9.74-7.37,25.81-14.74C1343.5,662.24,1354.34,669.1,1354.72,680.52Z"/><path class="cls-34" d="M1344.15,675.46a2.53,2.53,0,1,1-2.51-1.8A2.23,2.23,0,0,1,1344.15,675.46Z"/><path class="cls-27" d="M1211.9,653.16c6.06,10.92,2.62,24.43-7.69,30.17s-23.61,1.53-29.68-9.39-2.64-24.44,7.66-30.19S1205.81,642.23,1211.9,653.16Z"/><path class="cls-27" d="M1208.33,675.68c7.05-.36,9.12,2.56,4.66,6.51s-13.84,7.43-20.87,7.78-9.13-2.56-4.66-6.51S1201.28,676,1208.33,675.68Z"/><path class="cls-14" d="M1209.69,654c6,10.8,2.61,24.16-7.58,29.83s-23.34,1.52-29.34-9.29-2.61-24.16,7.57-29.83S1203.69,643.18,1209.69,654Z"/><path class="cls-35" d="M1207.74,656.52a19.93,19.93,0,0,0-4.48-5.45,21.23,21.23,0,0,1,2.22,3.21c5.27,9.5,2.28,21.24-6.68,26.24a18.24,18.24,0,0,1-16.86.25,18.08,18.08,0,0,0,19.28,1.42C1210,677.3,1212.91,665.81,1207.74,656.52Z"/><path class="cls-36" d="M1204.42,663.46c.82,6.64-3.6,12.66-9.87,13.44s-12-4-12.85-10.61,3.58-12.67,9.85-13.45S1203.58,656.81,1204.42,663.46Z"/><path class="cls-37" d="M1199.84,664.52a6.86,6.86,0,1,1-7.7-6.36A7.09,7.09,0,0,1,1199.84,664.52Z"/><path class="cls-14" d="M1191.58,661.24a2.9,2.9,0,1,1-3.26-2.69A3,3,0,0,1,1191.58,661.24Z"/><path class="cls-14" d="M1200.34,669a1.76,1.76,0,1,1-2-1.63A1.82,1.82,0,0,1,1200.34,669Z"/><path class="cls-27" d="M1281.9,643c-2.72,12.19,4.4,24.18,15.91,26.76s23.08-5.23,25.81-17.42-4.39-24.19-15.9-26.78S1284.64,630.82,1281.9,643Z"/><path class="cls-27" d="M1291.7,663.62c-6.86,1.66-8,5-2.62,7.57s15.37,3.2,22.21,1.54,8-5,2.63-7.57S1298.57,662,1291.7,663.62Z"/><path class="cls-14" d="M1284.24,643.2c-2.69,12.06,4.35,23.9,15.73,26.45s22.81-5.16,25.51-17.22-4.35-23.9-15.73-26.46S1286.94,631.14,1284.24,643.2Z"/><path class="cls-35" d="M1286.83,645.08a20.4,20.4,0,0,1,2.75-6.5,21.65,21.65,0,0,0-1.21,3.7c-2.37,10.61,3.83,21,13.84,23.28a18.25,18.25,0,0,0,16.24-4.54,18.1,18.1,0,0,1-18.09,6.83C1290.57,665.64,1284.51,655.45,1286.83,645.08Z"/><path class="cls-36" d="M1292,650.79c1.09,6.6,7,11.13,13.27,10.09s10.41-7.22,9.32-13.82-7-11.13-13.26-10.1S1290.9,644.18,1292,650.79Z"/><path class="cls-37" d="M1296.68,650.51a6.86,6.86,0,1,0,5.57-8.28A7.07,7.07,0,0,0,1296.68,650.51Z"/><path class="cls-14" d="M1303.67,645a2.9,2.9,0,1,0,5.71-.94,2.9,2.9,0,1,0-5.71.94Z"/><path class="cls-14" d="M1297.48,655a1.76,1.76,0,1,0,1.43-2.12A1.82,1.82,0,0,0,1297.48,655Z"/><path class="cls-38" d="M1343.51,498.2c-26.8-18.11-69.62-23.86-109.61-12.08,10-11,18.48-26,6.52-28.59-13.08-2.85-13.76,23.06-13.76,23.06s-21.55-24.87-31.21-16.55c-6.23,5.36,2,19.92,15.7,25.17-46.05-.12-78.33,15.32-98.38,39.2-49.75,59.23.27,155.12,20.94,154.35,4.73-12,13.88-41,7.74-69.87,13.58,2,33.06,2.31,54.63,1.2,1.41-4.32,11.85-31.51,15.6-44.63,1.39,9.56-1.3,35.36-2.38,43.78,6.09-.46,12.28-1,18.48-1.72,2.29-13,3.47-34.57,3.57-53.54,4.52,10.33,14.35,40.21,20.36,50.34,5.36-.88,13.93-2.3,19.19-3.33-7.87-17.8-12.27-30.51-14.54-40.84,6.94,10.68,24.31,38.8,26.07,38.41,20.58-4.64,39.53-10.59,54.18-17.82,0,0,10.15,60.38,40.91,65C1383.21,641.28,1397.75,534.84,1343.51,498.2Z"/><path class="cls-29" d="M1377.92,575.6s2.35,40.33-1,53.43a34.51,34.51,0,0,1-16.47,7.89s-16.11-27.76-19.42-51.42C1357.42,615.2,1371.34,610.46,1377.92,575.6Z"/><path class="cls-29" d="M1097.85,615.47s12.93,41.47,25,52c9.34,3.58,12.64,1.56,12.64,1.56s5.24-31.67,0-55C1130.6,647.65,1112.53,645.8,1097.85,615.47Z"/><path class="cls-39" d="M1373.48,538.65c-6.16-16.28-15.67-30.79-30-40.45a103.57,103.57,0,0,0-32.19-14c-44.46,26.69-135.89,30.72-175.81,24.32a99.43,99.43,0,0,0-22.74,19.89c-14.21,16.92-20.27,36.82-21.21,56.61C1208.81,519.71,1320.41,528.19,1373.48,538.65Z"/><path class="cls-26" d="M1142,673.59s-3.86-15.64-20.61-16c-17.66-.4-21.69,24.59-10.44,39.45s31,15.36,35.49,2.23Z"/><path class="cls-40" d="M1118.85,664.89c11.05-3.49,22.82,18.84,8.85,32.49,4.63-17.1-1.93-22.13-9.17-13.46-.51-5.37,1.92-9,8.81-9.14C1126,667.74,1118.85,664.89,1118.85,664.89Z"/><path class="cls-26" d="M1360.49,641.94s-.73-16.09,15.22-21.22c16.82-5.39,27.78,17.43,21.21,34.86s-25.35,23.52-33.39,12.21Z"/><path class="cls-40" d="M1380.24,627c-11.59-.21-16.54,24.55.73,33.67-9.29-15.08-4.42-21.77,5-15.5-1-5.3-4.41-8.13-11-6.28C1374.19,631.79,1380.24,627,1380.24,627Z"/><path class="cls-5" d="M1198.88,463.87c5.56-14.11,23.82-23.72,33.87-6.8A342,342,0,0,1,1198.88,463.87Z"/><path class="cls-5" d="M1323.43,466.36c-24.62-10.71-68.89-13.15-110.47-7.13-41,5.93-80.84,24.16-99.58,44.31-29.27,31.47-23.38,83-20.9,105.62,74.71-15.75,212.2-43.23,290.6-42C1374,531.67,1362.82,483.5,1323.43,466.36Zm-55.91,96.56c-13.33,6.46-39.11,12.84-71.46,12.38-21.85-.31-15.5-25.91-3.75-26.5,33.87-1.73,52.79-7.53,67.57-11C1271.38,535,1280.87,556.47,1267.52,562.92Z"/><path class="cls-5" d="M1172.61,476.82c-20.24,5.44-60.38,23.43-65.59,56.91,11.29-14.24,50.74-29.93,77.27-38.09S1221.9,463.57,1172.61,476.82Z"/><path class="cls-41" d="M1296.72,589.75a52,52,0,0,0-44,58.82c.19,1.3.44,2.57.72,3.83l-15.54,2.25c-.09-1.29-.21-2.58-.4-3.87a52,52,0,1,0,.32,12.07l18-2.61a51.92,51.92,0,1,0,40.84-70.49Zm13.71,94.76a43.82,43.82,0,1,1,37.1-49.65A43.87,43.87,0,0,1,1310.43,684.51Zm-118,17.08a43.83,43.83,0,1,1,37.1-49.65A43.88,43.88,0,0,1,1192.42,701.59Z"/><path class="cls-6" d="M1530.33,763.24a24,24,0,0,1-24,24h-54.87a24,24,0,0,1-24-24h0a24,24,0,0,1,24-24h54.87a24,24,0,0,1,24,24Z"/><path class="cls-7" d="M1492.06,814.08a51,51,0,0,1-51,51h-21.19a51,51,0,0,1-51-51V729a51,51,0,0,1,51-51h21.19a51,51,0,0,1,51,51Z"/><path class="cls-42" d="M736.68,693.62s-37,33-18.87,66.19S714.53,820,714.53,820s55.81-34.12,36-72.63S736.68,693.62,736.68,693.62Z"/><path class="cls-42" d="M781.41,851.78S751,818.63,760.23,786.39,751,727.22,751,727.22s44.13,34.56,34.24,72S781.41,851.78,781.41,851.78Z"/><path class="cls-5" d="M803.61,516.84c-12.7-9.64-64.65-2.28-76.66,20-11.86,22.06-6.19,9.09-22.72,32.5C688.5,591.64,710.09,646,733.9,670.92c14.69,15.35,9.47,52.88-.54,71.75s14.27,27.49,34.36,32.26,31.44,14.19,26.37,46.24c-3.24,20.46,7.42,20.13,23.66,11.83s19.58,17.24,29.4,16.13c19-2.15,19.3-29.47,27.6-49.11,10.76-25.46,20.12-17.3,33.21-13.83s.93-23.54,15.4-40.37c30.35-35.28-3.64-69,14.22-82.45,21.83-16.39,28.22-52.68,27.67-74.58-1.19-47.94-60.64-100-119.45-94.78C822.69,496.08,811.3,504.91,803.61,516.84Z"/><path class="cls-5" d="M905.59,732.26s-2,21.76-5,47c-37.29-24.38-32.27,64.18-54.49,64.54-5.74-53.92-63.38-90.44-88.75-117.61-21.77-23.3-11.47-38.16-1.08-45.61S905.59,732.26,905.59,732.26Z"/><path class="cls-26" d="M910.38,798.77s46.16,19.15,122.61-40.43c5.86,3.69,13.14.78,21.93-5,7.53-2.15,12.25-4.9,10.83-7.62s-9.61.27-11.73.73c.27-.23,9.83-5.05,11.85-6.29,4.71-2.81,2.61-7.67-1.88-6-3.77,1.41-12.18,5.27-12.63,5.44.34-.31,9.46-6.74,11.17-7.91,5-3.42,1.92-9.46-3.89-5.66-4,2.59-10.76,7.37-11.46,7.61.1-.34,4.22-5.1,6.48-8.11,3.69-4.93,0-8.76-5.13-3.91-4,3.79-14.15,12.48-14.15,12.48s-.74-9.11-5.77-8.63-3.25,16.37-3.25,16.37-44.85,49.62-112.79,36.79C897,784,910.38,798.77,910.38,798.77Z"/><path class="cls-30" d="M1036.35,745.88a.13.13,0,0,1-.09-.06.57.57,0,0,1,0-.82c3.63-3.86,1-8.49-1.21-10.63a.56.56,0,0,1,0-.82.61.61,0,0,1,.82,0c2.45,2.43,5.48,7.74,1.24,12.25A.53.53,0,0,1,1036.35,745.88Z"/><path class="cls-26" d="M839.57,809.33S776.42,822,712,789.5c-5.21,4.59-12.85,2.93-22.48-1.34-7.76-.91-12.88-2.85-11.91-5.76s9.52-1.29,11.69-1.19c-.3-.17-10.51-3.39-12.72-4.26-5.11-2-3.82-7.14.88-6.2,3.95.78,12.87,3.22,13.34,3.32-.39-.26-10.44-5.11-12.31-6-5.5-2.55-3.44-9,2.92-6.23,4.34,1.9,11.82,5.52,12.54,5.64-.14-.33-5-4.35-7.7-6.93-4.46-4.26-1.43-8.66,4.4-4.72,4.61,3.09,16,10,16,10s-.74-9.11,4.3-9.46S716.83,772,716.83,772s49.21,28.12,117.3,17.83C850.31,792.6,839.57,809.33,839.57,809.33Z"/><path class="cls-30" d="M706.24,777.92a.43.43,0,0,1-.32-.12c-4.9-3.75-2.8-9.5-.77-12.29a.55.55,0,0,1,.79-.13.57.57,0,0,1,.14.8c-1.79,2.46-3.67,7.48.53,10.7a.58.58,0,0,1,.11.81A.65.65,0,0,1,706.24,777.92Z"/><path class="cls-26" d="M845.42,781.31a104.5,104.5,0,0,0,18.92-5.1c-.09-8.73-2.62-19.78-2.62-19.78l19.49-3.78s2.53,15,2.91,20.65c11.82,1.81,26,2.65,26,2.65s11.56,35.33-28.87,37.8C870.62,814.41,845.24,798,845.42,781.31Z"/><path class="cls-27" d="M881.62,759.53l-17,2.43a106.46,106.46,0,0,0,2.62,13.09c2.91-6.4,13.12-6.09,15.41-1.46A132.46,132.46,0,0,0,881.62,759.53Z"/><path class="cls-5" d="M905.5,775.36c6.88,34.28-50.79,48.18-55.48,4.14-6.11,2.92-32,7.57-46.58,11.47-2.8,6.78-6.11,17.61-.84,32.62,2.25,2.3,15.4,1.54,27.22-1.94-.32,18.71-2.38,41.34-7,62h122c-3.36-22.55-6.84-47.84-9.77-67.58-.16-1.06,14,1.08,23.63-6.06.69-20.84-7.25-28.71-7.79-30.92C937.72,778.93,911.69,776.14,905.5,775.36Z"/><path class="cls-14" d="M946.78,779c3.13,4.13,5.7,17.07,5.28,34.29A33.9,33.9,0,0,0,963,810.05s-.21-21.53-10.29-31.4A35.3,35.3,0,0,1,946.78,779Z"/><path class="cls-14" d="M807.29,790.11c-1.6,1.57-4.34,23.06.74,34.68-4.54.86-10-.79-10-.79s0-23.35,5.37-33A15.69,15.69,0,0,1,807.29,790.11Z"/><path class="cls-14" d="M902,774.44c.69,19-6.22,29.39-22.11,30.79s-26.58-13.45-28.25-25.92c-1.13,0-5.45,1.51-5.45,1.51s.53,32.19,34.31,30.76,27.61-35.94,27.61-35.94Z"/><path class="cls-26" d="M973.27,596.92c14.78,32.67,30,141.19-64,167.87-87.33,24.78-149.43-26.35-170.4-90-25.3-76.87,31.34-132.22,85.67-145.68C909.35,508.05,953.51,553.15,973.27,596.92Z"/><path class="cls-5" d="M939.23,595.21c-13.62-3.62-16.21,11.32-7.23,11.22,9.63-.13,17.75,3.27,19,2.31C953.58,606.67,946.86,597.25,939.23,595.21Z"/><path class="cls-5" d="M814.76,625.21c11.26-8.43,19.26,4.43,10.88,7.7-9,3.5-15.23,9.67-16.71,9.23C805.71,641.19,808.42,630,814.76,625.21Z"/><path class="cls-43" d="M895,657.12c.19,1.12,1.69,1.78,3.37,1.49s2.91-1.4,2.73-2.5-1.71-1.76-3.39-1.47S894.82,656.05,895,657.12Z"/><path class="cls-30" d="M899.27,670.29a.6.6,0,0,0,.48,0c4.45-2.38,6.59-6.44,5.69-10.91-.83-4.13-4.12-7.48-7.63-7.82-2.2-.19-6.34.6-9.34,8.08a.63.63,0,0,0,.38.84.6.6,0,0,0,.85-.35c2-5,4.81-7.55,8-7.26s5.77,3.2,6.49,6.76c.37,1.87.63,6.51-5,9.49a.67.67,0,0,0-.26.89A.64.64,0,0,0,899.27,670.29Z"/><path class="cls-33" d="M804.81,707.84c2.3,10.6,13.73,16.32,27.75,14.63,13.48-1.66,25.37-14.1,21.27-23.65-3.88-9.07-10.63-4.52-27.11-7.54C810.82,688.36,802.48,697.19,804.81,707.84Z"/><path class="cls-43" d="M813.33,700.7a2.07,2.07,0,0,0,2.63,1.24,2.12,2.12,0,0,0,1.88-2.24,2.16,2.16,0,0,0-2.65-1.28A2.12,2.12,0,0,0,813.33,700.7Z"/><path class="cls-44" d="M833.92,707.84c.21,1,1.35,1.51,2.64,1.25a2.13,2.13,0,0,0,1.87-2.24,2.16,2.16,0,0,0-2.64-1.28A2.12,2.12,0,0,0,833.92,707.84Z"/><path class="cls-44" d="M837.56,699.14c.21,1,1.36,1.5,2.64,1.25s2.08-1.27,1.87-2.24a2.37,2.37,0,0,0-4.51,1Z"/><path class="cls-44" d="M845.16,705.62a2.1,2.1,0,0,0,2.64,1.24,2.12,2.12,0,0,0,1.88-2.24,2.17,2.17,0,0,0-2.65-1.29A2.14,2.14,0,0,0,845.16,705.62Z"/><path class="cls-33" d="M936.29,680.9c-.64,7.92,10.21,15.12,22.37,13.38s19.43-10.66,19.65-20.15c.22-8.68-9.84-16.77-22.44-9.19C944.09,672,937,672.66,936.29,680.9Z"/><path class="cls-43" d="M968.74,671.29c-.08,1.05,1,2,2.33,2s2.47-.7,2.48-1.75-.93-1.94-2.33-2A2.11,2.11,0,0,0,968.74,671.29Z"/><path class="cls-44" d="M946.43,682.41c0,1,1,1.77,2.29,1.81a2.13,2.13,0,0,0,2.33-1.76,2.18,2.18,0,0,0-2.29-1.85A2.13,2.13,0,0,0,946.43,682.41Z"/><path class="cls-44" d="M952,674.75c0,1,1,1.78,2.28,1.82a2.14,2.14,0,0,0,2.34-1.76,2.17,2.17,0,0,0-2.29-1.85A2.13,2.13,0,0,0,952,674.75Z"/><path class="cls-44" d="M957.89,682.78c0,1,1,1.77,2.29,1.82a2.14,2.14,0,0,0,2.33-1.77,2.18,2.18,0,0,0-2.29-1.85A2.14,2.14,0,0,0,957.89,682.78Z"/><path class="cls-5" d="M929,681.54s9.65,54.29-28.45,62.26-37.07-46.5-37.07-46.5S892.78,702.34,929,681.54Z"/><path class="cls-5" d="M893.93,695.23c0,13.57-2.87,33-17.54,42.65-13.42-13-12.92-40.58-12.92-40.58S876.75,699.48,893.93,695.23Z"/><path class="cls-31" d="M922.11,729.12c-3.77,7.55-12,13-22.32,15.14-18.83,3.9-28.16-8-31.91-20.36,1.24-2.55,7.21-5.63,13.5-3C887.34,710,911.78,716.72,922.11,729.12Z"/><path class="cls-32" d="M874.42,722.42a10.25,10.25,0,0,1,8.23.1c1.13-2.27,3.1-4.88,8.8-5.32,14.25-1.19,32.34,13,14.42,20.82C887.79,746,863.82,727.38,874.42,722.42Z"/><path class="cls-5" d="M903.83,722.25c-3.13-3-10.72-4.6-12.72-2.55-2.4,2.46,4.22,5.92,8.54,6.31S905.85,724.1,903.83,722.25Z"/><path class="cls-14" d="M917.93,687.1c1.78,5.64,1.12,10.11-6.31,13.51a76.2,76.2,0,0,1-24.35,6.16c-8.67.5-13.07-3-13-9C888.93,696.77,900.6,694.64,917.93,687.1Z"/><path class="cls-45" d="M918.63,632.3c-2.16,11.43,4.83,22.35,15.56,24.4s21.21-5.58,23.34-17.06-4.84-22.33-15.55-24.41S920.74,620.84,918.63,632.3Z"/><path class="cls-45" d="M928.33,651.13c-6.3,1.77-7.26,5-2.18,7.16s14.34,2.47,20.61.72,7.29-5,2.18-7.14S934.66,649.38,928.33,651.13Z"/><path class="cls-14" d="M920.78,632.39c-2.11,11.29,4.78,22.07,15.41,24.12s20.93-5.51,23-16.84-4.78-22.13-15.41-24.15S922.87,621.07,920.78,632.39Z"/><path class="cls-35" d="M923.23,634a18.43,18.43,0,0,1,2.36-6.11,18.65,18.65,0,0,0-1,3.49c-1.87,9.89,4.21,19.4,13.57,21.19A16.88,16.88,0,0,0,953,647.9a16.7,16.7,0,0,1-16.54,6.88C927.35,653.05,921.43,643.78,923.23,634Z"/><path class="cls-46" d="M926.43,640.48c1.24,6.11,6.88,10.15,12.6,8.95s9.44-7,8.23-13.13-6.89-10.13-12.66-9S925.19,634.37,926.43,640.48Z"/><path class="cls-37" d="M930.77,640.08a6.37,6.37,0,1,0,4.92-7.87A6.59,6.59,0,0,0,930.77,640.08Z"/><path class="cls-14" d="M937.09,634.74a2.7,2.7,0,0,0,3.16,2.27,2.77,2.77,0,0,0,2.1-3.3,2.86,2.86,0,0,0-3.2-2.34A2.82,2.82,0,0,0,937.09,634.74Z"/><path class="cls-14" d="M931.64,644.21a1.69,1.69,0,0,0,1.94,1.38,1.67,1.67,0,0,0,1.27-2,1.65,1.65,0,0,0-2-1.38A1.72,1.72,0,0,0,931.64,644.21Z"/><path class="cls-45" d="M818.78,653.69c-2.15,11.45,4.86,22.36,15.59,24.41s21.2-5.59,23.34-17-4.86-22.37-15.58-24.41S820.9,642.24,818.78,653.69Z"/><path class="cls-45" d="M828.47,672.55c-6.28,1.77-7.24,5-2.18,7.14s14.36,2.49,20.64.73,7.31-5,2.19-7.13S834.81,670.8,828.47,672.55Z"/><path class="cls-14" d="M820.93,653.8c-2.09,11.3,4.79,22.07,15.41,24.09s21-5.5,23.07-16.81S854.62,639,844,636.94,823.07,642.46,820.93,653.8Z"/><path class="cls-35" d="M823.39,655.41a18.56,18.56,0,0,1,2.37-6.06,17.44,17.44,0,0,0-1,3.49c-1.9,9.91,4.19,19.4,13.54,21.21a17,17,0,0,0,14.92-4.75,16.79,16.79,0,0,1-16.55,6.9C827.52,674.46,821.61,665.18,823.39,655.41Z"/><path class="cls-46" d="M826.59,661.91c1.24,6.08,6.87,10.13,12.61,9s9.43-7,8.2-13.17-6.86-10.12-12.62-9S825.37,655.79,826.59,661.91Z"/><path class="cls-37" d="M830.94,661.48A6.36,6.36,0,1,0,843.38,659a6.36,6.36,0,1,0-12.44,2.49Z"/><path class="cls-14" d="M837.26,656.18a2.69,2.69,0,0,0,3.15,2.24,2.78,2.78,0,0,0,2.1-3.29,2.69,2.69,0,1,0-5.25,1Z"/><path class="cls-14" d="M831.82,665.62a1.71,1.71,0,0,0,1.92,1.41,1.77,1.77,0,0,0,1.29-2,1.64,1.64,0,1,0-3.21.63Z"/><path class="cls-5" d="M865.05,527.23s13.75,31.52,15.77,62.17a85.09,85.09,0,0,1-19.73,5.67l-21.36-50.23s14,38.47,12.62,51.39c-16.41,7.62-66.39,14.26-84.45,17.26,3.86,21.32,2.78,51.78-4.94,86.15-6.82,2.74-25,7-25,7s-60.89-57.41-53-132.11c5.12-49,80.94-77.14,80.94-77.14l8.58-4.78,9.06-1.19s50.27-20,106.45-13.54c51,5.9,89.2,23.25,86.93,129.68-9.2-12.74-20.5-39.14-20.5-39.14s-33,11.75-56.37,16.07C888.18,547.19,865.05,527.23,865.05,527.23Z"/><path class="cls-5" d="M692,586.6c1.59,42.83,7.28,54.8,49.33,119.56,11.14,1.56,23.88-31.07,16.72-90.15C743.64,672.5,714.89,661.76,692,586.6Z"/><path class="cls-42" d="M769.27,593c-46.42,40.81-42.66,83.5-42,104.78-16.52-19.2-52-68.06-46-127.49,5.14-50.5,82.12-79.4,82.12-79.4l17.91-6.13s51-20.57,108.12-13.82c46.06,5.46,81.83,20.23,87.71,100.4C940.85,534.94,844.07,527.28,769.27,593Z"/><path class="cls-47" d="M876.63,485.82c0,2.57,3.31,4.65,7.4,4.66s7.41-2.07,7.41-4.64-3.32-4.65-7.41-4.66S876.63,483.25,876.63,485.82Z"/><path class="cls-47" d="M798.15,494.87c0,2.57,3.32,4.66,7.41,4.66s7.4-2.07,7.4-4.63-3.32-4.66-7.41-4.67S798.15,492.3,798.15,494.87Z"/><path class="cls-47" d="M848.08,515.65c.25,2.55,3.75,4.3,7.82,3.9s7.17-2.8,6.91-5.35-3.75-4.31-7.82-3.91S847.83,513.09,848.08,515.65Z"/><path class="cls-47" d="M832.69,477.49c.25,2.56,3.76,4.31,7.82,3.9s7.17-2.79,6.92-5.35-3.76-4.31-7.82-3.9S832.44,474.93,832.69,477.49Z"/><path class="cls-47" d="M931.56,506.85c0,2.57,3.32,4.66,7.41,4.66s7.4-2.07,7.4-4.64-3.32-4.65-7.41-4.66S931.56,504.28,931.56,506.85Z"/><path class="cls-47" d="M951.73,543.15c0,2.57,3.33,4.65,7.41,4.66s7.41-2.07,7.4-4.64-3.31-4.65-7.4-4.66S951.73,540.58,951.73,543.15Z"/><path class="cls-47" d="M899.54,529.06c0,2.57,3.31,4.66,7.41,4.66s7.4-2.07,7.4-4.64-3.32-4.65-7.41-4.66S899.54,526.49,899.54,529.06Z"/><path class="cls-47" d="M802.54,544.77c0,2.57,3.32,4.65,7.41,4.66s7.4-2.07,7.4-4.63-3.32-4.66-7.41-4.67S802.54,542.2,802.54,544.77Z"/><path class="cls-47" d="M760.46,536.57c1,2.33,4.92,2.83,8.64,1.12s5.87-5,4.82-7.35-4.93-2.84-8.64-1.12S759.4,534.23,760.46,536.57Z"/><path class="cls-47" d="M710.83,531.7c1.32,2.19,5.22,2.22,8.71.07s5.24-5.69,3.92-7.88-5.22-2.23-8.7-.07S709.51,529.51,710.83,531.7Z"/><path class="cls-47" d="M719.59,574.51c1.73,1.87,5.55,1.08,8.52-1.76s4-6.66,2.24-8.53-5.56-1.09-8.53,1.75S717.85,572.63,719.59,574.51Z"/><path class="cls-47" d="M687.68,573.18c2,1.61,5.65.3,8.21-2.93s3-7.16,1.05-8.77-5.65-.3-8.21,2.93S685.71,571.57,687.68,573.18Z"/><path class="cls-47" d="M697.76,622.42c2.46.62,5.24-2.15,6.22-6.17s-.22-7.79-2.68-8.41-5.24,2.14-6.22,6.16S695.31,621.8,697.76,622.42Z"/><path class="cls-47" d="M717.9,675.41c2.51-.36,4.06-4,3.47-8.1s-3.11-7.14-5.61-6.77-4,4-3.46,8.1S715.4,675.78,717.9,675.41Z"/><path class="cls-47" d="M729.46,629.68c2.24,1.21,5.6-.79,7.51-4.45s1.65-7.61-.59-8.82-5.6.79-7.51,4.45S727.22,628.48,729.46,629.68Z"/><path class="cls-47" d="M750,504.14c1.19,2.27,5.08,2.54,8.69.6s5.57-5.35,4.38-7.62-5.08-2.54-8.68-.6S748.79,501.87,750,504.14Z"/><path class="cls-47" d="M759.2,581.53c1.39,2.15,5.29,2.06,8.7-.21s5.07-5.84,3.68-8-5.28-2.05-8.7.21S757.81,579.38,759.2,581.53Z"/><path class="cls-26" d="M761.16,688.85s-9.56-13.38-25.6-7.42c-16.86,6.26-11.29,31.47,5,41.32s35.16,2.9,34.49-11.25Z"/><path class="cls-40" d="M735.93,689.33c9.15-7.49,28.71,9.26,20.62,27.48-2-18-10.17-20.26-13.75-9.32-2.52-4.9-1.57-9.29,4.89-12C743.76,689.34,735.93,689.33,735.93,689.33Z"/><path class="cls-14" d="M753.82,655.06c4.34-20.93,29.58-6.65,18.27,8.34,24.22-4.44,16.9,28.69-4,18.56,7.55,26.29-20.36,17.95-20.5,5.63-25.85,4-24.77-21.72-7.25-22.89C720.4,652.05,746.27,636.49,753.82,655.06Z"/><path class="cls-7" d="M766.59,676.47a12.06,12.06,0,1,1-3.33-16.72A12.05,12.05,0,0,1,766.59,676.47Z"/><path class="cls-26" d="M1851.13,757.07l24.77-2.7V731.14h32.76v23.28l23.71,2.65c2.25,42.43-37.89,44.65-40.55,44.75h-.13C1889,801.72,1848.89,799.5,1851.13,757.07Z"/><path class="cls-48" d="M1892.91,751.33c-5.91,0-11.06,2.42-14,6.06V740.63h27.92v16.76C1904,753.75,1898.82,751.33,1892.91,751.33Z"/><path class="cls-5" d="M1979.23,883.18a394.57,394.57,0,0,0-8.46-44.85c5,8.14,10.35,11.49,13.37,15.27,3.42-2.26,38.44-26.77,41.81-38-44.83-56.23-78-58.77-97.66-60.23,2.91,40.39-68.8,44.83-70.49,0-23.06,2.31-73.84,34.67-89.8,64.19,2.38,8,32.68,35.14,40,36.54,5.29-4.76,6.14-7.48,12.25-14.25-1.75,16.34-3.39,37.32-3.5,41.35Z"/><polygon class="cls-26" points="1809.61 848.87 1790.66 883.08 1764.2 883.08 1789.05 833.25 1809.61 848.87"/><polygon class="cls-26" points="1985.25 848.87 2001.65 883.34 2028.17 883.34 2002.45 838.83 1985.25 848.87"/><path class="cls-5" d="M1761.65,821.32s22.92,31.43,46.08,39.83a150,150,0,0,0,10-11.6s-27-18.5-44.59-41.07C1766.2,815.83,1761.65,821.32,1761.65,821.32Z"/><path class="cls-5" d="M2034.17,821s-22.92,31.43-46.08,39.83a150,150,0,0,1-10-11.6s27-18.49,44.59-41.07C2029.62,815.5,2034.17,821,2034.17,821Z"/><path class="cls-49" d="M2015.65,786.9a115.92,115.92,0,0,0-114.09,96.28h31.14a85.2,85.2,0,0,1,165.9,0h31.14A115.92,115.92,0,0,0,2015.65,786.9Z"/><path class="cls-26" d="M1955.42,850.64c.13-5.76-11.22-2.58-24.86-2.8,11.06-3,21.91-4.31,22.37-10,.28-3.44-7.79-4.45-16.33-2.18-13.77,3.66-17.58,6.69-17.58,6.69s5.92-10.27,1.57-11.31c-6.66-1.59-13.08,12.91-14.58,19.44a35.3,35.3,0,0,0-.74,4.49c-6.06,3.7-31.45,19.41-41.15,28.28h32l16.24-7.56a10.19,10.19,0,0,0,2.89,1.19c12,2.8,17.42,3,26.6,1.08,4.46-.9,6.25-4.38,5.44-5.59-2.49-3.76-5.62-2.63-13.54-4.61,8.22-.18,18.16.28,19-5,1-6.23-7.78-4.1-17.57-5.5C1945.83,856.14,1955.3,855.63,1955.42,850.64Z"/><path class="cls-26" d="M2155.91,883.26c-15.63-28.14-26.4-42.33-30.41-47.24-1.5-5.53-5.44-11.52-10.66-16s-20.78-11.45-25.89-6.9c-2.18,1.93,8.91,8,8.91,8s-2.92,1.08-16.17,6.32c-8.22,3.25-12.2,6.15-11.09,9.17,2,5.31,12.23,0,22.9-4.15-7.48,6-21.49,11-18,15.54,3.06,3.94,10.61.21,19.82-5.2-7,7-14,11.75-11.35,15.08,3.33,4.22,13.95-2.62,20.66-7.36-5.19,6.3-12.53,8.2-12.3,12.7.08,1.46,2.58,2.23,6.76.4,6.72-3,10.46-4.68,16.19-8.75l17,28.4Z"/><path class="cls-26" d="M1916.27,743.36c94-25.8,89.23-127.92,77.18-161.59a150.67,150.67,0,0,0-8.25-18.95H1763c-11.46,21.12-16,47.14-8.71,77.32C1770,705.11,1822.84,769,1916.27,743.36Z"/><path class="cls-50" d="M1745.13,650.73c14.22-3.5,23.75,14.52,23.75,14.52s17.95-1.15,26.55-1c-24.43-45.14-25.52-74.19-3.12-87.61,30.82.82,147.57-3.23,189.21-13.86H1722.93C1710.61,593.47,1748,619.09,1745.13,650.73Z"/><path class="cls-50" d="M2000.5,619.64c3.49-13.66-1.21-36.46-2.51-56.82h-20.9C1992.06,583,1997.21,604.14,2000.5,619.64Z"/><path class="cls-33" d="M1951.51,661.19c.43,8.51,13,14.59,25.73,11s19.13-14.1,18-24.18c-1-9.22-12.87-16.34-25.2-6.54C1958.53,650.63,1951.05,652.41,1951.51,661.19Z"/><path class="cls-34" d="M1984.64,646.42a2.37,2.37,0,0,0,2.77,1.77c1.45-.11,2.55-1.1,2.43-2.23s-1.32-1.89-2.77-1.77S1984.55,645.32,1984.64,646.42Z"/><path class="cls-43" d="M1909.84,644c.11,1.13,1.53,1.91,3.25,1.76s3-1.17,2.89-2.27-1.54-1.89-3.25-1.73S1909.74,642.91,1909.84,644Z"/><path class="cls-33" d="M1809,677.73c1.4,11.52,13,18.72,28.21,18.34,14.6-.38,28.55-12.42,25.12-23-3.24-10.06-10.92-5.86-28.21-10.75C1817.44,657.59,1807.65,666.19,1809,677.73Z"/><path class="cls-34" d="M1818.86,671a2.25,2.25,0,0,0,2.69,1.6,2,2,0,1,0-.44-3.82C1819.75,669,1818.76,669.92,1818.86,671Z"/><path class="cls-51" d="M1961,570.84c-13.23-4.7-17,9.94-8.07,10.57,9.58.65,17.36,4.68,18.63,3.84C1974.38,583.39,1968.46,573.5,1961,570.84Z"/><path class="cls-51" d="M1833.85,587.4c11.87-7.46,18.76,6,10.18,8.53-9.21,2.75-15.92,8.36-17.35,7.81C1823.56,602.52,1827.14,591.59,1833.85,587.4Z"/><path class="cls-30" d="M1913,657.43a.69.69,0,0,0,.45,0c4.63-2,7.07-5.88,6.53-10.38-.49-4.18-3.48-7.77-6.94-8.38-2.17-.36-6.35.06-9.93,7.27a.64.64,0,0,0,.3.88.62.62,0,0,0,.88-.29c2.38-4.79,5.39-7.12,8.5-6.57s5.47,3.63,5.91,7.23c.22,1.89.1,6.52-5.76,9a.68.68,0,0,0-.33.87A.61.61,0,0,0,1913,657.43Z"/><path class="cls-45" d="M1931.59,614.65c-2.68,11.25,3.78,22.46,14.41,25s21.45-4.56,24.12-15.82-3.75-22.48-14.38-25S1934.28,603.36,1931.59,614.65Z"/><path class="cls-45" d="M1940.41,633.85c-6.38,1.44-7.5,4.56-2.51,7s14.19,3.16,20.54,1.7,7.52-4.6,2.54-7S1946.79,632.4,1940.41,633.85Z"/><path class="cls-14" d="M1933.75,614.84c-2.63,11.13,3.71,22.2,14.24,24.71s21.2-4.5,23.86-15.64-3.73-22.22-14.23-24.73S1936.41,603.69,1933.75,614.84Z"/><path class="cls-35" d="M1936.14,616.61a18.65,18.65,0,0,1,2.63-6,21,21,0,0,0-1.19,3.42c-2.33,9.81,3.28,19.54,12.54,21.75a16.89,16.89,0,0,0,15.11-4,16.73,16.73,0,0,1-16.83,6.1C1939.33,635.72,1933.86,626.18,1936.14,616.61Z"/><path class="cls-52" d="M1938.41,621.23c.94,6.13,6.37,10.4,12.17,9.52s9.73-6.58,8.81-12.69-6.37-10.39-12.18-9.52S1937.47,615.11,1938.41,621.23Z"/><path class="cls-53" d="M1942.36,620.23a6.36,6.36,0,1,0,5.27-7.59A6.58,6.58,0,0,0,1942.36,620.23Z"/><path class="cls-14" d="M1948.91,615.26a2.69,2.69,0,1,0,5.31-.8,2.69,2.69,0,1,0-5.31.8Z"/><path class="cls-14" d="M1943,624.4a1.67,1.67,0,0,0,1.87,1.46,1.69,1.69,0,0,0,1.36-1.93,1.63,1.63,0,1,0-3.23.47Z"/><path class="cls-45" d="M1829.81,630c-2.89,12.08,4,24,15.42,26.77s22.91-4.89,25.79-16.93-4-24-15.4-26.76S1832.68,618,1829.81,630Z"/><path class="cls-45" d="M1839.23,650.57c-6.82,1.56-8,4.88-2.7,7.48s15.2,3.36,22,1.81,8-4.89,2.71-7.47S1846.06,649,1839.23,650.57Z"/><path class="cls-14" d="M1832.1,630.22c-2.82,11.92,4,23.76,15.24,26.44s22.71-4.79,25.51-16.73-4-23.75-15.22-26.44S1834.93,618.29,1832.1,630.22Z"/><path class="cls-35" d="M1834.63,632.13a20.94,20.94,0,0,1,2.85-6.42,21.89,21.89,0,0,0-1.27,3.65c-2.49,10.49,3.5,20.9,13.41,23.27a18.13,18.13,0,0,0,16.16-4.26,17.92,17.92,0,0,1-18,6.5C1838.08,652.58,1832.22,642.37,1834.63,632.13Z"/><path class="cls-52" d="M1837.11,637.2c1,6.57,6.83,11.15,13,10.18s10.44-7,9.45-13.56-6.83-11.13-13-10.2S1836.12,630.63,1837.11,637.2Z"/><path class="cls-53" d="M1841.39,636.19a6.8,6.8,0,1,0,5.64-8.13A7,7,0,0,0,1841.39,636.19Z"/><path class="cls-14" d="M1848.4,630.86a2.92,2.92,0,0,0,3.27,2.58,3,3,0,0,0,2.4-3.43,3,3,0,0,0-3.3-2.6A2.94,2.94,0,0,0,1848.4,630.86Z"/><path class="cls-14" d="M1842.11,640.65a1.74,1.74,0,1,0,3.44-.52,1.75,1.75,0,0,0-2-1.54A1.79,1.79,0,0,0,1842.11,640.65Z"/><path class="cls-54" d="M1911.7,691.78a58,58,0,0,1-33.62-4.35c4.81,13.39,19.91,21.74,36,19.1s27.77-15.36,28.06-29.58A57.94,57.94,0,0,1,1911.7,691.78Z"/><path class="cls-55" d="M1879.62,688.87l.23.48v0l1.84,1.24,1.88,1.17,1.91,1.1,2,1,2,.92,2,.81,2,.72,2.08.62,2.11.5,2.12.41,2.14.29,2.15.16,2.16.06,2.15-.05,2.14-.18,2.13-.3,2.15-.4,2.06-.51,2-.63,2-.75,2-.84,1.93-1,1.89-1.06,1.83-1.15,1.78-1.25,1.72-1.33,1.66-1.42,1.59-1.51,1.54-1.57,1.47-1.64,1.4-1.71,1.35-1.77v0l.07-.52,0,.53h0l-1.06,2-1.17,1.92-1.28,1.85-1.39,1.78-1.49,1.69-1.58,1.62c-.56.52-1.13,1-1.69,1.53l-1.77,1.42-1.86,1.34-1.94,1.2-2,1.09-2.08,1c-.7.29-1.42.56-2.13.83l-2.19.71-2.25.59-2.22.44-2.27.29-2.29.16-2.3,0c-.76,0-1.53-.07-2.29-.12l-2.28-.26-2.25-.4-2.22-.52-2.19-.67-2.13-.79c-.7-.3-1.4-.59-2.08-.91l-2-1-2-1.13-1.88-1.25c-.6-.44-1.21-.88-1.81-1.34l-1.71-1.44-1.63-1.53h0Z"/><path class="cls-56" d="M1893.88,694.45c.08-.79,2.32-1.23,5-1s4.83,1.09,4.75,1.88-2.32,1.22-5,1S1893.81,695.23,1893.88,694.45Z"/><path class="cls-57" d="M1981.24,598.44c-6.66-8.45-15.87-13.32-25.93-13.72s-19.63,3.71-26.94,11.6a45.07,45.07,0,0,0-11.63,28.92c0,.81,0,1.61,0,2.42L1895.19,631a43.33,43.33,0,0,0-8.26-17.8c-6.66-8.45-15.86-13.32-25.92-13.72s-19.63,3.71-26.94,11.6A45,45,0,0,0,1822.44,640c0,.34,0,.67,0,1l-53.12,14.95a3.48,3.48,0,0,0-2.57,4.48,4,4,0,0,0,3.67,2.51,4.69,4.69,0,0,0,1.38-.16l51-14.38a44,44,0,0,0,8.89,21.37c6.66,8.45,15.86,13.32,25.92,13.72s19.63-3.72,26.94-11.61a45,45,0,0,0,11.63-28.92c.06-1.62,0-3.23,0-4.83l21.16-3.26A43.72,43.72,0,0,0,1926,655c6.65,8.45,15.86,13.32,25.93,13.72s19.62-3.71,26.93-11.6a46.47,46.47,0,0,0,2.36-58.69Zm-123.31,77.87c-15.92-.64-28.25-16.8-27.48-36s14.35-34.33,30.27-33.7,28.25,16.8,27.48,36S1873.85,677,1857.93,676.31Zm94.3-14.73c-15.92-.64-28.25-16.79-27.48-36s14.35-34.33,30.27-33.69,28.25,16.79,27.48,36S1968.15,662.22,1952.23,661.58Z"/><path class="cls-26" d="M1775.31,656s-8.42-14.06-24.8-9.43c-17.28,4.86-13.79,30.34,1.57,41.43s34.71,5.74,35.18-8.35Z"/><path class="cls-40" d="M1750.2,654.39c9.71-6.68,27.79,11.53,18.28,29-.58-18-8.46-21-12.9-10.39-2.11-5.06-.81-9.35,5.82-11.5C1758,655.05,1750.2,654.39,1750.2,654.39Z"/></g></g></svg>