<svg xmlns="http://www.w3.org/2000/svg" xmlns:xlink="http://www.w3.org/1999/xlink" viewBox="0 0 3252.76 2400"><defs><style>.cls-1{fill:#b0b2d1;}.cls-2{fill:#bcbee8;}.cls-3{fill:#f3f5f4;}.cls-19,.cls-27,.cls-4,.cls-8{fill:#fff;}.cls-13,.cls-4{stroke:#000;stroke-miterlimit:10;stroke-width:4px;}.cls-5,.cls-6{fill:#272866;}.cls-6{opacity:0.44;}.cls-7{fill:#494c82;}.cls-9{fill:#111;}.cls-10{fill:#070208;}.cls-11,.cls-23{fill:#f9829f;}.cls-12{fill:#e26f90;}.cls-13{fill:none;}.cls-14{opacity:0.55;}.cls-15{fill:#d38198;}.cls-16{fill:#f9aac0;}.cls-17{opacity:0.51;}.cls-18{opacity:0.33;}.cls-19,.cls-20,.cls-28{opacity:0.54;}.cls-21{fill:#fcdccd;}.cls-22,.cls-28{fill:#f2ad94;}.cls-23{opacity:0.67;}.cls-24{opacity:0.5;}.cls-25{opacity:0.7;}.cls-26{fill:#f5fef9;}.cls-27{opacity:0.71;}.cls-29{fill:#524e53;}.cls-30{opacity:0.3;}.cls-31{fill:url(#linear-gradient);}.cls-32{fill:#d36c6c;}</style><linearGradient id="linear-gradient" x1="2330.66" y1="840.1" x2="2538.73" y2="713.55" gradientUnits="userSpaceOnUse"><stop offset="0" stop-color="#fff"/><stop offset="0.04" stop-color="#fff" stop-opacity="0.95"/><stop offset="0.4" stop-color="#fff" stop-opacity="0.55"/><stop offset="0.69" stop-color="#fff" stop-opacity="0.25"/><stop offset="0.9" stop-color="#fff" stop-opacity="0.07"/><stop offset="1" stop-color="#fff" stop-opacity="0"/></linearGradient></defs><g id="Layer_2" data-name="Layer 2"><g id="main"><path class="cls-1" d="M3252.76,2092.64H34.25c0,116.85,132.14,248.18,248.18,248.18h35.66l-35.83,1.38c285,34.73,788.43,57.8,1361.93,57.8,572.6,0,1075.34-23,1360.58-57.63l-38.82-1.55h38.63C3141.65,2340.82,3252.76,2229.7,3252.76,2092.64Z"/><ellipse class="cls-2" cx="1643.5" cy="2092.64" rx="1609.25" ry="123.74"/><path class="cls-3" d="M3129.39,947.14q0,21.6-1.28,43.48c-7.33,130.36-46.19,266.39-113.62,383.55,0,0,0,0,0,0-54.79,95.25-128.43,178-219.33,235.16A538.64,538.64,0,0,1,2694.39,1659a497.71,497.71,0,0,1-137.65,29.45c-5,.33-9.95.61-15,.81a560.54,560.54,0,0,1-89.51-3.84c-100.84-12.1-197.66-47.61-295.65-76.1l-.07,0c-27.21-7.91-54.51-15.28-82-21.45a548.75,548.75,0,0,0-63.74-10.27c-16.91-1.78-33.82-2.87-50.73-3.51h0c-40.43-1.53-80.87-.44-121.35.35h0c-43.35.83-86.78,1.29-130.29-2.21a577.06,577.06,0,0,1-83.54-12.53c-3.08-.7-6.17-1.43-9.25-2.21-89.4-22.41-178-50.83-269.11-64.27a702.74,702.74,0,0,0-80.14-7.42q-12.12-.39-24.34-.31c-89.09.39-181.41,16.09-268.17-6.31-41.74-10.79-78.67-31.1-114.11-54.43-25.53-16.78-50.27-35.13-75.47-52.62h0c-37.58-26.07-76.19-50.19-119.93-64.32-2.15-.7-4.34-1.38-6.53-2q-3.78-1.12-7.61-2.3a919.27,919.27,0,0,1-123.05-47.72c-90.5-42.82-178.69-103.35-228.58-179.4-1-1.52-2-3-2.95-4.58-61.18-97-98.49-210.68-103.16-324.78q-1-24.37,0-48.72A542.94,542.94,0,0,1,214,566.89a483.53,483.53,0,0,1,59.68-127.75c84.25-128.69,226.69-222,376.51-255.49a566.39,566.39,0,0,1,75-11.63c2.85-.25,5.71-.49,8.57-.68q12.24-.85,24.5-1.35,25.61-1,51.16-.64,16.54.19,33.08.84c17.07.66,34.12,1.62,51.17,2.78q16.54,1.11,33.08,2.45c17.06,1.35,34.1,2.81,51.17,4.26q16.53,1.42,33.08,2.78c17,1.4,34.11,2.72,51.17,3.81q16.53,1.09,33.08,1.87c17,.8,34.09,1.3,51.16,1.41q16.53.12,33.08-.28c5.52-.15,11-.34,16.55-.6q23-1,45.94-2.62a1843.32,1843.32,0,0,0,409.66-75.67c45.14-13.77,91.06-27,137.46-39.27,56.58-14.94,113.88-28.38,171.38-39.45q12.12-2.34,24.24-4.52c5.12-.94,10.24-1.83,15.36-2.72q17.24-3,34.44-5.63h.06c5.66-.86,11.32-1.72,17-2.54q26-3.76,52-6.72,35.23-4,70.33-6.42c132.38-8.95,262.2.66,382.84,39.7a734,734,0,0,1,146.73,65.65q16.72,9.83,33.08,20.71,26.07,17.31,51.17,37.36,16.77,13.44,33.07,28.12,26.27,23.66,51.17,50.72,16.89,18.31,33.08,38.27,3.74,4.59,7.42,9.27,8.94,11.3,17.64,23.1,13.53,18.33,26.12,37.35,17.43,26.29,33.07,53.82,16.2,28.43,30.48,58c.93,1.92,1.86,3.84,2.77,5.77q9.4,19.64,17.92,39.7,18.48,43.42,33.08,88.45a1139.06,1139.06,0,0,1,40.57,167.39q2.35,14.41,4.35,28.87,3.76,27,6.23,54.17,2,21.75,3.14,43.49.93,16.83,1.33,33.6C3129.32,933.41,3129.41,940.26,3129.39,947.14Z"/><path class="cls-2" d="M1838.7,512.59v1065H1708.4v0h-83.54v-17.88c-3.09-.7-6.17-1.44-9.26-2.21-89.39-22.41-177.95-50.83-269.1-64.27V512.59Z"/><rect class="cls-1" x="1393.66" y="592.69" width="100.21" height="40.68"/><rect class="cls-1" x="1524.65" y="592.69" width="100.21" height="40.68"/><rect class="cls-4" x="1655.64" y="592.69" width="100.21" height="40.68"/><rect class="cls-1" x="1393.66" y="684.05" width="100.21" height="40.68"/><rect class="cls-1" x="1524.65" y="684.05" width="100.21" height="40.68"/><rect class="cls-4" x="1655.64" y="684.05" width="100.21" height="40.68"/><rect class="cls-1" x="1393.66" y="775.4" width="100.21" height="40.68"/><rect class="cls-1" x="1524.65" y="775.4" width="100.21" height="40.68"/><rect class="cls-4" x="1655.64" y="775.4" width="100.21" height="40.68"/><rect class="cls-1" x="1393.66" y="866.75" width="100.21" height="40.68"/><rect class="cls-1" x="1524.65" y="866.75" width="100.21" height="40.68"/><rect class="cls-4" x="1655.64" y="866.75" width="100.21" height="40.68"/><rect class="cls-1" x="1393.66" y="958.11" width="100.21" height="40.68"/><rect class="cls-1" x="1524.65" y="958.11" width="100.21" height="40.68"/><rect class="cls-4" x="1655.64" y="958.11" width="100.21" height="40.68"/><rect class="cls-1" x="1624.86" y="512.59" width="213.84" height="1065"/><path class="cls-2" d="M784.27,439.14v933h0c-39.45-27.37-80-52.59-126.46-66.35-2.53-.75-5.06-1.51-7.61-2.3a920.11,920.11,0,0,1-123.05-47.72c-92.31-43.67-182.23-105.78-231.53-184-61.18-97-98.49-210.68-103.17-324.78V698.28A543.93,543.93,0,0,1,214,566.89a483.22,483.22,0,0,1,59.68-127.75Z"/><rect class="cls-4" x="564.16" y="524.77" width="120.49" height="43.49"/><rect class="cls-4" x="564.16" y="622.43" width="120.49" height="43.49"/><rect class="cls-4" x="564.16" y="720.08" width="120.49" height="43.49"/><rect class="cls-4" x="564.16" y="817.73" width="120.49" height="43.49"/><rect class="cls-5" x="249.14" y="524.77" width="120.49" height="43.49"/><rect class="cls-5" x="406.65" y="524.77" width="120.49" height="43.49"/><rect class="cls-5" x="249.14" y="622.43" width="120.49" height="43.49"/><rect class="cls-5" x="406.65" y="622.43" width="120.49" height="43.49"/><rect class="cls-5" x="249.14" y="720.08" width="120.49" height="43.49"/><rect class="cls-5" x="406.65" y="720.08" width="120.49" height="43.49"/><rect class="cls-5" x="249.14" y="817.73" width="120.49" height="43.49"/><rect class="cls-5" x="406.65" y="817.73" width="120.49" height="43.49"/><rect class="cls-5" x="249.14" y="915.39" width="120.49" height="43.49"/><rect class="cls-5" x="406.65" y="915.39" width="120.49" height="43.49"/><rect class="cls-4" x="564.16" y="915.39" width="120.49" height="43.49"/><rect class="cls-2" x="446.81" y="364.52" width="305.56" height="74.63"/><path class="cls-1" d="M784.26,439.15v933c-39.45-27.37-80-52.59-126.46-66.35-2.53-.75-5.06-1.51-7.61-2.3a920.11,920.11,0,0,1-123.05-47.72V439.15Z"/><rect class="cls-1" x="446.81" y="415.68" width="305.55" height="23.48"/><path class="cls-2" d="M1242,186.06V1485.5c-89.09.39-181.41,16.09-268.17-6.32-71.79-18.55-129.38-65.28-189.58-107h0c-39.45-27.37-80-52.59-126.46-66.35-2.53-.75-5.06-1.51-7.61-2.3V183.65a565.11,565.11,0,0,1,75-11.63q4.29-.37,8.58-.68,12.26-.85,24.49-1.34c17.08-.69,34.13-.86,51.17-.66q16.54.21,33.08.85c17.07.66,34.12,1.62,51.17,2.78q16.54,1.11,33.08,2.44c17.05,1.36,34.11,2.82,51.17,4.27q16.54,1.42,33.08,2.78c17,1.4,34.1,2.72,51.17,3.81q16.51,1.09,33.08,1.87c17,.79,34.09,1.3,51.17,1.41q16.51.12,33.08-.29,8.25-.21,16.54-.59Q1219.06,187.65,1242,186.06Z"/><path class="cls-1" d="M758.29,170v957.3H725.22V172q4.29-.37,8.58-.68Q746.06,170.49,758.29,170Z"/><path class="cls-1" d="M842.54,170.19V1127.3H809.46v-958Q826,169.55,842.54,170.19Z"/><path class="cls-1" d="M926.79,175.41V1127.3H893.71V173Q910.26,174.08,926.79,175.41Z"/><path class="cls-1" d="M1011,182.46V1127.3H978V179.68Q994.51,181.11,1011,182.46Z"/><path class="cls-1" d="M1095.29,188.14V1127.3h-33.08v-941Q1078.72,187.37,1095.29,188.14Z"/><path class="cls-1" d="M1179.54,189.26v938h-33.08V189.55Q1163,189.67,1179.54,189.26Z"/><rect class="cls-2" x="1708.4" y="110.34" width="492.21" height="1467.27"/><rect class="cls-4" x="2017.55" y="220.7" width="100.21" height="56.05"/><rect class="cls-4" x="2017.55" y="346.56" width="100.21" height="56.05"/><rect class="cls-4" x="2017.55" y="472.41" width="100.21" height="56.05"/><rect class="cls-4" x="2017.55" y="598.27" width="100.21" height="56.05"/><rect class="cls-1" x="1755.56" y="220.7" width="100.21" height="56.05"/><rect class="cls-1" x="1886.55" y="220.7" width="100.21" height="56.05"/><rect class="cls-1" x="1755.56" y="346.56" width="100.21" height="56.05"/><rect class="cls-1" x="1886.55" y="346.56" width="100.21" height="56.05"/><rect class="cls-1" x="1755.56" y="472.41" width="100.21" height="56.05"/><rect class="cls-1" x="1886.55" y="472.41" width="100.21" height="56.05"/><rect class="cls-1" x="1755.56" y="598.27" width="100.21" height="56.05"/><rect class="cls-1" x="1886.55" y="598.27" width="100.21" height="56.05"/><rect class="cls-1" x="1755.56" y="724.13" width="100.21" height="56.04"/><rect class="cls-1" x="1886.55" y="724.13" width="100.21" height="56.04"/><rect class="cls-4" x="2017.55" y="724.13" width="100.21" height="56.04"/><path class="cls-1" d="M2452.26,279.12V1685.45c-100.84-12.09-197.66-47.61-295.64-76.1l-.08,0c-27.21-7.91-54.51-15.28-82-21.45a548.41,548.41,0,0,0-63.74-10.27c-16.9-1.78-33.81-2.87-50.73-3.52h0v-1295Z"/><rect class="cls-4" x="2042.91" y="115.2" width="100.21" height="40.68" transform="translate(4186.02 271.07) rotate(-180)"/><rect class="cls-4" x="2042.91" y="206.55" width="100.21" height="40.68" transform="translate(4186.02 453.78) rotate(-180)"/><rect class="cls-4" x="2042.91" y="297.9" width="100.21" height="40.68" transform="translate(4186.02 636.49) rotate(-180)"/><rect class="cls-4" x="2042.91" y="389.26" width="100.21" height="40.68" transform="translate(4186.02 819.19) rotate(-180)"/><rect class="cls-5" x="2307.46" y="375.22" width="100.21" height="40.68" transform="translate(4715.12 791.11) rotate(-180)"/><rect class="cls-5" x="2176.46" y="375.22" width="100.21" height="40.68" transform="translate(4453.14 791.11) rotate(-180)"/><rect class="cls-5" x="2307.46" y="466.57" width="100.21" height="40.68" transform="translate(4715.12 973.82) rotate(-180)"/><rect class="cls-5" x="2176.46" y="466.57" width="100.21" height="40.68" transform="translate(4453.14 973.82) rotate(-180)"/><rect class="cls-5" x="2307.46" y="557.92" width="100.21" height="40.68" transform="translate(4715.12 1156.53) rotate(-180)"/><rect class="cls-5" x="2176.46" y="557.92" width="100.21" height="40.68" transform="translate(4453.14 1156.53) rotate(-180)"/><rect class="cls-5" x="2307.46" y="649.28" width="100.21" height="40.68" transform="translate(4715.12 1339.24) rotate(-180)"/><rect class="cls-5" x="2176.46" y="649.28" width="100.21" height="40.68" transform="translate(4453.14 1339.24) rotate(-180)"/><rect class="cls-5" x="2307.46" y="740.63" width="100.21" height="40.68" transform="translate(4715.12 1521.94) rotate(-180)"/><rect class="cls-5" x="2176.46" y="740.63" width="100.21" height="40.68" transform="translate(4453.14 1521.94) rotate(-180)"/><rect class="cls-4" x="2042.91" y="480.61" width="100.21" height="40.68" transform="translate(4186.02 1001.9) rotate(-180)"/><path class="cls-2" d="M2173.9,3.1V1609.33H1960.06V31.89l.46-.23q19.8-3.81,39.6-7.24,17.24-3,34.44-5.63h.06c5.66-.86,11.32-1.72,17-2.54q26-3.76,52-6.72Q2138.8,5.5,2173.9,3.1Z"/><path class="cls-2" d="M3129.39,947.14q0,21.6-1.27,43.48c-7.34,130.37-46.2,266.39-113.63,383.56,0,0,0,0,0,0-54.79,95.24-128.43,178-219.33,235.15A538.32,538.32,0,0,1,2694.39,1659a497.41,497.41,0,0,1-137.66,29.44V42.8a733.87,733.87,0,0,1,146.74,65.65q16.72,9.84,33.08,20.71,26.07,17.33,51.17,37.37,16.77,13.41,33.08,28.11Q2847,218.3,2872,245.36q16.89,18.33,33.08,38.27,12.74,15.67,25.06,32.36,13.53,18.35,26.11,37.36,17.45,26.31,33.08,53.82,17.79,31.2,33.26,63.73,9.38,19.64,17.91,39.7,18.48,43.41,33.08,88.45a1137.79,1137.79,0,0,1,40.57,167.39q2.35,14.41,4.36,28.87,3.75,27.06,6.22,54.17,2,21.76,3.15,43.49.91,16.83,1.32,33.6Q3129.42,936.83,3129.39,947.14Z"/><path class="cls-5" d="M3073.54,599.05v560h-33.08V510.6Q3058.94,554,3073.54,599.05Z"/><path class="cls-5" d="M2989.29,407.17v751.89h-33.08V353.35Q2973.66,379.66,2989.29,407.17Z"/><path class="cls-5" d="M2905,283.63v875.43H2872V245.36Q2888.85,263.69,2905,283.63Z"/><path class="cls-5" d="M2820.8,194.64v964.42h-33.08V166.53Q2804.49,179.94,2820.8,194.64Z"/><path class="cls-5" d="M2736.55,129.16v1029.9h-33.08V108.45Q2720.2,118.29,2736.55,129.16Z"/><rect class="cls-5" x="2619.22" y="99.36" width="33.08" height="1059.69" transform="translate(5271.52 1258.41) rotate(-180)"/><path class="cls-2" d="M1410.26,117.21c16.68-6,33.1-12.94,49.55-20.59,13.5-6.29,33.39-13.6,45.1-22.71,10.95-8.53,19.65-23.27,24.45-35.42-28.85-10.75-58.11,19.69-83.71,32.55-93.92,47.14-220.48,47.45-320.46,20.78-29-7.74-89.88-47.48-118.87-24.27-45.69,36.61,68.86,62.26,88.33,66.55,80.67,17.76,167.27,18,248.23,2A456.64,456.64,0,0,0,1410.26,117.21Z"/><path class="cls-2" d="M204.5,1243.72c30.38,46.72,90.12,104.06,153.94,75.33,64.2-28.9,6.2-104.94-35.27-135.39-62.29-45.75-105.19-92.29-124.34-171.52-9.44-39.07-11.16-79.46-19.43-118.74-2.39-11.33-37-108.77-52.51-91.17-19.36,22-15.55,79.28-16.22,106.87a595.51,595.51,0,0,0,8.82,117.06C133,1103.35,161.76,1178,204.5,1243.72Z"/><path class="cls-2" d="M49.59,695.86c26.8,26.57,74.32,34.49,81.84-13.78,5.81-37.33-46.56-91.7-81.26-61.85C21,645.33,29.42,675.87,49.59,695.86Z"/><path class="cls-2" d="M0,801.32c.55,19.15,12.41,36.92,38.85,32,28.24-5.29,33-53.72,8.35-67.23C17.37,749.73-.69,776.67,0,801.32Z"/><path class="cls-2" d="M3164.44,1487.36c-17.46,43.78-29.71,87.07-31.44,140.32-1,30.78,1,62.18-7.39,91.8-23.47,82.51-144.34,90-184.13,15.64-42.92-80.18,8-151.8,62.61-210.23,57.21-61.27,121.58-114.12,159-188.6,9.22-18.35,36.06-16.82,43.19,2.43C3223.5,1385.21,3182.88,1441.11,3164.44,1487.36Z"/><path class="cls-6" d="M3129.39,947.14q0,21.6-1.28,43.48c-7.33,130.36-46.19,266.39-113.62,383.55,0,0,0,0,0,0-54.79,95.25-128.43,178-219.33,235.16A538.64,538.64,0,0,1,2694.39,1659a497.71,497.71,0,0,1-137.65,29.45c-5,.33-9.95.61-15,.81a560.54,560.54,0,0,1-89.51-3.84c-100.84-12.1-197.66-47.61-295.65-76.1l-.07,0c-27.21-7.91-54.51-15.28-82-21.45a548.75,548.75,0,0,0-63.74-10.27c-16.91-1.78-33.82-2.87-50.73-3.51h0c-40.43-1.53-80.87-.44-121.35.35h0c-43.35.83-86.78,1.29-130.29-2.21a577.06,577.06,0,0,1-83.54-12.53c-3.08-.7-6.17-1.43-9.25-2.21-89.4-22.41-178-50.83-269.11-64.27a702.74,702.74,0,0,0-80.14-7.42q-12.12-.39-24.34-.31c-89.09.39-181.41,16.09-268.17-6.31-41.74-10.79-78.67-31.1-114.11-54.43a1131.14,1131.14,0,0,1-12-177.58c507.9,56,1034.84,47,1512.53-134.45,133.25-50.61,263.56-115.62,367.58-213.09,57.08-53.5,105.24-115.86,149-180.74a1827.11,1827.11,0,0,0,143-253.77c.93,1.92,1.86,3.84,2.77,5.77q9.4,19.64,17.92,39.7,18.48,43.42,33.08,88.45a1139.06,1139.06,0,0,1,40.57,167.39q2.35,14.41,4.35,28.87,3.76,27,6.23,54.17,2,21.75,3.14,43.49.93,16.83,1.33,33.6C3129.32,933.41,3129.41,940.26,3129.39,947.14Z"/><rect class="cls-7" x="1345.94" y="471.15" width="875.16" height="1642.69" rx="51.74"/><path class="cls-5" d="M2125.93,471.15V2113.84H1397.67a51.73,51.73,0,0,1-51.73-51.74V522.89a51.73,51.73,0,0,1,51.73-51.74Z"/><rect class="cls-8" x="1373.02" y="560.65" width="725.83" height="1518.3"/><path class="cls-2" d="M2098.85,1505.9v573H1373V1024.13q15.42,20,31,39.87c36.36,46.67,72.88,93.51,115.47,134.58,61.75,59.53,134.92,105.67,207.52,151.35,94.67,59.56,191.7,120.13,300.82,144.73A588,588,0,0,0,2098.85,1505.9Z"/><rect class="cls-7" x="1873.4" y="839.13" width="118.14" height="8.8" transform="translate(414.35 2306.85) rotate(-67.53)"/><rect class="cls-7" x="1495.38" y="1747.69" width="8.8" height="167.49" transform="translate(-495.23 3105.57) rotate(-83.25)"/><polygon class="cls-7" points="1591.33 981.81 1583.72 986.24 1583.27 985.47 1548.63 925.97 1373.02 624.34 1373.02 606.84 1559 926.28 1591 981.23 1591.33 981.81"/><rect class="cls-7" x="1973.54" y="828.09" width="166.52" height="8.8" transform="translate(532.97 2445.39) rotate(-68.66)"/><path class="cls-7" d="M1916.59,1179.21V2079h-8.81V1179.21a62.77,62.77,0,0,0-.52-8,60.12,60.12,0,0,0-17-34.74l-4.52-4.49h0l-59.85-59.46-6.65-6.61L1689.56,937.08l-.89-.9-2.36-2.34-2.72-2.7,1.05-1.06.75-.75,1.3-1.31h0l.85-.86,2.24-2.26,5.82,5.79L1884.08,1118h0l12.37,12.29a68.89,68.89,0,0,1,19.54,39.84A71.5,71.5,0,0,1,1916.59,1179.21Z"/><polygon class="cls-7" points="1861.91 560.65 1833.24 624.44 1831.44 628.45 1829.64 632.46 1827.69 636.79 1795.84 707.68 1792.22 715.72 1695.61 930.68 1694.42 933.33 1694.32 933.29 1694.32 933.28 1690.46 931.55 1690.07 931.38 1687.41 930.17 1687.4 930.17 1687.18 930.07 1686.4 929.72 1686.85 928.7 1686.95 928.47 1686.97 928.47 1687.02 928.34 1687.55 927.15 1687.56 927.14 1852.27 560.65 1861.91 560.65"/><rect class="cls-7" x="1868.91" y="659.96" width="8.8" height="180.42" transform="translate(380.75 2108.22) rotate(-64.12)"/><polygon class="cls-7" points="2099.51 1905.92 2098.85 1905.91 2090.71 1905.86 1923.72 1904.82 1916.59 1904.78 1912.18 1904.75 1909.87 1904.74 1909.92 1895.93 1912.18 1895.94 1916.59 1895.97 1921.58 1896 2098.85 1897.11 2098.85 1902.69 2099.49 1902.69 2099.51 1905.92"/><polygon class="cls-7" points="1694.81 934.19 1693.58 934.87 1689.56 937.08 1688.96 937.41 1464.77 1060.69 1456.75 1065.1 1378.74 1108 1374.71 1110.21 1373.74 1110.74 1373.02 1111.14 1372.99 1111.16 1369.73 1107.94 1369.73 1107.93 1369.45 1106.64 1373.02 1105.88 1373.02 1098.81 1374.51 1100.28 1583.27 985.47 1591 981.23 1684.05 930.07 1685.39 929.33 1686.81 928.55 1686.81 928.54 1686.97 928.47 1687.08 928.39 1690.57 926.48 1692.69 930.33 1694.32 933.28 1694.81 934.19"/><path class="cls-7" d="M1433.17,1673.85l-.78,7.6-.46,4.38-.44,4.32v.06l-13.07,127.16-.9,8.75-26,252.83h-8.85l23-223.32.45-4.4.46-4.38.25-2.49,12.5-121.61.9-8.8,4.22-41A1328,1328,0,0,0,1402,1258.7l-4.48-20.94-.93-4.34-.32-1.46-.61-2.88-21.92-102.45-.7-3.29-3.29-15.4h0l-.28-1.29,3.57-.76.73-.16,4.3-.92.69,3.2,31.85,148.85q11.51,53.73,18.53,108c.18,1.36.36,2.73.52,4.1h0a1.52,1.52,0,0,1,.06.32c.18,1.47.37,3,.55,4.43A1338.19,1338.19,0,0,1,1433.17,1673.85Z"/><path class="cls-7" d="M1429.58,1374l-2.58-8.42,192.73-59.06c.24-18.72,2.17-74.32,2.26-76.83l.11-3,144.58-51.11,2.93,8.3L1630.69,1233c-.45,13-2.18,64.46-2.18,76.79V1313Z"/><rect class="cls-7" x="1715.16" y="1205.16" width="8.8" height="400.67" transform="translate(-117.58 157.6) rotate(-5.07)"/><rect class="cls-7" x="1729.33" y="1121" width="134.21" height="8.8" transform="translate(18.52 2279.85) rotate(-65.06)"/><rect class="cls-7" x="1487.09" y="1053.75" width="8.8" height="284.69" transform="translate(-230.77 366.02) rotate(-13)"/><rect class="cls-7" x="1703.82" y="1697.58" width="203.52" height="8.8" transform="translate(48.64 3454.13) rotate(-88.23)"/><rect class="cls-7" x="1481.33" y="1158.29" width="116.93" height="8.8" transform="translate(-298.42 576.35) rotate(-19.37)"/><rect class="cls-7" x="1581.12" y="1065.21" width="8.8" height="79.23" transform="translate(-217.43 409.2) rotate(-13.77)"/><polygon class="cls-7" points="2098.85 759.7 1829.64 632.46 1827.04 631.24 1824.57 630.07 1826.44 626.1 1826.45 626.09 1828.33 622.11 1833.24 624.44 2098.85 749.96 2098.85 759.7"/><rect class="cls-7" x="1916.76" y="1392.44" width="182.09" height="8.8"/><polygon class="cls-7" points="1414.54 1848.28 1413.76 1852.61 1412.99 1856.95 1409.98 1856.41 1405.63 1855.63 1373.02 1849.79 1372.99 1849.79 1372.99 1840.85 1373.02 1840.85 1406.54 1846.85 1409.32 1847.35 1410.88 1847.63 1414.54 1848.28"/><polygon class="cls-7" points="1423.76 1714.66 1422.05 1723.3 1419.29 1722.75 1373.12 1713.58 1373.02 1713.56 1373.02 1704.58 1373.13 1704.6 1420.19 1713.95 1423.76 1714.66"/><polygon class="cls-7" points="1400.04 1232.19 1396.58 1233.42 1373.61 1241.55 1373.02 1241.76 1373.02 1230.54 1373.62 1230.57 1388.8 1231.5 1396.25 1231.96 1400.04 1232.19"/><polygon class="cls-7" points="1401.51 1236.34 1397.5 1237.76 1373.6 1246.22 1373.6 1246.23 1373.02 1246.43 1373.02 1237.09 1373.61 1236.88 1388.8 1231.5 1395.64 1229.08 1398.57 1228.04 1400.04 1232.19 1401.51 1236.34"/><polygon class="cls-7" points="2100.6 2055.74 2099.66 2053.06 2098.85 2050.7 2098.85 2078.95 2091.97 2078.95 2090.71 1905.86 2090.69 1902.75 2098.85 1902.69 2099.49 1902.69 2099.51 1905.92 2100.55 2048.46 2100.58 2052.85 2100.58 2053.03 2100.6 2055.74"/><rect class="cls-7" x="1777.46" y="1871.19" width="8.8" height="256.35" transform="translate(-298.26 3686.25) rotate(-87.33)"/><polygon class="cls-7" points="1674.54 1710.34 1669.12 1780.97 1646.22 2078.95 1637.39 2078.95 1659.75 1787.98 1665.12 1718.08 1610.68 1711.59 1606.29 1711.06 1601.92 1710.54 1431.52 1690.21 1431.49 1690.21 1429.24 1689.94 1429.77 1685.57 1430.29 1681.2 1432.39 1681.45 1602.93 1701.8 1607.3 1702.31 1611.69 1702.84 1674.54 1710.34"/><polygon class="cls-7" points="1590.76 1920.47 1580.3 2023.89 1556.01 2020.97 1543.51 2019.47 1510.23 2015.46 1503.83 2078.95 1494.99 2078.95 1502.37 2005.65 1547.14 2011.03 1552.51 2011.68 1572.44 2014.07 1580.6 1933.43 1582 1919.58 1590.76 1920.47"/><path class="cls-7" d="M2098.85,1537.29v8.81c-50.23,1.51-121.56,3.66-159.09,4.76-11.26.33-19.48.57-23.17.66l-2.12,0v-8.8l2.12,0C1931.73,1542.32,2023.21,1539.57,2098.85,1537.29Z"/><path class="cls-7" d="M2100.58,2052.85v.18l-.92,0A4.54,4.54,0,0,1,2100.58,2052.85Z"/><path class="cls-7" d="M2100.6,2055.74l-.94-2.68-.81-2.35-.63-1.82a5.65,5.65,0,0,1,.63-.16,15.88,15.88,0,0,1,1.69-.27l0,4.39v.18Z"/><polygon class="cls-7" points="1980.7 1029.74 2098.85 1027.8 2098.85 1036.61 1980.85 1038.54 1980.7 1029.74"/><path class="cls-7" d="M1595.15,1840.82l-8.39-2.67a2.49,2.49,0,0,0-.08.29c1.28-6.19,21-177.4,28.48-242.85l.46-4,291,7.26-.22,8.8-282.91-7.06C1615,1674.85,1596.28,1837.29,1595.15,1840.82Z"/><path class="cls-7" d="M1541.29,533.43a10.28,10.28,0,0,1-3.82-19.82c2.78-1.11,5.18-2.07,120.31-1.53,56,.26,112,.79,112.52.8a10.27,10.27,0,1,1-.19,20.54c-85-.8-214.68-1.53-226.54-.25A10.49,10.49,0,0,1,1541.29,533.43Zm2-.23Zm1.81-.51h0Z"/><path class="cls-7" d="M1930.58,532.48h-96.17a10.27,10.27,0,1,1,0-20.54h96.17a10.27,10.27,0,0,1,0,20.54Z"/><path class="cls-9" d="M1966,1684.83a25,25,0,0,1,5.25-8.6c20.08-20.31,24.66,38.39,26.69,52.62,3.21,22.55,3.79,45.38,3.33,68.12-.22,10.91-9.67,58.25-3.77,66.15-19.57-26.19-23.07-76.69-30.77-108.23-5.7-23.28-12.65-68.43,7.66-86.56,4.71-4.19,12-6.22,17.43-3.09,4.75,2.72,6.88,8.37,8.26,13.67,9.67,37,.08,76.33,4,114.41,2.86,27.74,12.84,56,5,82.81a19.8,19.8,0,0,1-7.64-15.81"/><path class="cls-10" d="M1626.12,1692.35s39.65,10,79.3,80.39c0,0,6.67-137.13-32.62-137.13C1672.8,1635.61,1642.13,1633.67,1626.12,1692.35Z"/><ellipse class="cls-11" cx="1014.48" cy="1920.86" rx="120.79" ry="165.76"/><path class="cls-11" d="M1131.65,1920.3c0,73.56-27.73,133.19-61.93,133.19s-61.94-59.63-61.94-133.19,27.73-133.19,61.94-133.19S1131.65,1846.74,1131.65,1920.3Z"/><path class="cls-11" d="M2000.2,1866.74c0,136.75-42.19,247.61-94.24,247.61s-94.24-110.86-94.24-247.61,42.2-247.62,94.24-247.62S2000.2,1730,2000.2,1866.74Z"/><path class="cls-12" d="M1982.55,1872c0,91.49-16.61,165.66-37.11,165.66s-37.11-74.17-37.11-165.66,16.61-165.67,37.11-165.67S1982.55,1780.51,1982.55,1872Z"/><path class="cls-3" d="M1980.19,1877.48c0,61.34-11.14,111.07-24.88,111.07s-24.88-49.73-24.88-111.07,11.14-111.06,24.88-111.06S1980.19,1816.14,1980.19,1877.48Z"/><ellipse class="cls-11" cx="463.95" cy="1918.51" rx="171.91" ry="235.91"/><path class="cls-11" d="M608.46,1928.33c0,110.37-46.29,199.84-103.38,199.84S401.7,2038.7,401.7,1928.33,448,1728.49,505.08,1728.49,608.46,1818,608.46,1928.33Z"/><path class="cls-1" d="M584,1940.26c0,74.78-26.89,135.39-60,135.39S463.9,2015,463.9,1940.26s26.88-135.39,60.05-135.39S584,1865.49,584,1940.26Z"/><path class="cls-11" d="M1737.05,1915.37a354.41,354.41,0,0,1-2,37.5c-.41,3.94-.86,7.57-1.32,10.85q-1.48,10.69-3.59,21c-10,49.29-30.53,91.69-57.57,121.39-25.86,28.4-57.72,45.15-92.19,45.15-65.56,0-121.72-60.66-145.08-146.75a341.84,341.84,0,0,1-11.56-89.14c0-49.54,10.13-95.49,27.45-133.44,28.23-61.89,75.56-102.47,129.19-102.47a106.64,106.64,0,0,1,25.93,3.21,115.33,115.33,0,0,1,20.46,7.3c1.12.53,2.24,1.06,3.34,1.63a144.84,144.84,0,0,1,38.75,29.07,209,209,0,0,1,34.18,47.95c1.59,3,3.12,6.07,4.62,9.2a1,1,0,0,0,0,.1C1726.19,1816.62,1737.05,1864.08,1737.05,1915.37Z"/><path class="cls-12" d="M1713.12,1914.18c0,92.61-34,167.69-75.94,167.69s-75.93-75.08-75.93-167.69,34-167.69,75.93-167.69S1713.12,1821.57,1713.12,1914.18Z"/><path class="cls-3" d="M1703.37,1913.79c0,73.72-27.06,133.49-60.45,133.49s-60.44-59.77-60.44-133.49,27.06-133.49,60.44-133.49S1703.37,1840.06,1703.37,1913.79Z"/><path class="cls-8" d="M705.81,1213.88q4.77-4,9.47-7.88C712.16,1208.6,709,1211.22,705.81,1213.88Z"/><path class="cls-13" d="M705.81,1213.88q4.77-4,9.47-7.88C712.16,1208.6,709,1211.22,705.81,1213.88Z"/><path class="cls-8" d="M752.73,1175.77c3.73-2.92,7.4-5.77,11-8.5Q758.34,1171.38,752.73,1175.77Z"/><path class="cls-13" d="M752.73,1175.77c3.73-2.92,7.4-5.77,11-8.5Q758.34,1171.38,752.73,1175.77Z"/><path class="cls-8" d="M763.71,1167.27q5.63-4.3,11-8.28Q769.33,1163,763.71,1167.27Z"/><path class="cls-13" d="M763.71,1167.27q5.63-4.3,11-8.28Q769.33,1163,763.71,1167.27Z"/><path class="cls-8" d="M777.77,1156.7q4.53-3.36,8.84-6.41Q782.31,1153.36,777.77,1156.7Z"/><path class="cls-13" d="M777.77,1156.7q4.53-3.36,8.84-6.41Q782.31,1153.36,777.77,1156.7Z"/><path class="cls-8" d="M788.74,1148.78c5-3.51,9.66-6.73,14.1-9.61C798.4,1142.06,793.7,1145.28,788.74,1148.78Z"/><path class="cls-13" d="M788.74,1148.78c5-3.51,9.66-6.73,14.1-9.61C798.4,1142.06,793.7,1145.28,788.74,1148.78Z"/><path class="cls-8" d="M802.84,1139.17c1.26-.84,2.5-1.65,3.72-2.4Q804.73,1137.93,802.84,1139.17Z"/><path class="cls-13" d="M802.84,1139.17c1.26-.84,2.5-1.65,3.72-2.4Q804.73,1137.93,802.84,1139.17Z"/><path class="cls-8" d="M1878.34,1326.37q-.9-2.49-1.83-5Q1877.44,1323.88,1878.34,1326.37Z"/><path class="cls-13" d="M1878.34,1326.37q-.9-2.49-1.83-5Q1877.44,1323.88,1878.34,1326.37Z"/><path class="cls-8" d="M1876.51,1321.41c-.36-1-.73-2-1.1-2.92C1875.78,1319.46,1876.15,1320.43,1876.51,1321.41Z"/><path class="cls-13" d="M1876.51,1321.41c-.36-1-.73-2-1.1-2.92C1875.78,1319.46,1876.15,1320.43,1876.51,1321.41Z"/><path class="cls-8" d="M1875.41,1318.49c-.26-.67-.52-1.33-.77-2C1874.89,1317.16,1875.15,1317.82,1875.41,1318.49Z"/><path class="cls-13" d="M1875.41,1318.49c-.26-.67-.52-1.33-.77-2C1874.89,1317.16,1875.15,1317.82,1875.41,1318.49Z"/><path class="cls-8" d="M1858.84,1280.78c5.48,11.06,10.88,23.07,15.8,35.72-23.81-61.06-58.82-106.79-58.82-106.79-.68-.9-1.35-1.79-2-2.67.69.88,1.38,1.77,2.06,2.67C1815.84,1209.71,1837.84,1238.46,1858.84,1280.78Z"/><path class="cls-13" d="M1858.84,1280.78c5.48,11.06,10.88,23.07,15.8,35.72-23.81-61.06-58.82-106.79-58.82-106.79-.68-.9-1.35-1.79-2-2.67.69.88,1.38,1.77,2.06,2.67C1815.84,1209.71,1837.84,1238.46,1858.84,1280.78Z"/><path class="cls-8" d="M1587.69,1087c.23,0,.89-.06,2-.1l-1.85.12Z"/><path class="cls-13" d="M1587.69,1087c.23,0,.89-.06,2-.1l-1.85.12Z"/><path class="cls-8" d="M1604,1087.07h0Z"/><path class="cls-13" d="M1604,1087.07h0Z"/><path class="cls-8" d="M1604,1087.07c-6.89-.36-11.83-.26-14.39-.15C1592.13,1086.81,1597.08,1086.7,1604,1087.07Z"/><path class="cls-13" d="M1604,1087.07c-6.89-.36-11.83-.26-14.39-.15C1592.13,1086.81,1597.08,1086.7,1604,1087.07Z"/><path class="cls-8" d="M1604.16,1087.08l1.81.1Z"/><path class="cls-13" d="M1604.16,1087.08l1.81.1Z"/><g class="cls-14"><path class="cls-11" d="M1672.6,2106.11c-25.86,28.4-57.72,45.15-92.19,45.15-65.56,0-121.72-60.66-145.08-146.75-19.14.55-40.11,1.13-62.63,1.72,4.29-80.75,27.24-162.18,78.52-224.3.46-.57.94-1.15,1.42-1.72,39.19-46.73,95-86.25,153.7-97.54a115.33,115.33,0,0,1,20.46,7.3c1.12.53,2.24,1.06,3.34,1.63a144.84,144.84,0,0,1,38.75,29.07c-.12.41-.25.81-.37,1.22q-4.85,15.91-8.89,32-3.53,14.07-6.45,28.27a675.43,675.43,0,0,0-5.23,244c1.07,6.57,2.26,13.17,3.65,19.76a276.39,276.39,0,0,0,7.58,28.8A175.49,175.49,0,0,0,1672.6,2106.11Z"/></g><path class="cls-15" d="M2018,1849.1c-3.49,17-9.34,32.33-18.35,44.53,0,0,1.19-22.81,1.86-53.76,1.52-70.31.38-182.7-23.37-165.5a66.45,66.45,0,0,0-8.29,10.38,145.54,145.54,0,0,0-14.44,27.67c-7.36,18.26-14.25,43.81-16.62,78.09-.12,1.68-.23,3.4-.32,5.12q-.77,13.93-.46,29.72a395.43,395.43,0,0,1-2.64,47.18c-1,8.85-2.46,18.29-4.43,27.66-3.78,18-9.56,35.75-18.38,48.85-7.07,10.48-16.09,18-27.6,20.17l-63.68,6.39-91.13,9.12-.38,0a193.22,193.22,0,0,0,4-21c.46-3.28.91-6.91,1.32-10.85a352.15,352.15,0,0,0-27.35-174.95,1,1,0,0,1,0-.1c-.74-1.69-1.49-3.37-2.25-5.06,0,0,0-.08,0-.26v0c0-.87-.09-3.65-.27-7.82-1.1-26.35-6.31-108.73-28.31-124.25a13.22,13.22,0,0,0-5.22-2.31c-7.24-1.42-16,3.74-26.65,18.63-3.54,5-4,7.88-9.86,22.18-.09.2-.17.42-.26.62q-2.2,5.45-4.72,12.09l-.7,1.89a635,635,0,0,0-20.19,64.72c-4.2,16.38-8.13,34.4-11.41,53.77-1.2,7.09-2.32,14.37-3.31,21.81a613,613,0,0,0-5.14,105.5l-.31,1.06c-.45,2.05-1.76,6.9-3.86,13.24-.43,1.31-.9,2.68-1.4,4.1l-.12.37c-3.29,9.32-8.15,20.64-14.59,30.49a73.67,73.67,0,0,1-9.64,12.08s-47.45,1.68-124.14,3.88l-7.93.23c-17,.49-35.26,1-54.7,1.49h-.14l-17.54.46-1.29,0c-69,1.78-150.9,3.62-238.23,5h-.78c-29.29.47-59.21.9-89.45,1.26-36.57.43-73.64.77-110.71,1-100.83.57-201.71.19-292.8-1.81q-11.46-.24-22.7-.53-12.07-.3-23.91-.66c-36.78-1.08-71.52-2.46-103.5-4.19-22.28-1.21-43.21-2.59-62.56-4.16q-15.58-1.28-29.73-2.7c-3.85-.39-7.62-.78-11.3-1.2-3.11-.33-6.16-.68-9.14-1-4.51-.54-8.86-1.09-13.08-1.67h0c-11.13-1.5-21.22-3.14-30.19-4.85,0,0-14.54-23.23-22.82-50-.77-2.52-1.49-5.09-2.14-7.66-2.32-9-3.75-18.07-3.5-26.62,0-1.26.1-2.5.21-3.73,0,0,.75-214.68,55-301.92,0,0-.65-17.5,4.55-41.33a189.08,189.08,0,0,1,12.82-38.75.3.3,0,0,0,0-.08,156.19,156.19,0,0,1,22.28-35.43,142.7,142.7,0,0,1,16.38-16.55c.85-.73,1.71-1.44,2.57-2.16l1.31-1.06c1.32-1.07,2.68-2.12,4.07-3.13.46-.35.92-.68,1.39-1l1.41-1,1.43-1c1.05-.71,2.11-1.43,3.19-2.14.9-.58,1.82-1.17,2.75-1.74l1.53-.94c1-.6,2-1.2,3.06-1.78l.13-.08,1.32-.75,1.84-1,1-.51a166,166,0,0,1,30.19-12.29s26.09-24.74,64.84-60.41l1.08-1c1-.9,2-1.79,3-2.72l0,0c1.29-1.19,2.6-2.4,3.93-3.61,7.81-7.2,16.09-14.78,24.69-22.62l2.56-2.33c1.88-1.71,3.77-3.42,5.68-5.17,2.5-2.28,5-4.56,7.6-6.89,8.26-7.48,16.73-15.14,25.37-22.89,1.72-1.52,3.43-3.06,5.16-4.6l5.7-5.1,5.63-5q7.73-6.85,15.51-13.74l4.62-4.08q8.68-7.65,17.4-15.27c.82-.7,1.64-1.43,2.46-2.15l3.35-2.91,2.43-2.11,9.86-8.55,4.43-3.8c8.9-7.66,17.75-15.2,26.46-22.53l2.82-2.38c1.89-1.58,3.77-3.14,5.63-4.72q2-1.71,4.07-3.38l.68-.57h0l.8-.65,3.91-3.26q9.75-8.09,19.15-15.67l4-3.21c.87-.71,1.74-1.42,2.61-2.11l2.6-2.07q4.59-3.66,9.07-7.18c.53-.4,1-.81,1.56-1.22s.82-.62,1.22-.94h0q2.78-2.17,5.49-4.26l2.69-2.08,2.79-2.12,2.77-2.09h0c1.82-1.38,3.63-2.74,5.4-4.06l.82-.61q1.14-.86,2.28-1.68L780,1155l4.42-3.2,2.17-1.55,2.13-1.52,1.85-1.3c.61-.42,1.22-.84,1.82-1.27l1.8-1.25,1.77-1.21c1.17-.8,2.33-1.59,3.48-2.35s2.26-1.51,3.37-2.22l.75-.49,3-1.91c12.2-7.74,22.05-12.78,28.79-14.34,0,0,341.76-43,752.25-35.41h.19l1.13-.08.72,0,1,0,1.17,0h.09c1.6,0,3.65-.06,6.12,0l2.06.06.92,0,1.69.07,1.33.07,1.62.09c37.94,2.35,129.62,19,208.14,119.88l1,1.33c.34.44.67.89,1,1.34.09.1.16.2.24.3s.26.34.39.53l.58.77a5.6,5.6,0,0,1,.36.49c.2.25.39.5.58.76a.22.22,0,0,1,0,.08c38.6,51.51,67.59,108,91.55,166.78h0q2.39,5.86,4.71,11.77t4.6,11.84c1,2.52,1.92,5,2.87,7.56q4.15,11.09,8.12,22.25,7.47,21,14.4,42.15c18.22,55.45,34.24,111.58,51.56,166.35C1995.83,1641.35,2035.14,1765.73,2018,1849.1Z"/><path class="cls-8" d="M1888.92,1361.54c2.07,8.57,3.77,17.28,5,26.06C1892.68,1378.82,1891,1370.11,1888.92,1361.54Z"/><path class="cls-13" d="M1888.92,1361.54c2.07,8.57,3.77,17.28,5,26.06C1892.68,1378.82,1891,1370.11,1888.92,1361.54Z"/><path class="cls-8" d="M1894.28,1390.4c-.11-.93-.25-1.87-.37-2.8.13.86.25,1.72.36,2.57A1.85,1.85,0,0,1,1894.28,1390.4Z"/><path class="cls-13" d="M1894.28,1390.4c-.11-.93-.25-1.87-.37-2.8.13.86.25,1.72.36,2.57A1.85,1.85,0,0,1,1894.28,1390.4Z"/><path class="cls-11" d="M519.38,1377.09l-29.15,26-18.87-6.32,4.72-25.1c37.31-61.75,92.74-41,92.74-41Z"/><path class="cls-11" d="M1738.74,1143.28s-123.83-91.6-121.47,9.82c0,0,21.81,263.64,65,306.1,0,0,183.51-36,210.42-65.84C1902.45,1382.6,1817.81,1188.46,1738.74,1143.28Z"/><path class="cls-2" d="M1789.45,1368.92s-6,3.75-15.07,8.44c-21.57,11.08-60.92,27.35-81.64,11.62a34.92,34.92,0,0,1-6.71-7.16c-5.5-7.5-10.72-18.63-15.55-31.54l-.11-.3c-.19-.5-.38-1-.56-1.53-3.7-10.06-7.15-21.15-10.31-32.38-2.56-9.13-4.92-18.37-7-27.25-2.84-11.76-5.27-22.92-7.23-32.42-1.74-8.42-3.1-15.54-4-20.61-1-5.31-1.51-8.39-1.51-8.39a265.84,265.84,0,0,1-2.85-28c-1.23-25.16.93-58.9,20.55-64,0,0,16.1-3.08,24.74-1.25,2.18.46,3.88,1.22,4.74,2.43,5.82,8.24,11.94,17.42,18.21,27.5q4.64,7.46,9.37,15.57c4.75,8.16,9.55,16.81,14.31,25.92q7.86,15,15.53,31.61l0,.11c8.76,19.07,17.19,39.7,24.88,61.75l1.29,3.75A684.72,684.72,0,0,1,1789.45,1368.92Z"/><path class="cls-2" d="M1855.89,1344.16s-23.28,8.81-40.31,13.22l-1.75.44c-7.59,1.87-13.65,2.73-15.34,1.27-2-1.74-8.61-21.5-17.91-48.33-1.65-4.77-3.39-9.76-5.21-14.91l-.93-2.62c-.88-2.48-1.78-5-2.68-7.55-3.73-10.46-7.75-21.39-12-32.33-2.6-6.78-5.28-13.57-8-20.24-10.66-26-22.19-50.45-33.48-66.64,0,0-2.78-4.17-3.18-7.59-.35-2.9,1-5.28,7.11-4.2l.47.26c3.68,2.11,28.54,16.89,56.32,45.84,3.4,3.55,6.86,7.31,10.31,11.28,2.17,2.49,4.33,5,6.5,7.71q4.71,5.76,9.36,12.08l.06.09a297.91,297.91,0,0,1,23,36.58c3.22,6,6.31,12.36,9.21,18.92q4.69,10.62,8.72,22.12A292.26,292.26,0,0,1,1855.89,1344.16Z"/><path class="cls-11" d="M853,1137c30.61-6.09,522.69-31.71,722.26-17,8.12.6,12.77,10.09,13,18.34,1.1,51.31,1.92,245.51-39.92,229.35,0,0-731.28-3.61-933.31,3.37-17.8.62-27.21-21.17-14.68-34,58-59.36,173.46-170.79,249.41-199.15A20.86,20.86,0,0,1,853,1137Z"/><path class="cls-2" d="M1561.21,1191.37c-.5,63.14-6.19,165.64-37.42,154.78,0,0-111.92-.5-257.53-.71-71.85-.09-151.89-.12-230.74,0-153.21.27-301.91,1.18-377.16,3.41l-3.22.1c-16.58.52-25.34-17.72-13.67-28.47,54-49.69,161.45-143,232.13-166.72a21.08,21.08,0,0,1,3.06-.77c10.88-2,84.34-6.28,181.35-10.19,106.42-4.31,241.17-8.13,352.75-7.78,53.16.17,101.06,1.29,138.12,3.75,7.57.51,11.89,8.45,12.06,15.36C1561.14,1162.65,1561.34,1175.81,1561.21,1191.37Z"/><path class="cls-11" d="M1355,2006.68c-280.88,7.26-775.26,15.56-987-7.94l-2.07-4.33a43.93,43.93,0,0,1,2.36-32.27c7.74-15.47,14.43-37.18,20.1-40.76l1.13-.47c5.85-1.23,17.73-205.3,116.8-227.66,0,0,97.38-38.69,163.77-57.09,27.54-7.64,49.75-11.77,57.48-8.2,26.32,12.17,268.89,1.6,268.89,1.6s12.83,1.76,33.12,5.64c65.58,12.55,209.14,47.34,249.92,117,0,0,59.36,113.21,62.94,173.41Z"/><path class="cls-16" d="M472.9,1467.6c-6.35-.29-61.54,12.92-90.85,18.07,16.61-19.77,40.17-37.16,73.56-47.17,0,0,26.09-24.74,64.84-60.41l3.16-2.08,1037.48-9c10.47,22.73-34.63,54.75-34.63,54.75"/><path class="cls-11" d="M1355,2006.67c-280.88,7.27-775.26,15.57-987-7.92l-2.08-4.34a43.93,43.93,0,0,1,2.36-32.27c7.74-15.47,14.44-37.17,20.1-40.76l1.13-.47,52.28,15.27a574.14,574.14,0,0,0,148.73,22.89q143.48,3.06,287,5.65c99.87,1.75,203,1.12,302.57-4.81,53.7-3.2,109.49-22.42,162.38-34.28l7.07,43.59Z"/><path class="cls-11" d="M1075.15,1777.37a56.31,56.31,0,0,1-11.08,33.66,57.42,57.42,0,0,1-5.49,6.37,56.41,56.41,0,0,1-40,16.58H667.89a56.61,56.61,0,1,1,0-113.22h350.66A56.61,56.61,0,0,1,1075.15,1777.37Z"/><path class="cls-5" d="M1075.15,1777.37a56.31,56.31,0,0,1-11.08,33.66,56.33,56.33,0,0,1-30.22,8.74H683.19a56.61,56.61,0,0,1-45.51-90.28,56.31,56.31,0,0,1,30.21-8.73h350.66A56.61,56.61,0,0,1,1075.15,1777.37Z"/><path class="cls-16" d="M1944.27,1475a73.37,73.37,0,0,1-17.21,15c-19.07,12.38-42,19.26-63.93,24.24-97.92,22.2-205.36,3.14-301.3-19.06,0,0-5.64-27-14.93-39.41,12.81,17.1,91.24,6.54,107.48,5.09,94.2-8.4,172.09-43.79,255.19-81.39C1922.33,1410.77,1933.68,1442.76,1944.27,1475Z"/><path class="cls-12" d="M1594.53,1833.79a613,613,0,0,0-5.14,105.5l-.31,1.06c-.45,2.05-1.76,6.9-3.86,13.24-.43,1.31-.9,2.68-1.4,4.1l-.12.37c-3.29,9.32-8.15,20.64-14.59,30.49a73.67,73.67,0,0,1-9.64,12.08s-47.45,1.68-124.14,3.88l-7.93.23c-17,.49-35.26,1-54.7,1.49h-.14l-17.54.46-12.54-74.88c-.18-2.89-.48-5.92-.89-9q9.54.93,19.13,1.25a285.94,285.94,0,0,0,237.12-112C1596.64,1819.07,1595.52,1826.35,1594.53,1833.79Z"/><path class="cls-12" d="M402.5,1862.57c-7.82,36.2-10.79,64.09-12.94,64.54l-1.13.46c-5.67,3.59-12.36,25.29-20.1,40.77a34.34,34.34,0,0,0-.65,30.28l-8.76-.88h0c-4.5-.54-8.83-1.09-13-1.67,0,0,0,0,0,0-11.13-1.5-21.22-3.14-30.19-4.85,0,0-14.54-23.23-22.82-50-.77-2.52-1.49-5.09-2.14-7.66-2.32-9-3.75-18.07-3.5-26.62a89.42,89.42,0,0,0,49.46-14.64c29.81-19.84,47.12-54.1,56.26-88.73a148.05,148.05,0,0,0,1,15.1C395.61,1833.21,399.08,1847.92,402.5,1862.57Z"/><path class="cls-11" d="M1355,2006.71h0l-12.54-74.88c-.18-2.89-.48-5.92-.89-9-8.27-61.79-62-164.37-62-164.37-53.39-91.23-283-122.65-283-122.65s-242.57,10.57-268.89-1.6-221.25,65.28-221.25,65.28c-62.63,14.14-90.42,100.9-103.86,163.13-7.82,36.2-10.79,64.09-12.94,64.54l-1.13.46c-5.67,3.59-12.36,25.29-20.1,40.77a34.34,34.34,0,0,0-.65,30.28l-8.76-.88h0L346,1996.42s-.06-.12-.16-.35c0,0,0,0,0,0-.85-2.3-4.82-15.19,5.59-36.12,2.5-5,5-11,7.39-16.75,5.16-12.41,8.94-21.49,14.58-27.46.66-3.45,1.51-8.41,2.3-13,3.61-21,8.92-51.92,18.24-84.11,17.16-59.33,47.93-123,106.76-137.25,22.76-9,172-67.4,218.61-67.4,6.49,0,11.8,1,16.22,3,1.64.56,15,4.11,85.17,4.11,76.83,0,174-4.19,175-4.23l1.69-.07,1.67.22c9.75,1.33,239.4,33.8,296.79,131.82,2.82,5.35,57.75,110.73,64.88,175.15.23,1.92.4,3.82.53,5.67l11.31,76.54.09.64Z"/><g class="cls-17"><path class="cls-11" d="M1561.83,1503.33c-7,34.37-11.71,84.14-48.52,96.18-48.51,15.86-109.4,17.21-160.08,21.87-211.14,19.43-152.29,1.14-190.2-13.13,0,0,59.47-50,146.33-94,20.57-10.47,44.79-19.27,73.23-25.16,0,0,69.58-20.51,104.47-35.53,21.09-9.08,45.81-5.14,62.31,10.82a42.71,42.71,0,0,1,12.15,20A41,41,0,0,1,1561.83,1503.33Z"/></g><path class="cls-11" d="M1029.62,1635.2c-14.55,2-26.27,4.74-33.09,8.29-36.16,18.87-154.89,142.9-274.4,3,0,0-22.87-4.77-52-10.28,27.54-7.64,49.75-11.77,57.48-8.2,26.32,12.17,268.89,1.6,268.89,1.6S1009.33,1631.32,1029.62,1635.2Z"/><path class="cls-11" d="M529.31,1531.38s223.49,9.73,241.18,3.83c0,0,77.84-74.29,186.34-1.17,0,0,298.37-2.36,324.91-7.08,0,0-64.86,54.45-74.3,89,0,0-174.74-5.31-210.91,13.56s-154.88,142.9-274.39,3c0,0-142.31-29.68-169-26.53C553.1,1606,545.07,1578.59,529.31,1531.38Z"/><g class="cls-17"><path class="cls-11" d="M554.58,1616.71l-79.26.33c-31,.14-71.51,7.34-101.61,0-55.53-13.57-13.48-93.51,8.8-119.78a143.91,143.91,0,0,1,41.92-33.85,35.37,35.37,0,0,1,46.4,12.08c9.22,14.26,21.51,31.88,33.61,45h.06a105.87,105.87,0,0,0,11.73,11.27,132.91,132.91,0,0,1,32.5,38.15c11.36,20.07,53.67,38.08,59.73,41.52C599.85,1611.44,563.19,1616.68,554.58,1616.71Z"/></g><path class="cls-2" d="M580.39,1604.53l-25.81.1-79.25.33c-31.05.13-71.52,7.34-101.62,0-43.4-10.6-27.19-61.75-7.41-96.14a165.71,165.71,0,0,1,16.2-23.64,143.25,143.25,0,0,1,11.12-11.71,146,146,0,0,1,30.81-22.15,35.39,35.39,0,0,1,46.4,12.09c9.22,14.26,21.51,31.88,33.6,45h.06a108.5,108.5,0,0,0,11.74,11.26,132.76,132.76,0,0,1,32.5,38.15c5.23,9.23,11.06,19.14,16.44,27.47.28.45.56.88.84,1.31C572,1595.74,577.28,1602.75,580.39,1604.53Z"/><path class="cls-2" d="M1561.83,1495.14c-7,34.37-11.71,84.14-48.52,96.18-48.51,15.86-109.21,20.14-160.08,21.87s-101.85,3.2-152.29,9.32c0,0,16.62-55.88,79.46-99.23a245.66,245.66,0,0,1,29-17.17c20.56-10.48,44.79-19.28,73.23-25.16,0,0,69.58-20.51,104.47-35.53,21.09-9.08,45.8-5.15,62.31,10.82a47.44,47.44,0,0,1,6.89,8.26,38.73,38.73,0,0,1,5.26,11.75A41,41,0,0,1,1561.83,1495.14Z"/><path class="cls-12" d="M1935.39,1872.53c-1,8.85-2.46,18.29-4.43,27.66-3.78,18-9.56,35.75-18.38,48.85-7.07,10.48-16.09,18-27.6,20.17l-63.68,6.39-91.13,9.12-.38,0a193.22,193.22,0,0,0,4-21c.46-3.28.91-6.91,1.32-10.85a352.15,352.15,0,0,0-27.35-174.95,1,1,0,0,1,0-.1c-.74-1.69-1.49-3.37-2.25-5.06,0,0,0-.08,0-.26v0c0-.87-.09-3.65-.27-7.82,25.53,34.2,61.92,60.24,101.33,77.26C1847.21,1859.47,1891.14,1868.13,1935.39,1872.53Z"/><path class="cls-11" d="M1823.65,1426.71a255.52,255.52,0,0,1,13.13,28.65c1,2.45,2,4.89,2.82,7.37s1.85,4.93,2.67,7.43l2.56,7.47,2.41,7.52a540.14,540.14,0,0,1,15.11,61.36c4,20.71,6.76,41.64,8.71,62.64s2.69,42.1,2.83,63.19-.9,42.15-2.38,63.17l-1.45,15.73-.74,7.86c-.27,2.62-.63,5.23-.94,7.84l-2,15.67c-.31,2.61-.76,5.21-1.16,7.81l-1.22,7.8a820.76,820.76,0,0,1-28.6,122.64c8.14-41.15,15.06-82.39,19.84-123.83,2.45-20.71,4.09-41.49,5.49-62.26l.76-15.6c.12-2.6.28-5.2.38-7.8l.19-7.8c.12-5.2.34-10.4.39-15.6l.06-15.61,0-3.9-.07-3.9-.13-7.8-.14-7.8c0-2.6-.21-5.19-.29-7.79-.22-5.2-.33-10.4-.65-15.59l-1-15.57-1.26-15.55c-.19-2.59-.47-5.18-.74-7.76l-.79-7.77c-.47-5.18-1.22-10.32-1.82-15.49s-1.35-10.32-2.09-15.47c-1.45-10.31-3.31-20.55-5.19-30.79-.44-2.57-1-5.12-1.5-7.67l-1.56-7.65-1.72-7.63-.86-3.81-.92-3.8c-2.33-10.17-5.14-20.21-8.09-30.23l-1.11-3.76-1.19-3.73c-.77-2.5-1.62-5-2.45-7.45C1827.41,1436.49,1825.63,1431.57,1823.65,1426.71Z"/><g class="cls-18"><path class="cls-19" d="M1744.32,1237.3l-74.51,111.15c-3.7-10.06-7.15-21.15-10.31-32.38-2.56-9.13-4.92-18.37-7-27.25-2.84-11.76-5.27-22.92-7.23-32.42,17.56-37.42,44.13-84.17,59.84-92.31q4.64,7.46,9.37,15.57c4.75,8.16,9.55,16.81,14.31,25.92q7.86,15,15.53,31.61Z"/></g><g class="cls-18"><path class="cls-19" d="M1846.19,1309.56l-32.36,48.26c-7.59,1.87-13.65,2.73-15.34,1.27-2-1.74-8.61-21.5-17.91-48.33-1.65-4.77-3.39-9.76-5.21-14.91l-.93-2.62a618.64,618.64,0,0,1,30.75-61.38l.06.09a297.91,297.91,0,0,1,23,36.58c3.22,6,6.31,12.36,9.21,18.92Q1842.17,1298.06,1846.19,1309.56Z"/></g><path class="cls-11" d="M1658.84,1405.49l9.93,28.3s161.57,18.48,203.63-33c0,0,11-117.15-163.54-77.84-19.17,4.32-.78,78.62-.78,78.62S1676.14,1411,1658.84,1405.49Z"/><g class="cls-20"><path class="cls-8" d="M1410.76,1135l-375.24,210.42c-153.21.27-301.91,1.18-377.16,3.41,76.68-39.31,242.8-124.61,399.65-206C1164.43,1138.51,1299.18,1134.69,1410.76,1135Z"/><path class="cls-8" d="M1561.21,1191.37c-.5,63.14-6.19,165.64-37.42,154.78,0,0-111.92-.5-257.53-.71C1372,1290.7,1480.33,1234.29,1561.21,1191.37Z"/></g><path class="cls-8" d="M1548.69,1490.06c-89.62,32.63-182.87,61.62-275.86,58.78a247,247,0,0,1,29-17.17c20.56-10.47,44.79-19.27,73.23-25.15,0,0,69.58-20.52,104.47-35.54,21.09-9.07,45.8-5.14,62.31,10.83A47.37,47.37,0,0,1,1548.69,1490.06Z"/><path class="cls-8" d="M563.52,1593.82a565.41,565.41,0,0,1-137.36-76.61c-12.43-9.44-24.82-20.43-35-32.59a144.78,144.78,0,0,1,30.81-21.38,36.12,36.12,0,0,1,46.4,11.66c9.22,13.76,21.51,30.77,33.6,43.45H502a106.6,106.6,0,0,0,11.74,10.87,129.4,129.4,0,0,1,32.5,36.82c5.23,8.91,11.06,18.48,16.44,26.52Z"/><path class="cls-11" d="M2523.81,699c1.46,5,4.87,9.14,8.19,13.14,5.78,6.94,11.69,14,19.35,18.79s16.72,7.16,23,13.53l-6.14-30c-3.74-18.29-9.54-36.48-25-48.45C2527.1,653.62,2520.85,688.87,2523.81,699Z"/><path class="cls-21" d="M2403,950.33l-1.66,8.51-6.59,34.08-15.89-16.15-55.32-56.19-5.82-5.91-1.46-1.49,10.78-28.57a19.87,19.87,0,0,1-1-9.91,15.75,15.75,0,0,1,2.51-6.2,17.08,17.08,0,0,1,5.45-5.18s.33.37.91,1c4.69,5.41,26.47,30,39.84,36.41,13,6.17,16.54,23.74,18.92,33.19.39,1.53.74,2.85,1.11,3.87A34.32,34.32,0,0,0,2403,950.33Z"/><path class="cls-21" d="M2786.94,1770.26c-49.09,19.24-74.33-34.4-85.21-72.66-.1-.36-.21-.72-.3-1.06-15.4-54.94-34.57-110.41-47-165.21-.15-.68-.3-1.36-.46-2-9.78-43.82-19-87.79-27.25-131.93l-55.24,151.81c-20.68,56.82-43.34,119.12-60.71,166.87-13.39,36.77-23.63,64.91-27.43,75.35l-1.6,4.4s-103,65.58-104.62,55c-.32-2,3.38-23,9.54-55.49,6.28-33,15.11-78,24.9-127.18,14.53-73,31.15-155.31,44.56-221.43,14.75-72.62,25.62-125.75,25.62-125.75s15.93-7.67,40.33-17.13c78.09-30.26,243-78.9,249.91,46.73q.32,5.61.64,11.21c2.86,48.56,6.91,96.29,11.59,140.63,6.37,60.5,13.93,114.69,21.24,156h0c5.08,28.69,10.05,51.2,14.43,65.35C2826.93,1746.39,2805.52,1763,2786.94,1770.26Z"/><path class="cls-22" d="M2786.94,1770.26c-49.09,19.24-74.33-34.4-85.21-72.66,19.12,18.38,42,36.76,65.52,34.73,29.71-2.56,34.13-41.23,38.22-73.91,5.08,28.69,10.05,51.2,14.43,65.35C2826.93,1746.39,2805.52,1763,2786.94,1770.26Z"/><path class="cls-22" d="M2510.79,1716c-13.39,36.77-23.63,64.91-27.43,75.35-1.9.63-3.81,1.22-5.7,1.81-26,8-54.15,13.94-80.25,6.17a76.81,76.81,0,0,1-10.73-4.08c6.28-33,15.11-78,24.9-127.18a23.07,23.07,0,0,1,6.26,6.68,92.21,92.21,0,0,1,10.67,23c2.57,8.42,3.94,17.2,7.1,25.42,11.61,30.24,33,28.49,52.88,8.87C2495,1725.65,2502.84,1720.73,2510.79,1716Z"/><path class="cls-21" d="M2532.37,1120.24c1.39,4.48,3.33,8.9,6.49,12.37,3.34,3.69,7.86,6.1,12.46,8,26.18,10.84,58.11,6.26,80.19-11.49,11-8.86,20-21.89,19.27-36-.67-13.42-10-25.18-21.41-32.29s-24.7-10.38-37.76-13.53c-4.06-1-8.25-2-12.39-1.35-8.37,1.26-14.76,7.71-23.08,9.35-8.88,1.75-12,3.13-17.17,11.75A66.36,66.36,0,0,0,2532.37,1120.24Z"/><path class="cls-4" d="M2643,1205.88q4.47,7.23,8.79,14.55c5.05,8.55,5.19,8.35,7,18.11,1.57,8.42,3.09,18.16,1.33,26.64-1.5,7.18-8.67,19.87-16.93,10.08-1.64-1.94-2.37-4.48-3.7-6.65-2.47-4-11-10.88-15.08-13.16-7.35-4.18-16.45-10.06-18.18-19-.69-3.53,0-7.18-.14-10.77s4.25,2.22,1.18.34a18.54,18.54,0,0,0-3.59-16.74c-3.08-3.65-7.62-6.14-9.7-10.44-1.58-3.25-1.5-7-1.19-10.64a3.47,3.47,0,0,1,.69-2.17,3.61,3.61,0,0,1,2.47-.8l7.05-.45C2612.85,1197.43,2634.53,1192.23,2643,1205.88Z"/><path class="cls-11" d="M2369.34,1021.82l-4-1.16c-4.54-1.31-9.39-2.82-12.29-6.54s-2.38-10.37,2.07-12c2.44-.87,5.9-.4,6.92-2.79.59-1.4-.14-3-.81-4.35-2.36-4.77-4-11.11-.27-15,1-1.07,2.35-1.79,3.47-2.76a10.51,10.51,0,0,0,3.58-8.07,51.08,51.08,0,0,1,22.32,20.23,28.46,28.46,0,0,1,4.48,13.34c.18,4.73-1.52,9.69-5.19,12.7S2373.89,1023.13,2369.34,1021.82Z"/><path class="cls-11" d="M2735.09,676.38c1.2-9.49,2.54-18.53,1.77-25.16a82.85,82.85,0,0,0-1.58-9.06c-6.05-26.16-24.28-48.76-44.56-65.62-22.85-19-54.72-22.59-83.36-20.58-8.16.56-16.49,1.21-24,4.38a32,32,0,0,0-6.62,3.74,25,25,0,0,0-8.1,9.63,19.21,19.21,0,0,0-1.33,4,20.27,20.27,0,0,0-.36,2.58c-.78,9.49,4.82,20.08,8.31,28.9l.24.63c3.91,10.26,4.46,21.38,7.7,31.85,2.55,8.26,7,17.22,12.18,25.79a195.87,195.87,0,0,0,17.51,24.39c6.61,7.8,14.51,14.42,21.42,22,8.39,9.15,15.24,19.56,22.06,29.92l5.58,8.49q9.87,15,19.7,29.93l1.45,2.21c-.33-.83-.61-1.66-.87-2.5-3.83-13.35,4.22-27.5,9.82-39.53a19.2,19.2,0,0,0,4.6,6.54,23.52,23.52,0,0,0,8.79,5.24,33.93,33.93,0,0,0,15.75.9,55.77,55.77,0,0,0,6-1.31c-16.47-1.33-19.43-26.71-12-37.7,2.86,5.66,10,11.5,16.25,13.11,2.12.55,5.35-.43,8.43-1.75,4.32-1.85,8.36-4.37,8.68-4.26C2730.93,716.5,2732.69,695.53,2735.09,676.38Zm-42.66,65,.18-.37C2692.7,741.65,2692.61,741.67,2692.43,741.36Z"/><path class="cls-23" d="M2619.6,601.51c-2.47-4.65-13-28.63-4.18-32.48,2.31-1,7.61,2.58,9.65,3.45,7.51,3.21,15,6.09,21.28,11.49a80.92,80.92,0,0,1,19.78,24.94c4.6,9.2,6,19.8,8.91,29.57,2.63,8.88,9.86,17.91,17.31,23.32v.35c11.86,7.25,15.42,15.29,19.22,28.69,3.24,11.45,9,21.73,18,29.72,3.09,2.73,6.45,5.37,10.3,6.75-3.08,1.32-6.31,2.3-8.43,1.75-6.23-1.61-13.39-7.45-16.25-13.11-7.43,11-4.47,36.37,12,37.7a55.77,55.77,0,0,1-6,1.31c-5.34-1.71-11-9.09-13-13.05-3.54-7.24-6.6-16.18-5.62-24.27-2.81,10.29-6.65,21.12-6,31.18a19.2,19.2,0,0,1-4.6-6.54c-5.6,12-13.65,26.18-9.82,39.53l-.58.29q-9.84-15-19.7-29.93c-.22-2.14-.35-4.29-.37-6.45-.14-10.46,2.47-21.31,9.24-29.27,1.82-2.15,3.93-4.07,5.42-6.47,4.73-7.57,2.1-17.33.27-26.08a121,121,0,0,1-2.53-21.23C2650.63,648.5,2632.5,625.86,2619.6,601.51Z"/><path class="cls-21" d="M2702.86,811.22c-5.93,10.41-12,18.43-16.5,29.77-4.76,12.14-9.46,24.4-16.27,35.58-13.4,22.15-31.15,41.9-53.62,55-3.19,1.87-6.89,3.65-10.44,2.63-4.92-1.39-6.87-7.21-8-12.21a310.17,310.17,0,0,1-5.37-92.45c7.1-4.47,14.7-10.12,17.8-17.9q.3-.75.57-1.5c.56-1.54,1.07-3.1,1.48-4.67l.07-.22c2.3-8.47,2.76-17.36,2.38-26.31-.29-7.09-1.1-14.22-1.93-21.23,12.41-10.86,21.34-22.2,33.77-33.07,8.87-7.76,16.56-16.41,27-22.17-2.82,1.7-.22,26.72,0,30.36.31,4.55.78,9.08,1.46,13.59a126.6,126.6,0,0,0,3.72,17,241,241,0,0,0,8.53,25.35h0c.52,1.26,1.08,2.5,1.67,3.73q.38.83.78,1.65C2693.43,801.16,2697.63,807.34,2702.86,811.22Z"/><path class="cls-22" d="M2675.29,746.47a151,151,0,0,1-14.84,10.72c-14.21,9-29.68,15.83-45.44,21.8-.29-7.09-1.1-14.22-1.93-21.23,12.41-10.86,21.34-22.2,33.77-33.07,8.87-7.76,16.56-16.41,27-22.17-2.82,1.7-.22,26.72,0,30.36C2674.14,737.43,2674.61,742,2675.29,746.47Z"/><path class="cls-21" d="M2694.9,708.75C2686.09,733,2674,720.87,2674,720.87c-7.16,14.86-12.66,20.37-34.15,38.55s-34.69,22-59.47,0a88,88,0,0,1-14.11-17c-.34-.5-.66-1-1-1.5a200.58,200.58,0,0,1-11.35-20.19c-.35-.72-.71-1.44-1.07-2.16-2.26-4.64-4.33-9.24-6.19-13.57-6.5-15.17-10.37-27.12-10.37-27.12a32.71,32.71,0,0,1-2-10.15c-1.19-22.44,15.41-51.52,22.27-62.48,1.77-2.84,2.89-4.46,2.89-4.46a242.51,242.51,0,0,1,78.2,0c8.74,1.52,15.57,6.25,20.87,12.75,19.8,24.24,18.78,73.15,18.78,73.15a22.17,22.17,0,0,1,1.83-3.92c1.8-3.06,4.89-6.53,9.17-4.89C2695.45,680.66,2703.71,684.52,2694.9,708.75Z"/><path class="cls-22" d="M2679.11,682.8a105.76,105.76,0,0,0-1.34,18.67c-10.84-.7-20.22-12.71-26.82-20.3s-6.35-14.37-18.73-10.43a42.56,42.56,0,0,1-20.35,1.49c-10.79-2-20.37-10.25-24.68-20.12-3.42-7.85-5-14.76-6.41-23a29.58,29.58,0,0,0-3.42-10c-.91-1.52-5.58-5-5.81-6.09a257.91,257.91,0,0,1,4,26.53c.47,4.86.8,9.81-.2,14.58-1.1,5.21-3.7,9.94-6.28,14.57-2.89,5.22-6.17,10.13-10.79,13.84A31.2,31.2,0,0,0,2546.66,705c-6.5-15.17-10.37-27.12-10.37-27.12a32.71,32.71,0,0,1-2-10.15,69.85,69.85,0,0,1,5.43-13.86c7-13.51,18.53-26.3,17.24-41.49a39.29,39.29,0,0,1-.4-7.13c1.77-2.84,2.89-4.46,2.89-4.46a226.34,226.34,0,0,1,37.93-3.17c5,1.88,10.79,2,16.24,2.51a116.18,116.18,0,0,1,44.9,13.41c19.8,24.24,18.78,73.15,18.78,73.15A22.17,22.17,0,0,1,2679.11,682.8Z"/><path class="cls-5" d="M2598.16,744c-1.23,5.68,6.5,7.55,10.64,7.69,4.68.16,12.72-4.92,11-10.64-1.16-3.8-7.09-4.77-10-2.68-.92.66-3.67,2.86-2.07,4.06C2605.16,740.46,2599.05,739.87,2598.16,744Z"/><g class="cls-24"><path class="cls-5" d="M2584.56,683.22c.15,5.49-1.59,10.95-1.9,16.33-.34,5.78-2.17,10.84-4.31,16.1-2.8,6.84-.3,10.93,5.07,15a.78.78,0,0,1,.51,0c-2.28-4.23-3.28-9-1.73-13.72.44-1.33,1.06-2.6,1.58-3.9,2.51-6.35,2.38-13.43,1.61-20.22Z"/></g><path class="cls-11" d="M2585,681c.16,5.62.28,11.17.07,16.65a64.84,64.84,0,0,1-.8,8.08,24.12,24.12,0,0,1-2.09,6.79c-3.09,5.7-6.34,11.79-.36,17.16,2.92,2.62,6.61,3.32,10.1,1.43-3.79.77-9.38-1.63-10.78-5.48s-.3-8,1.57-11.31c4-7.11,4.22-14.3,3.89-22.2C2586.43,688.34,2585.09,684.74,2585,681Z"/><path class="cls-11" d="M2603,679.32c1-2,4.76-6,4.76-6l.1-3.57,1.57,3.11s2.9,0,7.36-.33a110,110,0,0,1,12.44.38l-17.25,2a8.86,8.86,0,0,0-3.49,1.17Z"/><path class="cls-11" d="M2608.34,683.39c1.2,3.54,4.39,5.65,7.12,4.72s4-4.55,2.77-8.08-4.39-5.65-7.12-4.72S2607.14,679.86,2608.34,683.39Z"/><g class="cls-25"><path class="cls-26" d="M2604.85,683.14c.24.69,1.57.85,3,.37s2.37-1.42,2.14-2.11-1.57-.85-3-.37S2604.62,682.46,2604.85,683.14Z"/></g><path class="cls-11" d="M2645.82,661.21c-7.07-3.49-15.63-6.62-23.33-5.31-8.78,1.5-14.68,4.51-22.7,7.14-2.1.69-1.8,3.64-.08,4.58s3.63-.36,5.13-1a69.48,69.48,0,0,1,15.23-4.67,66.51,66.51,0,0,1,10-1.29c3.76-.24,12.37-.61,16.74,1.08A6.07,6.07,0,0,0,2645.82,661.21Z"/><path class="cls-11" d="M2570,689.74a49.22,49.22,0,0,0-6.35-4.22l-1.9-3.38.52,3.49s-2,.91-5.22,2.06a58,58,0,0,0-8.33,4.4l12.86-3.66a5.86,5.86,0,0,1,3,0Z"/><path class="cls-11" d="M2568,694.71c.32,3.29-1.27,5.74-3.56,5.49s-4.41-3.11-4.73-6.39,1.27-5.74,3.56-5.49S2567.69,691.43,2568,694.71Z"/><path class="cls-11" d="M2543.69,688.15c.61-3.78,2.65-10.18,7.35-11.76a143.23,143.23,0,0,1,14-3.84c1.35-.33,2.34,2.12,2,3.21s-1.81,1.09-2.74,1.42c-3.2,1.1-6.3,1.88-9.39,2.78a13.54,13.54,0,0,0-5.22,2.18c-1.84,1.2-5.38,4.52-6.18,6.73A3.49,3.49,0,0,1,2543.69,688.15Z"/><g class="cls-24"><ellipse class="cls-5" cx="2639.01" cy="705.69" rx="21.25" ry="13.83" transform="translate(-92.72 699.02) rotate(-14.83)"/></g><g class="cls-24"><path class="cls-5" d="M2565.27,741a200.58,200.58,0,0,1-11.35-20.19c-.35-.72-.71-1.44-1.07-2.16,9.12-.75,16.87,2.75,18.51,8.9C2572.58,732.1,2570.08,737.12,2565.27,741Z"/></g><g class="cls-25"><path class="cls-26" d="M2557.22,695.42c.36.7,1.82.67,3.27-.08s2.32-1.91,2-2.61-1.82-.67-3.27.08S2556.86,694.72,2557.22,695.42Z"/></g><path class="cls-11" d="M2594,746.15a48.32,48.32,0,0,0,8.57-1,41.49,41.49,0,0,0,7.91-2.63,41,41,0,0,0,7.2-4.2,48.41,48.41,0,0,0,6.41-5.76,19.53,19.53,0,0,1-4.8,7.62,24.56,24.56,0,0,1-7.52,5.21,24.88,24.88,0,0,1-8.88,2.19A19.75,19.75,0,0,1,2594,746.15Z"/><path class="cls-27" d="M2611.38,748.65a1.1,1.1,0,0,1-.29-.68c-.12-.92.77-1.73,1.42-2.23s4.39-2.6,4.57-.54c.09,1.07-1.38,2.11-2.17,2.55S2612.16,749.41,2611.38,748.65Z"/><path class="cls-11" d="M2677.9,702.73l-.15-.06c-8.27-3.13-16.69-8.83-21.1-16.78-2-3.55-9.62-23.08-6.36-26.56-2.2,2.35-2.08,1.49-3.62.75a6.83,6.83,0,0,0-2.35-.59,26.87,26.87,0,0,1-5.69,2.73,55.52,55.52,0,0,1-14.48,2.85c-7.55.51-15.15-.3-20.21-2.69-12.18-5.76-19.7-24.89-22.14-37.48-.84-4.35-.71-7.56-3.14-11.68a29.47,29.47,0,0,0-3.2-3.44c-2.48-2.44-5.45-5.23-5.45-5.34,0,.09,0,.2,0,.29-1.12,23,3.68,42.72-12.51,62.53-5.17,6.33-11.67,11.68-15.21,19.11-4.38,9.16-3.11,16.85.59,23.8,5.13,9.64,14.93,17.83,20.84,26.48,3.25,4.75,10.4,17.27,6.54,23.31-5.43,8.5-13.76-1.73-17.52-.07a11.85,11.85,0,0,0,5.84-5.23c3.45-6.39.37-15.62-6-20.17-3.62-2.61-8-3.8-11.81-6.09a27.48,27.48,0,0,1-4.65-3.58c-10.15-9.57-16-27.55-18.06-39.89-2.68-16.37.2-33.52,4.28-48.91,3.1-11.68,7.8-22.29,12.86-33.18,3.81-8.21,5.78-17.66,13.43-23.33a28.14,28.14,0,0,1,4.11-2.52,33.16,33.16,0,0,1,15.82-3.28,39.78,39.78,0,0,1,8.68,1.19c7-10.42,21.46-12,32.32-8.74,36.51,11.08,65.05,51.22,64,90.33-.4,14.52-1.39,27.61,2.64,41.21.47,1.62,1,3.24,1.66,4.88A.66.66,0,0,0,2677.9,702.73Z"/><path class="cls-4" d="M2758.55,834.05c-30.11,16.38-43.89,57.65-47.74,89.75"/><path class="cls-28" d="M2784.23,1502.37a837.32,837.32,0,0,0-117.17,25.07c-4.2,1.22-8.43,2.49-12.61,3.89-.15-.68-.3-1.36-.46-2-9.78-43.82-19-87.79-27.25-131.93l-55.24,151.81a184.55,184.55,0,0,0-72.68-80.25c-13.7-8.08-28.7-14.56-42.68-22.24,14.75-72.62,25.62-125.75,25.62-125.75s15.93-7.67,40.33-17.13q10.17-2.52,20.52-4.19c56.61-9.13,115.55.6,168,23.84,22.26,9.88,43.71,22.4,62.07,38.29C2775.5,1410.3,2779.55,1458,2784.23,1502.37Z"/><path class="cls-29" d="M2789.34,1457.44c-6.2,16.93-199.9,17.76-351.9-54.52q11.83-35.58,22.74-71.48c11.64-38.2,27.46-73.75,35-113.32,3.95-20.71,11.49-40.34,16.12-61q.59-2.6,1.1-5.22c2.67-13.58,11.43-21.88,13.67-34.87,0-.08,0-.17,0-.26,16.47,1.49,32.15,6.59,48.39,9.26,26.76,4.41,55.89,8.18,82.64,1.82,48.74-11.56,84.23,67.33,101.38,114a249.34,249.34,0,0,1,7.74,27C2781,1330.72,2794.61,1443,2789.34,1457.44Z"/><g class="cls-30"><path class="cls-10" d="M2766.29,1268.85c-43.63,31.48-107,38.37-158.12,40.16-15,.54-102.44,6.33-97.88-26,.6-4.27,4.78-6.92,8.39-9.27,11.79-7.69,17.68-19.08,27.74-27.87,11.32-9.91,26-16.25,37.48-26.45,16.49-14.63,45-23.92,40.33-45.45-10.48-3.88-15.11-16.78-25.16-21.67-11.65-5.66-25.06,1.34-37.37,5.34a80.55,80.55,0,0,1-50.37-.53q.59-2.6,1.1-5.22c2.67-13.58,11.43-21.88,13.67-34.87,0-.08,0-.17,0-.26,16.47,1.49,32.15,6.59,48.39,9.26,26.76,4.41,55.89,8.18,82.64,1.82,48.74-11.56,84.23,67.33,101.38,114A249.34,249.34,0,0,1,2766.29,1268.85Z"/></g><path class="cls-11" d="M2519.15,1712.27q-2.94,11.57-6.32,23c-7.2,24.36-15.79,48.23-24.94,71.9-.07.18-.13.36-.21.54-.75,2-1.51,3.9-2.28,5.85-4.68,12-9.49,23.93-14.32,35.86-5.86,14.54-11.77,29.06-17.48,43.65-1,2.65-2.08,5.29-3.11,8h0q-3.16,8.18-6.22,16.39h0c-6.17,16.51-12,33.15-17.13,50-.45,1.47-.9,3-1.34,4.41-1.27,4.17-2.49,8.31-3.68,12.45-4.19,14.5-8,28.86-11.19,43.27a482,482,0,0,0-11.8,85.85l-56.67-6.77,3.22-26.44s-103.34,3.31-151.56-14.9c-28.43-10.72-44.83-31.18-46.44-45.15-1.14-9.73,4.92-16.33,19.11-14.29,7,1,17.08,1.23,28.89.66,4.23-.2,8.7-.5,13.33-.9a397.65,397.65,0,0,0,59.83-9.83c21.88-5.41,42-12.84,54.89-22.29a53.33,53.33,0,0,0,6.27-5.34l.48-.48a35.63,35.63,0,0,0,3.46-4.18c2.74-3.91,5.8-11,9.06-20.34,1.58-4.54,3.2-9.64,4.87-15.18q1.74-5.81,3.52-12.26c1.66-5.94,3.33-12.27,5-18.88h0c3.9-15.29,7.87-32.12,11.77-49.51.07-.29.14-.58.2-.87,1.09-4.84,2.16-9.73,3.24-14.64,1.58-7.26,3.14-14.57,4.68-21.84a.19.19,0,0,1,0-.07c15-71,27.11-139.29,27.11-139.29.4.68.79,1.36,1.17,2.05,20.06,36.15,19.06,81.45,46.67,92C2479.37,1775.39,2521.15,1704.4,2519.15,1712.27Z"/><path class="cls-11" d="M2990.82,2028.27a460.31,460.31,0,0,1-45.43,41.17q-7.18-8.36-14.38-16.72c-22.22,19.73-39.73,40.25-62.13,57.94a204,204,0,0,1-24.14,16.49c-22.69,13.13-54.14,23.78-80.62,18.79-3.18-.6-8.91-3.08-14.84-6.57l-1.1-.66c-7.9-4.8-15.9-11.29-18.54-17.43-1.74-4.05-1.14-8,3.37-11.1a22.69,22.69,0,0,1,4.43-2.34c15.58-6.35,32-15.53,46.69-25.31l.86-.58.36-.25c3.49-2.33,6.87-4.7,10.12-7.06l0,0a84.62,84.62,0,0,0,11.37-10.22,148.24,148.24,0,0,0,14.12-17.48c7.36-10.58,13.71-22.33,17.45-33.2l.23-.69a62.51,62.51,0,0,0,3.13-14.07c.16-1.86.25-3.73.25-5.57a67.5,67.5,0,0,0-.55-8.67c-.16-1.4-.37-2.78-.61-4.15a87.94,87.94,0,0,0-2.71-10.86,120.88,120.88,0,0,0-6.56-16.36c-2.91-6.16-6.24-12.21-9.71-18.13-2-3.45-4.07-6.86-6.1-10.24-2.19-3.66-4.38-7.26-6.45-10.81-1-1.68-1.94-3.33-2.87-5q-3.12-5.55-6.32-11.07c-3.39-5.89-6.86-11.74-10.36-17.58-.36-.59-.71-1.19-1.08-1.78q-9.74-16.21-19.83-32.2-8.43-13.5-17-26.93l-.92-1.45c-2.08-3.29-4-6.63-5.92-10-4.53-8.16-8.55-16.6-12.54-25.08-6.66-14.21-13.14-28.6-21.51-42.2-2.54-4.15-6.3-13.86-10.42-21.77-2.89-5.54-6-10.19-8.94-11.44.6.25,5.39-.52,6-.22,23.48,11.26,65.76,58.14,90.7,45.46,24-12.21,23.69-62.92,21.73-92.32a1.05,1.05,0,0,1,2.06-.36c2.51,8.54,5.68,17.48,9.31,26.8,4.65,12,10,24.6,15.68,37.74,3.8,8.86,7.71,18,11.59,27.29,7.91,19,15.66,39,22,59.74.21.65.41,1.31.61,2,0,.11.06.22.1.33.92,3.05,1.87,6.08,2.84,9.11a555.4,555.4,0,0,0,31.63,77.7q9.11,18.34,19.62,36.09,5.13,8.64,10.56,17.16c.67,1,2.66,4.09,5.5,8.39.14.2.28.41.41.62C2955.77,1983.84,2987.86,2031.23,2990.82,2028.27Z"/><path class="cls-21" d="M2650.49,1240.18c.39,3.25-17.69,17.48-20.08,19.89-1.88,1.88-3.74,3.7-5.63,5.44-2.88,2.68-5.81,5.21-8.93,7.73-5.85,4.69-9.68,12.09-16.22,15.86-14.33,8.23-31.72,8.39-47.83,9.7-5.28.43-23,4.2-27.36,0-1.46-1.42-1.85-6.44-3.75-8.71-2.47-2.94-5.25-4.4-6.26-8.53-.75-3.13,2.16-7.25,1.49-9.41-5.24-16.8,2.75-24.23,2.75-24.23s1.92,4.68-3.3-11,0-22.57,0-22.58c3.32-4.37,8.78,6.37,9.53,7.79a38.43,38.43,0,0,0,4.17,6.3,23.9,23.9,0,0,0,8.44,6.61,20.15,20.15,0,0,0,8.17,1.37,117.29,117.29,0,0,0,25.83-2.41,13.32,13.32,0,0,1-5.49-.82c-5.19-1.53-11.95-4.7-14.14-6.45a41.85,41.85,0,0,1-10.08-12.39c9.91-14.31,32.77.27,40.2,0,5-.18,17.25-5.32,24.77-8.66,3.67-1.64,6.2-2.85,6.2-2.85C2643.94,1185.76,2650.49,1240.18,2650.49,1240.18Z"/><path class="cls-5" d="M2516.92,1246.3a24.29,24.29,0,0,1,3.26,3c1,1.07,1.88,2.16,2.75,3.29s1.67,2.3,2.43,3.52a23.69,23.69,0,0,1,2,3.95,15.41,15.41,0,0,1-3.74-2.51,23,23,0,0,1-5.31-7A15.24,15.24,0,0,1,2516.92,1246.3Z"/><path class="cls-5" d="M2517.47,1271.16a5.07,5.07,0,0,1,1.93,0,4.92,4.92,0,0,1,1.47.51,4.7,4.7,0,0,1,1.24,1,5,5,0,0,1,1,1.64,3.69,3.69,0,0,1-2,.37,4.07,4.07,0,0,1-1.64-.49,4.23,4.23,0,0,1-1.31-1.12A3.72,3.72,0,0,1,2517.47,1271.16Z"/><path class="cls-22" d="M2581.19,1234.41c-4,4.27-10,5.87-15.8,6.95-8.22,1.54-17.06,2.34-24.67-1.14a23.91,23.91,0,0,1-11.65-11.83,23.9,23.9,0,0,0,8.44,6.61,20.15,20.15,0,0,0,8.17,1.37,117.29,117.29,0,0,0,25.83-2.41,13.32,13.32,0,0,1-5.49-.82C2571,1233.84,2576.13,1234.13,2581.19,1234.41Z"/><path class="cls-22" d="M2650.49,1240.18c.39,3.25-17.69,17.48-20.08,19.89-1.88,1.88-3.74,3.7-5.63,5.44a124.3,124.3,0,0,0-7.28-40.41c-2.51-7-5.86-14-10.73-19.46,3.67-1.64,6.2-2.85,6.2-2.85C2643.94,1185.76,2650.49,1240.18,2650.49,1240.18Z"/><path class="cls-22" d="M2690,794.2a91.32,91.32,0,0,1-50.83,23.87,56,56,0,0,1-6.8.44c-7.63,0-16-1.82-21.29-8.32.59-1.61,1.11-3.25,1.55-4.89a3,3,0,0,1,3,1c5.54,6.87,16.7,6.61,22.85,5.85a85.25,85.25,0,0,0,47.88-22.66,3,3,0,0,1,1.22-.7h0C2688.32,790.65,2689.13,792.45,2690,794.2Z"/><path class="cls-28" d="M2702.86,811.22c-5.93,10.41-12,18.43-16.5,29.77-4.76,12.14-9.46,24.4-16.27,35.58-13.4,22.15-31.15,41.9-53.62,55-3.19,1.87-6.89,3.65-10.44,2.63-4.92-1.39-6.87-7.21-8-12.21a310.17,310.17,0,0,1-5.37-92.45c7.1-4.47,14.7-10.12,17.8-17.9q.3-.75.57-1.5c.56-1.54,1.07-3.1,1.48-4.67a44,44,0,0,0,30.27,7.55c-3.34,3.42-8.66,3.65-13.43,3.89-3.94.2-7.89.55-11.81,1.07-10.48,1.38-7.14,30.22-7.5,38.18-.53,11.76,2.32,22.56,2.41,34.36,0,1.46.1,3.09,1.13,4.14,3.14,3.14,7.73-.79,10.08-2.92a233.48,233.48,0,0,0,27.7-30.57c8.2-10.65,14.08-22.84,23.34-32.67,4.95-5.24,17.79-15,17.13-23.28-.84-10.66-19.52-.33-24.49,2.57,2.92-3.17,6.6-5.53,10.23-7.86l11.6-7.43q.38.83.78,1.65C2693.43,801.16,2697.63,807.34,2702.86,811.22Z"/><path class="cls-11" d="M2632.59,816.4c-7.68,0-16.06-1.84-21.4-8.45a3,3,0,1,1,4.61-3.73c5.56,6.88,16.71,6.62,22.87,5.85a85.16,85.16,0,0,0,47.86-22.66,3,3,0,1,1,4.09,4.3A91.19,91.19,0,0,1,2639.4,816,56.48,56.48,0,0,1,2632.59,816.4Z"/><path class="cls-8" d="M2702.86,811.22l-25,215-24,49.55a216.36,216.36,0,0,1-43.69,7.86h0c-15.06,1.14-32.2.75-48.34-3.49-11.16-2.93-21.86-7.71-31-15.1-44.2-35.52,3.41-141.26,3.41-141.26s28-69.88,60.29-100.66a60.19,60.19,0,0,1,16-11.44c-5.16,2.35-9.24,27.43-10.32,32.33-1.81,8.2-1.13,17.57-1,25.9.1,10.43-1.3,26.75,2.65,36.4,6.67,16.38,25.28-9.58,30.22-15.12,11.85-13.34,23.15-27.4,32.58-42.58a113.75,113.75,0,0,1,25.35-28.8A74.1,74.1,0,0,1,2702.86,811.22Z"/><path class="cls-22" d="M2360.55,927.36c-2.08,5.34-1.91,11.72,1.09,16.57l-23.4-8.77a.75.75,0,0,1-.07-.12c6.2-1.15,14.48-3.84,19-8.5.9-.92,5.23-11.2,3.9-11.29-.58,0-1.17-.08-1.75-.1l-.23,0c-8.25-.65-16.93-2.66-24.65.8-.24.12-.49.23-.73.36-3,1.48-4.86,3.06-8.21,4-.45.12-1.11.22-1.91.34-3.35.44-8.94,1-9.77,3.28a87.66,87.66,0,0,1,3.95-9.19,84.34,84.34,0,0,1,6.75-11.11c.82-1.13,3.76-4.53,6.17-8.11,5.31-7.94,1.8-14.17-.91-22.53a41.82,41.82,0,0,1-1.21-4.42,17.08,17.08,0,0,1,5.45-5.18s.33.37.91,1a76.15,76.15,0,0,0,8.93,27.23c6.73,12.14,15.71,17.26,28.5,22.19C2367.22,917.08,2362.76,921.68,2360.55,927.36Z"/><path class="cls-22" d="M2357.15,926.54c-4.5,4.66-12.78,7.35-19,8.5-1.64-3.17-2.53-6.85-3.6-10.31a72.28,72.28,0,0,0-8.76-18.47c-2.48-3.74-5.36-7.34-6.69-11.63s-.68-9.6,2.91-12.29c4.76-3.57,8.27-.61,11.38,3.46-.8,5.81-4.24,11.76-7.56,15.64-.17.19,0,.58.39,1.13,2,2.75,9.7,9.23,10,11.17.18.74,8.54.4,9.28.41l1.35,0c4.82.16,9.39.84,14.15,1.07C2362.38,915.34,2358.05,925.62,2357.15,926.54Z"/><path class="cls-22" d="M2363.32,947.81q-5.91-1.62-11.77-3.44c-3.68-1.14-7.47-2.41-10.26-5.06a15.83,15.83,0,0,1-3.05-4.15l23.4,8.77a8.92,8.92,0,0,0,.58.88l2.42,2.07C2365.33,947.28,2364.09,948,2363.32,947.81Z"/><polygon class="cls-31" points="2523.65 894.71 2418.27 614.82 2290.44 798.87 2345.58 920.64 2523.65 894.71"/><path class="cls-29" d="M2287.48,805.84c10.79,24,55.7,125.42,55.7,125.42l9.82-5.9-56.09-123.77a5.17,5.17,0,0,0-6.47-2.73h0A5.17,5.17,0,0,0,2287.48,805.84Z"/><path class="cls-21" d="M2421.75,966.48l-6.08,12.39C2409,992.35,2399.29,1012,2399,1012c-.37-.17-17.26,0-17.26,0s-6.26-17.48-13.4-31.11c-3.75-7.12-7.74-13.18-11.2-15.14-10.1-5.69-43.5-12.12-44.79-23.14,0,0-2-9.72,0-13.58,0,0-11.38-5.14-10.28-9.91s2.94-12.85,2.94-12.85-9.74-9.54-9.91-13.95c0,0-.92-18,1.83-24.6,2.33-5.61,6.93-9.86,11.83-13.24,3.13-2.14,8.52-6,11.69-2.58,1.71,1.86,2,4.38,1.73,6.89a29.68,29.68,0,0,1-1.06,5c-1.3,4.53-2,9.72-3.79,14,.26-.61,2.81-1.51,4.84-2.15h0c1.06-.32,2-.56,2.34-.65a13.9,13.9,0,0,1,1.53-.27c2.25-.28,4.71,0,5.95,2.23a13.94,13.94,0,0,1,1.42,8.87,40.81,40.81,0,0,1-2.74,9.65c-2.41,3.58-5.35,7-6.17,8.11a83,83,0,0,0-10.7,20.3c1-2.88,9.34-3,11.68-3.62,3.35-.9,5.24-2.48,8.21-4,.24-.13.49-.24.73-.36a123.84,123.84,0,0,1,24.65-.8l.23,0c.58,0,1.17.06,1.75.1,1.33.09-3,10.37-3.9,11.29-4.5,4.66-12.78,7.35-19,8.5l-.18,0,.25.09,23.4,8.77,23.12,8.68,16.61,6.23,10.7,4Z"/><path class="cls-5" d="M2346.15,914.26c-2.49.89-5,1.6-7.43,2.3s-4.92,1.38-7.38,2.06-4.9,1.36-7.39,2-5,1.32-7.56,1.82a35.83,35.83,0,0,1,6.82-3.91,48.44,48.44,0,0,1,7.38-2.65,49.16,49.16,0,0,1,7.7-1.49A36.22,36.22,0,0,1,2346.15,914.26Z"/><path class="cls-5" d="M2327.06,897.85a19.08,19.08,0,0,1-1.59,4.56,29.69,29.69,0,0,1-2.4,4.08,30,30,0,0,1-3,3.65,19.39,19.39,0,0,1-3.76,3,24.92,24.92,0,0,1,2-4.38q1.15-2,2.49-3.94a45.37,45.37,0,0,1,2.87-3.67A24.8,24.8,0,0,1,2327.06,897.85Z"/><path class="cls-22" d="M2322.16,875.62a67.48,67.48,0,0,1-4.26,5.24q-7.67,8.1-15.31,16.18c2.11-12.32,7.24-31.92,19.58-38.25a29.68,29.68,0,0,1-1.06,5c-1.3,4.53-2,9.72-3.79,14C2317.58,877.16,2320.13,876.26,2322.16,875.62Z"/><path class="cls-5" d="M2319.79,877.72a37.36,37.36,0,0,1-3.14,5.7c-1.16,1.8-2.43,3.52-3.76,5.2a60.12,60.12,0,0,1-4.24,4.8,37.38,37.38,0,0,1-4.87,4.32,37.36,37.36,0,0,1,3.14-5.7,62.49,62.49,0,0,1,3.76-5.2c1.34-1.66,2.74-3.27,4.25-4.8A38.73,38.73,0,0,1,2319.79,877.72Z"/><path class="cls-2" d="M2566.29,1009.44l2.07,16.61c.74,5.5,1.53,11,2.53,16.43l.75,4.08.84,4.07.89,4c.34,1.34.66,2.69,1,4,1.34,5.38,2.88,10.71,4.55,16.07a84.4,84.4,0,0,1-6.77-15.42c-.43-1.34-.86-2.68-1.26-4l-1.1-4.07-.95-4.12L2568,1043a137,137,0,0,1-1.92-16.75A119.55,119.55,0,0,1,2566.29,1009.44Z"/><path class="cls-2" d="M2592.51,1024.86c.71,3.69,1.21,7.37,1.72,11l1.49,11,1.45,11c.47,3.67.95,7.35,1.24,11.1a69.77,69.77,0,0,1-3.52-10.67,98,98,0,0,1-2.1-11,99.79,99.79,0,0,1-.86-11.19A71.27,71.27,0,0,1,2592.51,1024.86Z"/><path class="cls-2" d="M2607.45,939.54c-1,4.05-2,8-3.07,12s-2,7.91-2.94,11.89l-.71,3-.67,3-1.32,6c-.85,4-1.67,8-2.62,12.06a71.69,71.69,0,0,1,.34-12.43c.19-2.06.53-4.11.85-6.16s.79-4.07,1.24-6.1a102,102,0,0,1,3.63-11.89A73.57,73.57,0,0,1,2607.45,939.54Z"/><path class="cls-2" d="M2593.09,900.78c-1.65,6.62-3.43,13.17-5.18,19.72s-3.48,13.1-5.14,19.66l-1.28,4.92-1.23,4.93-2.47,9.86c-1.63,6.58-3.23,13.17-5,19.76a202.63,202.63,0,0,1,2.73-20.25c.58-3.35,1.3-6.68,2-10s1.55-6.63,2.37-9.94c1.72-6.59,3.62-13.13,5.81-19.59S2590.28,907,2593.09,900.78Z"/><g class="cls-17"><path class="cls-2" d="M2601.58,834.94c-5.47,11.88-11,24.21-11.2,37.29-.08,7,1.42,14.14.4,21.12-1.1,7.52-5,14.27-8.47,21-5.78,11.43-10.33,22.17-16.85,32.87-8.26,13.59-3,26.5-6.2,40.48-1.4,6.08-6,8.13-10.09,12.72-19.37,21.6-6.34,45.65,5.21,67.25a105,105,0,0,0,7.45,12.45c-11.16-2.93-21.86-7.71-31-15.1-44.2-35.52,3.41-141.26,3.41-141.26s28-69.88,60.29-100.66Z"/></g><g class="cls-17"><path class="cls-2" d="M2702.86,811.22l-25,215-24,49.55a216.36,216.36,0,0,1-43.69,7.86,44,44,0,0,0,9.86-14.53c9.37-22.28,1.27-48.28,7.18-71.72,3.47-13.77,11.75-26.63,11.19-40.8-.27-6.65-2.49-13.1-2.73-19.74-.28-8.14,2.44-17.83,6.4-25,4.36-7.81,10.32-12.6,10.45-22.42,0-2.72-.34-5.48.24-8.14,1.52-7,8.71-10.92,14.51-15.16,14.45-10.56,23-28.53,22.67-46.35A74.1,74.1,0,0,1,2702.86,811.22Z"/></g><path class="cls-11" d="M2785,830.67a99.72,99.72,0,0,0-16.13,7.85A111.63,111.63,0,0,0,2724,890.23c-7.37,17.33-7.49,33-7.4,51.53.14,31.85-3.8,62.87-4.55,94.32l3,16.35a224.87,224.87,0,0,1-74.12,93.77c-1.74-2.49-3.11-5.28-4.72-7.86l-.13-.22a20.92,20.92,0,0,0-5.79-6.33,10.81,10.81,0,0,0-4.34-1.77,3.06,3.06,0,0,1-2.16-.83,2.54,2.54,0,0,1,0-2.44c.68-1.71,1.8-2.46,3-3.87,3.85-4.54,9.79-31.8,5.66-40.47s7.84-32.63,3.36-44.84-12-14.64,0-41.93,11.92-16.49,11.4-28.88-7.33-14.47,0-21.48,4.24-14,0-21.48,2.18-12,10.52-17.35-.48-11.17,0-27.53,21-5.51,29.23-13.76-.54-24.17,7.44-46.63c2.84-8,3.61-12.45,3.45-14.92,3.21,1.66,8.3,4,14.58,6.45a213.91,213.91,0,0,0,26.58,8.47C2755.77,822.62,2774.27,826.32,2785,830.67Z"/><path class="cls-11" d="M2740.61,1051.84c-2.91,10.34-12.25,23.19-19.71,30.76-17.87,18.13-34,38-52.76,55.23-4.56,4.19-9.28,8.87-14.46,12.3a11.39,11.39,0,0,1-5.54,2.12,12.94,12.94,0,0,1-4.38-2.67c-.25-.23-.5-.47-.73-.72s-.33-.35-.49-.53-.34-.39-.51-.6-.4-.51-.59-.76-.38-.51-.56-.77c-1.74-2.49-3.11-5.28-4.72-7.86l-.13-.22a20.92,20.92,0,0,0-5.79-6.33,99.26,99.26,0,0,0,34.68-20.16c6.41-5.74,12-9.61,15.77-17.7s5.11-16.92,5.91-25.69c1-10.9,1.82-21.93,2.72-33a231.57,231.57,0,0,1,8.39-45.53l19.12-65.92,3.12-10.75C2726.55,959.33,2748.87,1022.51,2740.61,1051.84Z"/><path class="cls-22" d="M2415.67,978.87C2409,992.35,2399.29,1012,2399,1012c-.37-.17-17.26,0-17.26,0s-6.26-17.48-13.4-31.11c4.19-.85,8.18-2.15,10.56-4.12l.08-.06c6.24-5.28,4.66-16.63,5.79-24.1,0-.27.07-.54.12-.8a36.94,36.94,0,0,1,8.79-17.84c.39,1.53.74,2.85,1.11,3.87a34.32,34.32,0,0,0,8.25,12.49l-1.66,8.51,10.7,4A53.24,53.24,0,0,1,2415.67,978.87Z"/><path class="cls-11" d="M2610.51,811.7c-6.24,3-6.25,9.56-9.62,14.25-3,4.18-7.56,6.12-11.5,8.91a20.76,20.76,0,0,0-4,3.6c-3.76,4.51-4.69,13.17-4,18.72,1,7.94,5.94,20.9-1.59,27.28-3.71,3.13-7.17.59-10.89,2.44-13.35,6.65,3.06,16.82-3.38,24-1.25,1.38-3.27,1.86-4.56,3.2-4.26,4.41,2.8,11.81.79,17.61-1.71,4.95-8.74,5.66-11.79,9.91-4.34,6,1.7,14,2.75,21.33,1.62,11.41-8.91,20.38-14.88,30.26a42.89,42.89,0,0,0-4.16,9.22c-3.1,9.68-3.06,20.42-.88,30.44,2.91,13.33,9.29,25.65,16,37.52,3.19,5.63,6.55,11.42,7.31,17.85s-2.24,14-6.58,18.74c-4,4.31-11.42,5.56-13.35,11.69-2,6.34,4.17,13.28,1.85,19.5-2.85,7.63-11.94,6.75-17.25,3.38a11.76,11.76,0,0,1-2.71-2.62c-1.36-1.69-2.64-3.56-4.52-4.62-.88-.49-5.61-1.35-8-1.63-.89-.11-1.46-.13-1.34,0a3.39,3.39,0,0,1,.91,1.44,2,2,0,0,1-.06,1.25,6.62,6.62,0,0,1-.77,1.34c-1.62,2.17-4.31,2.37-6.78,2.27a33.25,33.25,0,0,1-15.93-4.94,26.59,26.59,0,0,1-10-11,69.18,69.18,0,0,0,7.28-3.57c5-2.85,9.88-6.64,11.9-11.22-8.38-6.4-16.34-13.3-24.24-20.27-7.39-6.53-14.75-13.14-22.38-19.43-21.87-18-46.45-34.6-74.34-41.38-3.89-.94-7.86-1.93-11.17-4.15s-5.9-6-5.59-9.95c5.19.56,10,6.95,14.39,4.19,2.6-1.62,2.4-4.79,2.17-8.11-.2-2.84-.43-5.78,1.06-7.94s3.88-2.76,6.52-3.08c1.66-.2,3.41-.26,5-.49,11.22-1.58,18.86-15.28,14.31-25.65-.88-2-2.11-3.83-3.14-5.76-.14-.24-.28-.49-.4-.74-2.58-5.12-4-13.1-1.55-18.56a6.51,6.51,0,0,1,4.41-3.92c1.88-.61,3.9-.89,5.6-3,4-4.84.76-12.23,1.38-17.86a8,8,0,0,1,1.8-4.82,3.77,3.77,0,0,1,4.84-.3c7.41,5.82,8.23,20.92,11.49,29,12.81,31.81,49.56,52.88,56.17,51.22,3.23-.8,8.69-7.49,14.57-20.73a190.74,190.74,0,0,0,7.71-21,334.74,334.74,0,0,0,9.94-43.33c2.87-17.27,7.12-35.6,14.34-52.16a123.66,123.66,0,0,1,7.95-15.35c12-19.48,35.8-17.87,55.25-24.07,2.09-.67,4.18-1.35,6.27-2.06A152.66,152.66,0,0,0,2610.51,811.7Z"/><path class="cls-11" d="M2499.6,1031.91c-1.5-13-2.21-24.2-2.45-33.6l-6.4,110S2505.21,1080.89,2499.6,1031.91Z"/><path class="cls-11" d="M2497.15,998.31l2.22-38.19s-.14.62-.36,1.86l.36-6.41a190.74,190.74,0,0,1-7.71,21c-.83,4.67-1.47,9.37-1.89,14.09-2.17,23.33-1.31,49.66-8.79,72a72.34,72.34,0,0,1-14.47,25.37c7.9,7,15.86,13.87,24.24,20.27l6.34-112.38C2497.11,996.69,2497.13,997.49,2497.15,998.31Z"/><path class="cls-11" d="M2500.76,954.29c-3,13.59-3.43,27.5-2.79,41.29s2.36,27.58,3.56,41.45c.55,7,1.06,13.88,1.21,20.88a121,121,0,0,1-1.23,21,85.4,85.4,0,0,1-2.27,10.29c-.94,3.35-1.94,6.7-3.17,10a59.3,59.3,0,0,1-4.55,9.47,51.35,51.35,0,0,1-6.33,8.31,60.43,60.43,0,0,0,5.64-8.7,57.25,57.25,0,0,0,3.86-9.56c1-3.28,1.89-6.63,2.67-10a92.27,92.27,0,0,0,1.86-10.12,129.76,129.76,0,0,0,.71-20.59c-.23-6.89-.76-13.81-1.35-20.71-1.14-13.8-2.71-27.66-2.92-41.62a164.21,164.21,0,0,1,.89-20.92A110.81,110.81,0,0,1,2500.76,954.29Z"/><path class="cls-11" d="M2785,830.67a99.72,99.72,0,0,0-16.13,7.85,137.75,137.75,0,0,1-56.47-28.46,213.91,213.91,0,0,0,26.58,8.47C2755.77,822.62,2774.27,826.32,2785,830.67Z"/><path class="cls-8" d="M2877.25,1000.26l-9.91,4.46-10.48,4.72S2809,847.36,2778.6,834.05l8.33-2.54s.57-.41,2.07.31C2795.07,834.76,2816.42,856.43,2877.25,1000.26Z"/><path class="cls-6" d="M2867.34,1004.72l-10.48,4.72S2809,847.36,2778.6,834.05l8.33-2.54s.57-.41,2.07.31a350.41,350.41,0,0,1,44.45,77.71c6.72,16.3,12.05,33,18.75,49.23A334.87,334.87,0,0,1,2867.34,1004.72Z"/><path class="cls-11" d="M2879.63,1073.28c-.51,2.33-1.11,4.62-1.83,6.87-3.3,10.48-8.85,19.87-17.81,25.74-20.83,13.66-43.28,26.12-66.52,35.17-1.18.46-2.36.88-3.55,1.27-19.66,6.51-38.55,3.25-53.15-6.23A61.26,61.26,0,0,1,2718,1117a115.31,115.31,0,0,1-11.17-23.46c-1-3-1.82-5.79-2.43-8.34-1.92-8-2-13.56-1.57-15.14l11.1-4.22,4.14-1.57,12.28-4.66,6.17-2.34,16.2-5.78,51.94-18.51,15.94-7.18c1.07-.48,2.19-1,3.36-1.5,7.13-3.23,15.5-7,23.79-10.73l9.08-4.09,2.73-1.22,2.65-1.2c.82-.36,1.63-.73,2.42-1.1l2.68-1.2c.16-.06.31-.14.47-.21l2.56-1.15,6.88-3.1c1.06,3.55,2.1,11.64,2.95,19.86,1.07,10.38,1.82,20.95,1.88,22.78A123.07,123.07,0,0,1,2879.63,1073.28Z"/><path class="cls-8" d="M2882,1055.57c-.21,3.69-.57,7.46-1.14,11.21-.33,2.18-.72,4.36-1.2,6.5-.51,2.33-1.11,4.62-1.83,6.87a64.74,64.74,0,0,1-2.37,6.38,52,52,0,0,1-2.76,5.54,39.9,39.9,0,0,1-12.68,13.82c-20.83,13.66-43.28,26.12-66.52,35.17-1.18.46-2.36.88-3.55,1.27a62.8,62.8,0,0,1-10.78.69,60.37,60.37,0,0,1-10.84-1.24,59.73,59.73,0,0,1-23.44-10.51,61.3,61.3,0,0,1-7.47-6.57c-.47-.48-.93-1-1.38-1.46a60.27,60.27,0,0,1-6.59-8.7,2.33,2.33,0,0,1-.17-.26c-1.48-2.39-2.83-4.78-4.05-7.12-.64-1.23-1.24-2.43-1.81-3.64-8.65-18.16-10-33.74-9.43-37.72a3.78,3.78,0,0,1,.12-.56l16.19-5.77,6.28-2.24,16.2-5.78,51.94-18.51,15.94-7.18c1.07-.48,2.19-1,3.36-1.5,7.13-3.23,15.5-7,23.79-10.73l9.08-4.09,2.73-1.22,2.65-1.2c.82-.36,1.63-.73,2.42-1.1l2.68-1.2c.16-.06.31-.14.47-.21l2.56-1.15,6.88-3.1a58.24,58.24,0,0,1,1.39,7.09c.56,3.68,1.08,8.14,1.55,12.64,0,0,0,.09,0,.13.23,2.3.45,4.59.65,6.81.1,1.07.2,2.14.29,3.18s.19,2.31.27,3.39c.18,2.14.33,4.06.43,5.61.15,1.9.22,3.24.24,3.79C2882.22,1046.9,2882.21,1051.18,2882,1055.57Z"/><path class="cls-8" d="M2792.14,834.68a67.18,67.18,0,0,0-7.23.3c-1.43.11-2.79.25-3.94.38l-2.84.31a43.1,43.1,0,0,0-6.3,1.11c-15.29,3.89-25.57,15.74-33.71,29.27-8.44,14-14,31.86-17.53,51.25-5.72,31.23-6.32,63.33-5.37,95,.39,13,1.12,26,2,39,.26,3.81,2.17,11.26.28,14.72-2.26,4.12-10.24,5.11-14.2,6.93-3.51-12.58.07-27.54.6-40.4,1-24.58,1.81-49.16,2.57-73.74,1.1-35.51,6.56-78,33.14-104.36,8.93-8.85,18-16.26,30.25-20.26a53,53,0,0,1,12.7-2.52,42.71,42.71,0,0,1,4.38-.12A20.4,20.4,0,0,1,2792.14,834.68Z"/><path class="cls-15" d="M2776.5,1093.73q-23.7,10-47.08,20.81a2.33,2.33,0,0,1-.17-.26c-1.48-2.39-2.83-4.78-4.05-7.12Q2750.87,1100.55,2776.5,1093.73Z"/><path class="cls-15" d="M2794.84,1106.49q-25.52,11.28-50,24.78a61.3,61.3,0,0,1-7.47-6.57Z"/><path class="cls-15" d="M2768.3,1141.78q35.23-12.52,70.44-25.06-30.22,12.15-59.6,26.3A60.37,60.37,0,0,1,2768.3,1141.78Z"/><path class="cls-15" d="M2851.78,1035.81l6.86-1.33C2856.36,1035,2854.08,1035.43,2851.78,1035.81Z"/><path class="cls-15" d="M2837.78,1099.65q19-5.88,37.65-13.12a52,52,0,0,1-2.76,5.54Z"/><path class="cls-15" d="M2880.19,1020q-59.64,14.67-118.11,33.69c39-15,78.06-30.08,116.56-46.33C2879.2,1011,2879.72,1015.49,2880.19,1020Z"/><path class="cls-15" d="M2858.64,1034.48a113.15,113.15,0,0,0,22.21-7.55c.1,1.07.2,2.14.29,3.18Z"/><path class="cls-15" d="M2837.6,1049.17l43.81-15.67c.18,2.14.33,4.06.43,5.61Z"/><path class="cls-15" d="M2882,1055.57c-.21,3.69-.57,7.46-1.14,11.21q-42.55,13.93-84.84,28.7Z"/><path class="cls-32" d="M2786.93,831.51a42.71,42.71,0,0,0-4.38.12c.8-.33,1.61-.65,2.42-1C2785.67,831,2786.31,831.23,2786.93,831.51Z"/><path class="cls-11" d="M2832.81,1073.67c-13.22,27.67-75.26,84.73-96.34,102.91s-51.46,30.56-58.57,54.52-15.61,41.71-20.23,42.94-7.83-.82-9.54-11.56c-1.09-6.88-3.46-6.12-6.57-8.28-1.74-1.21-3.7-3.34-5.81-8.23a19.44,19.44,0,0,1-.9-13.41c1.52-5.72,4.46-9.76.9-13-3.24-3-6.48-2.91-10-3.24a16.55,16.55,0,0,1-9.27-3.37c-4.81-3.64-3.45-8.6-3.35-12.39.06-2.22-.32-4-2.6-5-5.38-2.16-14.47-2.45-14-7.85a3.37,3.37,0,0,1,3.17-3c6.28-.4,24.13-2.33,30.21-11.46,1.37-2.06,5.72-6.47,11.93-12.49,2.5-2.42,5.3-5.1,8.33-8a10.4,10.4,0,0,1-2-.54,11.39,11.39,0,0,0,5.54-2.12c5.18-3.43,9.9-8.11,14.46-12.3,18.77-17.26,34.89-37.1,52.76-55.23a99.1,99.1,0,0,0,15.91-21.61,48,48,0,0,0,3.8-9.15c3.19-11.32,1.82-27.69-1.45-46.19-2.74-15.56-6.83-32.62-10.67-49.44-3-13.2-5.86-26.25-7.81-38.31a3.72,3.72,0,0,1,0-1.2c2.67-14.44,6.47-28,11.76-39.77a101.13,101.13,0,0,1,5.54-10.68,2.65,2.65,0,0,1,.26-.39,111.37,111.37,0,0,1,20.3-20.34h0q3.6-2.79,7.42-5.24c1.84-1.19,3.73-2.31,5.64-3.38l.2-.11a43.1,43.1,0,0,1,6.3-1.11c1.7-.17,3.29-.42,4.83-.52h0c3.29-.23,6.29.13,9.29,3.1,5.13,5.1,8.31,13.7,10.28,20.49,3.35,11.55,5.57,23.4,9.31,34.83,10.31,31.56,20.32,64.64,23.94,97.61C2838.51,1015.88,2844,1050.22,2832.81,1073.67Z"/><path class="cls-11" d="M2410.92,2027.56a482,482,0,0,0-11.8,85.85l-56.67-6.77,3.22-26.44s-103.34,3.31-151.56-14.9c-28.43-10.72-44.83-31.18-46.44-45.15,25.43,23,62.06,31.2,96.76,32.72C2300.88,2055.33,2356.4,2043.54,2410.92,2027.56Z"/><path class="cls-11" d="M2990.82,2028.27a460.31,460.31,0,0,1-45.43,41.17q-7.18-8.36-14.38-16.72c-29.56,26.25-50.78,53.88-86.27,74.43-22.69,13.13-54.14,23.78-80.62,18.79-3.18-.6-8.91-3.08-14.84-6.57a339.21,339.21,0,0,0,53-16.88c41.29-17,77.61-50.44,103.21-86.72,13.91-19.7,24.83-41.36,33.9-63.66a81.28,81.28,0,0,0,2.66-9C2955.77,1983.84,2987.86,2031.23,2990.82,2028.27Z"/><path class="cls-11" d="M2519.15,1712.27q-2.94,11.57-6.32,23c-12.24,19.52-27.38,37.38-47.12,48.1-6.77,3.67-15,6.75-22,3.54-6.05-2.79-9.22-9.39-11.76-15.54a421.67,421.67,0,0,1-27.38-98.7c20.06,36.15,19.06,81.45,46.67,92C2479.37,1775.39,2521.15,1704.4,2519.15,1712.27Z"/><path class="cls-11" d="M2820.23,1710c-.56,15.7-5.12,57.71-25.23,57.91-40.91.39-69.5-20-94.38-48.81-2.89-5.54-6-10.19-8.94-11.44.6.25,5.39-.52,6-.22,23.48,11.26,65.76,58.14,90.7,45.46,24-12.21,23.69-62.92,21.73-92.32a1.05,1.05,0,0,1,2.06-.36c2.51,8.54,5.68,17.48,9.31,26.8C2822.89,1693.93,2820.46,1703.23,2820.23,1710Z"/><path class="cls-15" d="M2280.84,2009.4a85,85,0,0,0-51.94,8.06q8.66,4.47,17.28,9a239.63,239.63,0,0,1-37.18-20.81,397.65,397.65,0,0,0,59.83-9.83A65.43,65.43,0,0,1,2280.84,2009.4Z"/><path class="cls-15" d="M2395.71,1927.28a121.75,121.75,0,0,1-52.72,15.88c1.58-4.54,3.2-9.64,4.87-15.18Z"/><path class="cls-15" d="M2425.79,1971.84c-1.27,4.17-2.49,8.31-3.68,12.45-24.47-1.06-50.27-6.9-74.51-9.46a238.36,238.36,0,0,0-23.88-1.33,53.33,53.33,0,0,0,6.27-5.34c10.87,6.69,26.7,7.27,40.24,6.57Z"/><path class="cls-15" d="M2487.68,1807.7c-.75,2-1.51,3.9-2.28,5.85l-113.79,18.26c1.58-7.26,3.14-14.57,4.68-21.84a.19.19,0,0,1,0-.07,111.89,111.89,0,0,0,38.81,5C2439.36,1813.82,2463.66,1807.82,2487.68,1807.7Z"/><path class="cls-15" d="M2471.08,1849.41c-5.86,14.54-11.77,29.06-17.48,43.65-34.39,6.85-69.3,11.87-102.22,22.66,1.66-5.94,3.33-12.27,5-18.88h0c3.9-15.29,7.87-32.12,11.77-49.51,17.46,6.47,37.41,7.31,56.27,6.09C2440,1852.39,2455.56,1850.23,2471.08,1849.41Z"/><path class="cls-15" d="M2809.51,1800l-54.55,21.9a259.4,259.4,0,0,0,41.31-2.22l-27.37,26.83q-8.43-13.5-17-26.93Z"/><path class="cls-15" d="M2821,2046.92l2-.23a90.5,90.5,0,0,1-38,35.26c3.61-2.42,7.11-4.87,10.48-7.31l0,0C2803.78,2068.58,2813,2058.45,2821,2046.92Z"/><path class="cls-15" d="M2745.09,1808.15c-4.53-8.16-8.55-16.6-12.54-25.08l1,0c32.32.67,68.82-3.54,88.82-28.95,6.73-8.57,11-18.86,14.78-29.38,3.8,8.86,7.71,18,11.59,27.29-20.23,17.51-44.33,30.28-68.62,41.16C2768.59,1798.39,2756.83,1803.24,2745.09,1808.15Z"/><path class="cls-15" d="M2941.64,1962.53c-9.52.06-18.67-1.64-27-6.53a93.14,93.14,0,0,0,10.94-19q5.13,8.64,10.56,17.16C2936.81,1955.19,2938.8,1958.23,2941.64,1962.53Z"/><path class="cls-15" d="M2785.35,2081.7a349,349,0,0,0,50.26-20.56q-50.59,26-102.6,49a22.69,22.69,0,0,1,4.43-2.34c15.58-6.35,32-15.53,46.69-25.31l.86-.58Z"/><path class="cls-15" d="M2802.07,1898q2-2.13,4-4.27l15.19-11.39Z"/><path class="cls-15" d="M2838.67,2013a165.81,165.81,0,0,0,36.19-5.47c-17,24.85-41.22,42.58-68,56.84a148.24,148.24,0,0,0,14.12-17.48c7.36-10.58,13.71-22.33,17.45-33.2Z"/><path class="cls-15" d="M2842.05,1993.39a67.5,67.5,0,0,0-.55-8.67l5.07-.1Z"/><path class="cls-15" d="M2868.41,1948.07q-15.12,10.82-30.23,21.64a120.88,120.88,0,0,0-6.56-16.36A93.6,93.6,0,0,1,2868.41,1948.07Z"/><path class="cls-15" d="M2871.49,1814.08a879.55,879.55,0,0,1-65.44,79.63l-5.88,4.4c-3.39-5.89-6.86-11.74-10.36-17.58-.36-.59-.71-1.19-1.08-1.78a360,360,0,0,0,82.05-67c.21.65.41,1.31.61,2C2871.42,1813.86,2871.45,1814,2871.49,1814.08Z"/><path class="cls-15" d="M2809.36,1914.17l71.27-45.26L2815.81,1925C2813.62,1921.32,2811.43,1917.72,2809.36,1914.17Z"/><path class="cls-23" d="M2681.58,699.71l-3.73,2.87-.1.09c-8.27-3.13-16.69-8.83-21.1-16.78-2-3.55-9.62-23.08-6.36-26.56-2.2,2.35-2.08,1.49-3.62.75a23,23,0,0,0-8.52-12.41c-5.76-4.16-11.55-6.86-16.52-12-5.77-6-6.38-19.54-6.24-27.88,0,13.7,9.89,20.53,20.42,27.35,8.5,5.5,13.78,12.35,17.67,21.57s3.41,19,8.6,27.77a34.26,34.26,0,0,0,14.11,13.26A29.07,29.07,0,0,0,2681.58,699.71Z"/><path class="cls-23" d="M2570,604.73c-1.12,23,3.68,42.72-12.51,62.53-5.17,6.33-11.67,11.68-15.21,19.11-4.38,9.16-3.11,16.85.59,23.8l-1.07.19a32.31,32.31,0,0,1,1.16-36.87c5.76-7.46,14.87-12.32,18.85-20.87,3.44-7.37,2.37-16,.47-23.92-1.26-5.31-2.87-10.61-3.08-16.06s1.19-11.26,5.1-15.07c3.27-3.17.81-2.81,4.36-5.69C2566.4,593.72,2567.72,599,2570,604.73Z"/><path class="cls-23" d="M2593.37,614.82a55.94,55.94,0,0,0,.88,10A19.93,19.93,0,0,1,2593.37,614.82Z"/><path class="cls-23" d="M2624.15,665.07a14.34,14.34,0,0,0,.58-1.59c-5.92-1-11.07-4.73-15.27-9a57,57,0,0,1-15.21-29.63,45.78,45.78,0,0,0,7,12.5c5.7,7.69,13.59,16.89,22.47,20.9a55.56,55.56,0,0,0,14.94,4A55.52,55.52,0,0,1,2624.15,665.07Z"/><path class="cls-23" d="M2573.26,585c.07-.45.13-.92.16-1.38A1.28,1.28,0,0,1,2573.26,585Z"/><path class="cls-23" d="M2574.28,567.61a15.1,15.1,0,0,0-1.13,6.48c0,3.14.52,6.38.27,9.51a4.69,4.69,0,0,0-2.55-2.05c-1.3-.47-2.63-.91-4-1.3a95.76,95.76,0,0,0-14.13-3.26,33.16,33.16,0,0,1,15.82-3.28,25,25,0,0,1,8.1-9.63A12.11,12.11,0,0,0,2574.28,567.61Z"/><path class="cls-23" d="M2735.09,676.38a136.35,136.35,0,0,0-10.56-54.26c3,7.19,7.66,13.08,10.75,20a82.85,82.85,0,0,1,1.58,9.06C2737.63,657.85,2736.29,666.89,2735.09,676.38Z"/><path class="cls-11" d="M2689.31,582.76q7,4.69,13.65,9.78c2.23,1.7,4.43,3.42,6.61,5.18a81.67,81.67,0,0,1,6.35,5.73,80.81,80.81,0,0,1,18.32,28.46,87.23,87.23,0,0,1,4.45,16.28,114.74,114.74,0,0,1,1.48,16.7,114.87,114.87,0,0,0,1.35,16.5,18.55,18.55,0,0,0,2.91,7.6,9,9,0,0,0,6.94,3.88,9.12,9.12,0,0,1-7.24-3.65,18.86,18.86,0,0,1-3.35-7.67,114.88,114.88,0,0,1-2.14-16.57,113.78,113.78,0,0,0-2.2-16.35,85,85,0,0,0-5-15.57,77.22,77.22,0,0,0-18.67-26.3c-2-1.82-4.06-3.5-6.23-5.14s-4.4-3.3-6.64-4.9q-6.7-4.8-13.66-9.22a2.83,2.83,0,0,1,3-4.79Z"/><path class="cls-23" d="M2561.7,752.21a14.86,14.86,0,0,1-3.13,2.45c3.45-6.39.37-15.62-6-20.17-3.62-2.61-8-3.8-11.81-6.09a27.48,27.48,0,0,1-4.65-3.58c.8.4,1.62.76,2.44,1.1,4.23,1.73,8.76,2.73,12.8,4.88C2558.18,734.4,2569.21,744.24,2561.7,752.21Z"/><path class="cls-23" d="M2544.91,635.53c1.77-11.5,1.79-23.21,3.5-34.71.49-3.33,1.79-7.33,5.1-7.89-3.21.54-7.9,19.44-8.76,22.51-2.26,8.06-3,16.11-4.69,24.2-1.67,7.9-6.12,14-9.58,21.2s-3.11,15.81-2.61,23.9C2526.85,667.48,2542.28,652.61,2544.91,635.53Z"/><path class="cls-11" d="M2502.43,1115.55c6.7-11.5,8.86-25.1,9.63-38.38-.59,18.61-1.31,37.77-6.47,55.5-.14.48-.29,1-.43,1.43-.26.87-.54,1.73-.83,2.59-1.62,2.17-4.31,2.37-6.78,2.27a33.25,33.25,0,0,1-15.93-4.94C2490.27,1130.62,2497.68,1123.69,2502.43,1115.55Z"/><path class="cls-11" d="M2536.19,1118.66c-2,6.34,4.17,13.28,1.85,19.5-2.85,7.63-11.94,6.75-17.25,3.38a11.76,11.76,0,0,1-2.71-2.62c7.44-18,3.63-39.2,8.55-57.88,3.4-12.94,6.16-21.88,3.11-35.55-3.24-14.48-1.28-29.8,3.67-43.8l.25.73c-3.1,9.68-3.06,20.42-.88,30.44,2.91,13.33,9.29,25.65,16,37.52,3.19,5.63,6.55,11.42,7.31,17.85s-2.24,14-6.58,18.74C2545.54,1111.28,2538.12,1112.53,2536.19,1118.66Z"/><path class="cls-11" d="M2634.85,1232.56c6.75-5.33,13.7-10.24,20.87-15.44-2.52,13.43-9,25-14.16,37.08-1.74-1.21-3.7-3.34-5.81-8.23A19.44,19.44,0,0,1,2634.85,1232.56Z"/><path class="cls-11" d="M2663.63,1174.83c-7.76,9.37-17.43,17-26,25.58a72.94,72.94,0,0,0-11.86,15.88,16.55,16.55,0,0,1-9.27-3.37c-4.81-3.64-3.45-8.6-3.35-12.39C2631.85,1195.56,2651,1189.27,2663.63,1174.83Z"/><path class="cls-11" d="M2417.73,986.85l.54.41-.05.07C2417.91,987.72,2417.24,986.9,2417.73,986.85Z"/><path class="cls-11" d="M2377.17,998.16c13.71,9.87,31.26,17.35,46.47,24.5l-54-13.48c-.2-2.84-.43-5.78,1.06-7.94S2374.53,998.48,2377.17,998.16Z"/><path class="cls-11" d="M2393,965.52c-2.58-5.12-4-13.1-1.55-18.56a6.51,6.51,0,0,1,4.41-3.92l38.35,54.24c-5.57-4.31-10.36-5.87-15.89-10,.21-.38-.06-.88-.33-1.25-6.37-8.34-16.08-13.53-24.59-19.75C2393.21,966,2393.07,965.77,2393,965.52Z"/><path class="cls-11" d="M2595.5,820.73c-25,10.9-50.82,22.46-71.85,39.35a123.66,123.66,0,0,1,7.95-15.35c12-19.48,35.8-17.87,55.25-24.07,2.09-.67,4.18-1.35,6.27-2.06a1.73,1.73,0,0,1,.69,1.14C2593.84,820.16,2594.9,820.61,2595.5,820.73Z"/><path class="cls-11" d="M2786,833.22c-1,.63-2,1.27-3,1.93h0c-43.57,28.72-51.63,71.55-54.47,121.06-3-13.2-5.86-26.25-7.81-38.31a3.72,3.72,0,0,1,0-1.2c2.67-14.44,6.47-28,11.76-39.77q2.46-3.57,4.94-7c5.76-8.07,12.94-17.23,21.16-24.36h0C2766.8,838.38,2776.05,833.25,2786,833.22Z"/><path class="cls-11" d="M2774.54,1051c-7,1.9-14.37-.49-21.59-.21-5.06.19-10.7,4.51-16.14,10.22a48,48,0,0,0,3.8-9.15c3.19-11.32,1.82-27.69-1.45-46.19,2.23-.75,5.09-.47,5.52-1.54q4.31,15.21,9.86,30c1.22,3.26,2.59,6.64,5.24,8.9C2764.08,1046.68,2770.93,1046.65,2774.54,1051Z"/><path class="cls-11" d="M2723,930.05q6.3,18.51,11.36,37.35c1.74,6.28,3.21,12.63,4.66,19s2.59,12.8,3.65,19.26,2.3,12.67,3.21,19.23a95.91,95.91,0,0,1,.83,10,48.68,48.68,0,0,1-.12,5.11,46.37,46.37,0,0,1-.81,5.08,53.57,53.57,0,0,1-8,18.38,74.82,74.82,0,0,1-13.05,14.7,101.44,101.44,0,0,0,10.65-16.12,61.08,61.08,0,0,0,3.78-8.69,50,50,0,0,0,2.25-9.06c.94-6,.21-12.29-.86-18.58s-2.46-12.64-3.49-19.15-2.11-12.73-3.3-19.08-2.49-12.69-3.71-19.05C2727.52,955.69,2724.9,943,2723,930.05Z"/><path class="cls-11" d="M2744.68,1004.11c-.16-.52-.31-1-.45-1.57C2744.71,1003.27,2744.82,1003.76,2744.68,1004.11Z"/><path class="cls-5" d="M1063.43,464.73c-83-.63-150.74,71.2-151.41,160.42-.48,62.36,71.87,197.34,115.48,273v54.15h32.25c1.18-1.82,152-236,152.65-324.84C1213.07,538.2,1146.37,465.35,1063.43,464.73Zm-1.65,217.94c-34.51-.25-62.26-28.95-62-64.07s28.45-63.4,63-63.13,62.27,28.94,62,64.07S1096.28,682.93,1061.78,682.67Z"/><path class="cls-5" d="M1031.18,470.6a5.87,5.87,0,0,1-5.87-5.87V429.51a5.87,5.87,0,1,1,11.74,0v35.22A5.87,5.87,0,0,1,1031.18,470.6Z"/><path class="cls-5" d="M1031.18,362.41a5.87,5.87,0,0,1-5.87-5.87V315.45h41.09a5.87,5.87,0,0,1,0,11.74h-29.35v29.35A5.87,5.87,0,0,1,1031.18,362.41Z"/><path class="cls-5" d="M1626.27,327.19h-70a5.87,5.87,0,1,1,0-11.74h70a5.87,5.87,0,1,1,0,11.74Zm-140,0h-70a5.87,5.87,0,1,1,0-11.74h70a5.87,5.87,0,1,1,0,11.74Zm-140,0h-70a5.87,5.87,0,1,1,0-11.74h70a5.87,5.87,0,1,1,0,11.74Zm-140,0h-70a5.87,5.87,0,0,1,0-11.74h70a5.87,5.87,0,1,1,0,11.74Z"/><path class="cls-5" d="M1737.35,327.19h-41.09a5.87,5.87,0,1,1,0-11.74h29.35V286.1a5.87,5.87,0,1,1,11.74,0Z"/><path class="cls-5" d="M1731.48,208.7a5.87,5.87,0,0,1-5.87-5.87V161.74h41.09a5.87,5.87,0,0,1,0,11.74h-29.35v29.35A5.87,5.87,0,0,1,1731.48,208.7Z"/><path class="cls-5" d="M2483.79,173.48h-71.71a5.87,5.87,0,1,1,0-11.74h71.71a5.87,5.87,0,0,1,0,11.74Zm-143.42,0h-71.71a5.87,5.87,0,1,1,0-11.74h71.71a5.87,5.87,0,0,1,0,11.74Zm-143.42,0h-71.71a5.87,5.87,0,1,1,0-11.74H2197a5.87,5.87,0,1,1,0,11.74Zm-143.42,0h-71.7a5.87,5.87,0,1,1,0-11.74h71.7a5.87,5.87,0,0,1,0,11.74Zm-143.41,0h-71.71a5.87,5.87,0,0,1,0-11.74h71.71a5.87,5.87,0,1,1,0,11.74Z"/><path class="cls-5" d="M2590.72,241.33a5.87,5.87,0,0,1-5.87-5.87v-62H2555.5a5.87,5.87,0,1,1,0-11.74h41.09v73.72A5.87,5.87,0,0,1,2590.72,241.33Z"/><path class="cls-5" d="M1029.53,682.67c-34.5-.26-62.26-28.94-62-64.07s28.46-63.4,63-63.14,62.26,29,62,64.08S1064,682.94,1029.53,682.67Zm52.73-207.94a140.42,140.42,0,0,0-51.08-10c-83-.63-150.74,71.2-151.42,160.42-.24,32.46,19.24,84.59,44.14,137.79,43.53,93,103.6,189.33,103.6,189.33s152-235.63,152.66-324.85C1180.68,557.51,1139.85,497.67,1082.26,474.73Z"/><path class="cls-5" d="M2595.75,244.15c-45.84-.35-83.31,39.35-83.68,88.66-.26,34.46,39.72,109.06,63.82,150.86V513.6h17.83c.65-1,84-130.42,84.36-179.53C2678.46,284.75,2641.59,244.49,2595.75,244.15Zm-.91,120.45c-19.07-.14-34.41-16-34.26-35.41s15.72-35,34.79-34.9,34.42,16,34.27,35.41S2613.91,364.74,2594.84,364.6Z"/><path class="cls-5" d="M2577.93,244.14c-45.84-.34-83.31,39.35-83.68,88.66s81.64,180.8,81.64,180.8,84-130.23,84.37-179.54S2623.77,244.49,2577.93,244.14ZM2577,364.6c-19.07-.15-34.41-16-34.27-35.42s15.73-35,34.8-34.89,34.41,16,34.27,35.42S2596.09,364.74,2577,364.6Z"/><path class="cls-12" d="M1917.2,1833.23c-3.49,17-9.34,32.34-18.35,44.54,0,0,1.19-22.81,1.86-53.76Q1908.81,1828.87,1917.2,1833.23Z"/><path class="cls-11" d="M2594.55,869.2l.33-.16C2595,869.21,2594.84,869.24,2594.55,869.2Z"/></g></g></svg>